<?xml version="1.0" encoding="utf-8"?>
<!-- Generator: Adobe Illustrator 15.1.0, SVG Export Plug-In . SVG Version: 6.00 Build 0)  -->
<!DOCTYPE svg PUBLIC "-//W3C//DTD SVG 1.1//EN" "http://www.w3.org/Graphics/SVG/1.1/DTD/svg11.dtd">
<svg version="1.1" id="Layer_1" xmlns="http://www.w3.org/2000/svg" xmlns:xlink="http://www.w3.org/1999/xlink" x="0px" y="0px"
	 width="72px" height="72px" viewBox="0 0 72 72" enable-background="new 0 0 72 72" xml:space="preserve">
<defs>
	<filter id="Adobe_OpacityMaskFilter" filterUnits="userSpaceOnUse" x="0" y="0" width="72" height="72">
		<feColorMatrix  type="matrix" values="1 0 0 0 0  0 1 0 0 0  0 0 1 0 0  0 0 0 1 0"/>
	</filter>
</defs>
<mask maskUnits="userSpaceOnUse" x="0" y="0" width="72" height="72" id="SVGID_1_">
	<g filter="url(#Adobe_OpacityMaskFilter)">
		<circle fill="#FFFFFF" cx="36" cy="36" r="36"/>
	</g>
</mask>
<g mask="url(#SVGID_1_)">
	<rect fill="#273476" width="72" height="72"/>
	<g>
		<g>
			<g>
				<g id="Pentagram">
					<g id="Arm" transform="translate(0,-0.324925)">
						<path fill="#FFFFFF" d="M37.507,12.802v2.76l5.52-2.76H37.507z"/>
						<path fill="#FFFFFF" d="M38.562,16.047l-1.623-2.233l6.087-1.011L38.562,16.047z"/>
					</g>
					<g transform="scale(-1,1)">
						<g id="Arm_1_" transform="translate(0,-0.324925)">
							<path fill="#FFFFFF" d="M37.507,12.802v2.76l-5.519-2.76H37.507z"/>
							<path fill="#FFFFFF" d="M36.455,16.047l1.62-2.233l-6.087-1.011L36.455,16.047z"/>
						</g>
					</g>
					<g transform="rotate(72,0,0)">
						<g id="Arm_2_" transform="translate(0,-0.324925)">
							<path fill="#FFFFFF" d="M39.213,14.041l-2.623,0.852l4.328,4.396L39.213,14.041z"/>
							<path fill="#FFFFFF" d="M36.455,16.047l1.62-2.233l2.843,5.476L36.455,16.047z"/>
						</g>
					</g>
					<g transform="rotate(-72,0,0)">
						<g id="Arm_3_" transform="translate(0,-0.324925)">
							<path fill="#FFFFFF" d="M35.802,14.041l2.624,0.852l-0.919-6.099L35.802,14.041z"/>
							<path fill="#FFFFFF" d="M39.213,14.041l-2.623,0.852l0.917-6.099L39.213,14.041z"/>
						</g>
					</g>
					<g transform="translate(900,120) scale(45.4)">
						<g id="Arm_4_" transform="translate(0,-0.324925)">
							<path fill="#FFFFFF" d="M35.802,14.041l2.624,0.852l-4.329,4.396L35.802,14.041z"/>
							<path fill="#FFFFFF" d="M38.56,16.047l-1.62-2.233l-2.843,5.476L38.56,16.047z"/>
						</g>
					</g>
				</g>
				<g id="Gamma_Crucis">
					<g id="Pentagram_1_">
						<g id="Arm_5_" transform="translate(0,-0.324925)">
							<path fill="#CC202C" d="M37.507,13.412v1.822l3.646-1.822H37.507z"/>
							<path fill="#CC202C" d="M38.204,15.554l-1.072-1.476l4.021-0.667L38.204,15.554z"/>
						</g>
						<g transform="scale(-1,1)">
							<g id="Arm_6_" transform="translate(0,-0.324925)">
								<path fill="#CC202C" d="M37.507,13.412v1.822l-3.645-1.822H37.507z"/>
								<path fill="#CC202C" d="M36.812,15.554l1.072-1.476l-4.021-0.667L36.812,15.554z"/>
							</g>
						</g>
						<g transform="rotate(72,0,0)">
							<g id="Arm_7_" transform="translate(0,-0.324925)">
								<path fill="#CC202C" d="M38.635,14.231L36.9,14.793l2.86,2.904L38.635,14.231z"/>
								<path fill="#CC202C" d="M36.812,15.554l1.072-1.476l1.877,3.618L36.812,15.554z"/>
							</g>
						</g>
						<g transform="rotate(-72,0,0)">
							<g id="Arm_8_" transform="translate(0,-0.324925)">
								<path fill="#CC202C" d="M36.38,14.231l1.735,0.562l-0.608-4.03L36.38,14.231z"/>
								<path fill="#CC202C" d="M38.635,14.231L36.9,14.793l0.606-4.03L38.635,14.231z"/>
							</g>
						</g>
						<g transform="translate(900,120) scale(30)">
							<g id="Arm_9_" transform="translate(0,-0.324925)">
								<path fill="#CC202C" d="M36.38,14.231l1.735,0.562l-2.86,2.904L36.38,14.231z"/>
								<path fill="#CC202C" d="M38.204,15.554l-1.072-1.476l-1.877,3.618L38.204,15.554z"/>
							</g>
						</g>
					</g>
				</g>
				<g>
					<g>
						<g>
							<g id="Pentagram_2_">
								<g id="Arm_10_" transform="translate(0,-0.324925)">
									<path fill="#FFFFFF" d="M569.296,1050.232l2.431,0.342l-1.748-5.204L569.296,1050.232z"/>
									<path fill="#FFFFFF" d="M572.285,1049.704l-2.167,1.152l-0.138-5.487L572.285,1049.704z"/>
								</g>
								<g transform="scale(-1,1)">
									<g id="Arm_11_" transform="translate(0,-0.324925)">
										<path fill="#FFFFFF" d="M569.296,1050.232l2.431,0.342l-3.115,4.521L569.296,1050.232z"/>
										<path fill="#FFFFFF" d="M572.024,1051.562l-1.766-1.705l-1.645,5.237L572.024,1051.562z"/>
									</g>
								</g>
								<g transform="rotate(72,0,0)">
									<g id="Arm_12_" transform="translate(0,-0.324925)">
										<path fill="#FFFFFF" d="M570.599,1048.882l0.427,2.417l4.409-3.27L570.599,1048.882z"/>
										<path fill="#FFFFFF" d="M572.024,1051.562l-1.766-1.705l5.176-1.828L572.024,1051.562z"/>
									</g>
								</g>
								<g transform="rotate(-72,0,0)">
									<g id="Arm_13_" transform="translate(0,-0.324925)">
										<path fill="#FFFFFF" d="M570.176,1051.887l1.077-2.206l-5.491,0.054L570.176,1051.887z"/>
										<path fill="#FFFFFF" d="M570.599,1048.882l0.427,2.417l-5.264-1.564L570.599,1048.882z"/>
									</g>
								</g>
								<g transform="translate(900,120) rotate(-82) scale(40.4)">
									<g id="Arm_14_" transform="translate(0,-0.324925)">
										<path fill="#FFFFFF" d="M570.176,1051.887l1.077-2.206l3.337,4.358L570.176,1051.887z"/>
										<path fill="#FFFFFF" d="M572.285,1049.704l-2.167,1.152l4.472,3.184L572.285,1049.704z"/>
									</g>
								</g>
							</g>
							<g id="Delta_Crucis">
								<g id="Pentagram_3_">
									<g id="Arm_15_" transform="translate(0,-0.324925)">
										<path fill="#CC202C" d="M569.897,1050.316l1.505,0.212l-1.082-3.221L569.897,1050.316z"/>
										<path fill="#CC202C" d="M571.747,1049.991l-1.341,0.712l-0.086-3.397L571.747,1049.991z"/>
									</g>
									<g transform="scale(-1,1)">
										<g id="Arm_16_" transform="translate(0,-0.324925)">
											<path fill="#CC202C" d="M569.897,1050.316l1.505,0.212l-1.928,2.797L569.897,1050.316z"/>
											<path fill="#CC202C" d="M571.586,1051.138l-1.092-1.055l-1.019,3.241L571.586,1051.138z"/>
										</g>
									</g>
									<g transform="rotate(72,0,0)">
										<g id="Arm_17_" transform="translate(0,-0.324925)">
											<path fill="#CC202C" d="M570.704,1049.48l0.263,1.496l2.729-2.022L570.704,1049.48z"/>
											<path fill="#CC202C" d="M571.586,1051.138l-1.092-1.055l3.203-1.13L571.586,1051.138z"/>
										</g>
									</g>
									<g transform="rotate(-72,0,0)">
										<g id="Arm_18_" transform="translate(0,-0.324925)">
											<path fill="#CC202C" d="M570.442,1051.341l0.665-1.367l-3.397,0.034L570.442,1051.341z"/>
											<path fill="#CC202C" d="M570.704,1049.48l0.263,1.496l-3.256-0.967L570.704,1049.48z"/>
										</g>
									</g>
									<g transform="translate(900,120) rotate(-82) scale(25)">
										<g id="Arm_19_" transform="translate(0,-0.324925)">
											<path fill="#CC202C" d="M570.442,1051.341l0.665-1.367l2.066,2.698L570.442,1051.341z"/>
											<path fill="#CC202C" d="M571.747,1049.991l-1.341,0.712l2.768,1.969L571.747,1049.991z"/>
										</g>
									</g>
								</g>
							</g>
							<g>
								<g transform="rotate(82,900,240)">
									<g id="Pentagram_4_">
										<g id="Arm_20_" transform="translate(0,-0.324925)">
											<path fill="#FFFFFF" d="M569.1,1081.805l2.733,0.384l-1.965-5.849L569.1,1081.805z"/>
											<path fill="#FFFFFF" d="M572.459,1081.213l-2.437,1.296l-0.154-6.168L572.459,1081.213z"/>
										</g>
										<g transform="scale(-1,1)">
											<g id="Arm_21_" transform="translate(0,-0.324925)">
												<path fill="#FFFFFF" d="M569.1,1081.805l2.733,0.384l-3.501,5.08L569.1,1081.805z"/>
												<path fill="#FFFFFF" d="M572.166,1083.299l-1.986-1.915l-1.848,5.885L572.166,1083.299z"/>
											</g>
										</g>
										<g transform="rotate(72,0,0)">
											<g id="Arm_22_" transform="translate(0,-0.324925)">
												<path fill="#FFFFFF" d="M570.563,1080.288l0.479,2.716l4.956-3.674L570.563,1080.288z"/>
												<path fill="#FFFFFF" d="M572.166,1083.299l-1.986-1.915l5.818-2.053L572.166,1083.299z"/>
											</g>
										</g>
										<g transform="rotate(-72,0,0)">
											<g id="Arm_23_" transform="translate(0,-0.324925)">
												<path fill="#FFFFFF" d="M570.089,1083.665l1.209-2.479l-6.167,0.06L570.089,1083.665z"/>
												<path fill="#FFFFFF" d="M570.563,1080.288l0.479,2.716l-5.912-1.758L570.563,1080.288z"/>
											</g>
										</g>
										<g transform="translate(900,380) rotate(-82) scale(45.4)">
											<g id="Arm_24_" transform="translate(0,-0.324925)">
												<path fill="#FFFFFF" d="M570.089,1083.665l1.209-2.479l3.751,4.898L570.089,1083.665z"/>
												<path fill="#FFFFFF" d="M572.459,1081.213l-2.437,1.296l5.027,3.576L572.459,1081.213z"/>
											</g>
										</g>
									</g>
									<g id="Beta_Crucis">
										<g id="Pentagram_5_">
											<g id="Arm_25_" transform="translate(0,-0.324925)">
												<path fill="#CC202C" d="M569.703,1081.889l1.805,0.254l-1.297-3.866L569.703,1081.889z"/>
												<path fill="#CC202C" d="M571.922,1081.498l-1.611,0.856l-0.1-4.077L571.922,1081.498z"/>
											</g>
											<g transform="scale(-1,1)">
												<g id="Arm_26_" transform="translate(0,-0.324925)">
													<path fill="#CC202C" d="M569.703,1081.889l1.805,0.254l-2.312,3.357L569.703,1081.889z"/>
													<path fill="#CC202C" d="M571.728,1082.877l-1.312-1.267l-1.22,3.891L571.728,1082.877z"/>
												</g>
											</g>
											<g transform="rotate(72,0,0)">
												<g id="Arm_27_" transform="translate(0,-0.324925)">
													<path fill="#CC202C" d="M570.669,1080.887l0.317,1.796l3.275-2.43L570.669,1080.887z"/>
													<path fill="#CC202C" d="M571.728,1082.877l-1.312-1.267l3.845-1.357L571.728,1082.877z"/>
												</g>
											</g>
											<g transform="rotate(-72,0,0)">
												<g id="Arm_28_" transform="translate(0,-0.324925)">
													<path fill="#CC202C" d="M570.355,1083.12l0.799-1.639l-4.076,0.04L570.355,1083.12z"/>
													<path fill="#CC202C" d="M570.669,1080.887l0.317,1.796l-3.907-1.163L570.669,1080.887z"/>
												</g>
											</g>
											<g transform="translate(900,380) rotate(-82) scale(30)">
												<g id="Arm_29_" transform="translate(0,-0.324925)">
													<path fill="#CC202C" d="M570.355,1083.12l0.799-1.639l2.478,3.237L570.355,1083.12z"/>
													<path fill="#CC202C" d="M571.922,1081.498l-1.611,0.856l3.322,2.363L571.922,1081.498z"/>
												</g>
											</g>
										</g>
									</g>
								</g>
								<g>
									<g id="Southern_Cross">
										<g id="Pentagram_6_">
											<g id="Arm_30_" transform="translate(0,-0.324925)">
												<path fill="#FFFFFF" d="M597.793,1068.822l3.033,0.426l-2.18-6.493L597.793,1068.822z"/>
												<path fill="#FFFFFF" d="M601.521,1068.163l-2.706,1.437l-0.17-6.844L601.521,1068.163z"/>
											</g>
											<g transform="scale(-1,1)">
												<g id="Arm_31_" transform="translate(0,-0.324925)">
													<path fill="#FFFFFF" d="M597.793,1068.822l3.033,0.426l-3.885,5.638L597.793,1068.822z"/>
													<path fill="#FFFFFF" d="M601.195,1070.482l-2.205-2.127l-2.05,6.532L601.195,1070.482z"/>
												</g>
											</g>
											<g transform="rotate(72,0,0)">
												<g id="Arm_32_" transform="translate(0,-0.324925)">
													<path fill="#FFFFFF" d="M599.417,1067.138l0.53,3.017l5.504-4.081L599.417,1067.138z"/>
													<path fill="#FFFFFF" d="M601.195,1070.482l-2.205-2.127l6.46-2.28L601.195,1070.482z"/>
												</g>
											</g>
											<g transform="rotate(-72,0,0)">
												<g id="Arm_33_" transform="translate(0,-0.324925)">
													<path fill="#FFFFFF" d="M598.89,1070.887l1.341-2.754l-6.847,0.069L598.89,1070.887z"/>
													<path fill="#FFFFFF" d="M599.417,1067.138l0.53,3.017l-6.563-1.953L599.417,1067.138z"/>
												</g>
											</g>
											<g transform="translate(900,480) scale(50.4)">
												<g id="Arm_34_" transform="translate(0,-0.324925)">
													<path fill="#FFFFFF" d="M598.89,1070.887l1.341-2.754l4.166,5.439L598.89,1070.887z"/>
													<path fill="#FFFFFF" d="M601.521,1068.163l-2.706,1.437l5.581,3.973L601.521,1068.163z"/>
												</g>
											</g>
										</g>
										<g id="Alpha_Crucis">
											<g id="Pentagram_7_">
												<g id="Arm_35_" transform="translate(0,-0.324925)">
													<path fill="#CC202C" d="M598.392,1068.906l2.108,0.296l-1.516-4.509L598.392,1068.906z"/>
													<path fill="#CC202C" d="M600.982,1068.449l-1.879,0.998l-0.119-4.753L600.982,1068.449z"/>
												</g>
												<g transform="scale(-1,1)">
													<g id="Arm_36_" transform="translate(0,-0.324925)">
														<path fill="#CC202C" d="M598.392,1068.906l2.108,0.296l-2.7,3.915L598.392,1068.906z"/>
														<path fill="#CC202C" d="M600.756,1070.056l-1.531-1.478l-1.425,4.539L600.756,1070.056z"/>
													</g>
												</g>
												<g transform="rotate(72,0,0)">
													<g id="Arm_37_" transform="translate(0,-0.324925)">
														<path fill="#CC202C" d="M599.523,1067.739l0.37,2.093l3.818-2.833L599.523,1067.739z"/>
														<path fill="#CC202C" d="M600.756,1070.056l-1.531-1.478l4.485-1.58L600.756,1070.056z"/>
													</g>
												</g>
												<g transform="rotate(-72,0,0)">
													<g id="Arm_38_" transform="translate(0,-0.324925)">
														<path fill="#CC202C" d="M599.157,1070.339l0.932-1.91l-4.757,0.047L599.157,1070.339z"/>
														<path fill="#CC202C" d="M599.523,1067.739l0.37,2.093l-4.56-1.356L599.523,1067.739z"/>
													</g>
												</g>
												<g transform="translate(900,480) scale(35)">
													<g id="Arm_39_" transform="translate(0,-0.324925)">
														<path fill="#CC202C" d="M599.157,1070.339l0.932-1.91l2.889,3.777L599.157,1070.339z"/>
														<path fill="#CC202C" d="M600.982,1068.449l-1.879,0.998l3.875,2.759L600.982,1068.449z"/>
													</g>
												</g>
											</g>
										</g>
									</g>
								</g>
							</g>
						</g>
					</g>
				</g>
			</g>
		</g>
	</g>
</g>
</svg>
