<?xml version="1.0" encoding="utf-8"?>
<!-- Generator: Adobe Illustrator 18.1.0, SVG Export Plug-In . SVG Version: 6.00 Build 0)  -->
<!DOCTYPE svg PUBLIC "-//W3C//DTD SVG 1.1//EN" "http://www.w3.org/Graphics/SVG/1.1/DTD/svg11.dtd">
<svg version="1.1" id="letter-grid" xmlns="http://www.w3.org/2000/svg" xmlns:xlink="http://www.w3.org/1999/xlink" x="0px"
	 y="0px" viewBox="0 0 2832 700" enable-background="new 0 0 2832 700" xml:space="preserve">
<g>
	<g>
		<path fill="#ECEDED" d="M884.2,433.8c0.1-0.5,0.5-1,1.2-1h1.1c0.5,0,1,0.3,1.2,0.7l15,32.3c0.1,0,0.1,0,0.2,0l15-32.3
			c0.2-0.4,0.5-0.7,1.2-0.7h1.1c0.8,0,1.2,0.5,1.2,1l8.1,45.9c0.2,1-0.3,1.6-1.2,1.6h-6.2c-0.6,0-1.2-0.5-1.3-1l-4-25.9
			c-0.1,0-0.2,0-0.2,0l-12,26.9c-0.1,0.4-0.5,0.8-1.2,0.8h-1.2c-0.6,0-1-0.3-1.2-0.8l-12.1-26.9c0,0-0.1,0-0.2,0l-4,25.9
			c-0.1,0.5-0.6,1-1.2,1h-6.2c-0.9,0-1.4-0.6-1.3-1.6L884.2,433.8z"/>
	</g>
	<g>
		<path fill="#ECEDED" d="M997.8,434.8c0-0.7,0.5-1.3,1.3-1.3h6.3c0.7,0,1.3,0.6,1.3,1.3v38.3h17.4c0.8,0,1.3,0.6,1.3,1.3v5.6
			c0,0.7-0.5,1.3-1.3,1.3h-25c-0.8,0-1.3-0.6-1.3-1.3V434.8z"/>
	</g>
	<g>
		<path fill="#ECEDED" d="M1095.8,434.8c0-0.7,0.5-1.3,1.2-1.3h16.2c13.2,0,24,10.7,24,23.9c0,13.3-10.8,24-24,24h-16.2
			c-0.7,0-1.2-0.6-1.2-1.3V434.8z M1112.4,473c8.9,0,15.4-6.7,15.4-15.7c0-8.9-6.5-15.6-15.4-15.6h-7.8V473H1112.4z"/>
	</g>
	<g>
		<path fill="#ECEDED" d="M1204.4,434.8c0-0.7,0.5-1.3,1.3-1.3h19.5c8.2,0,14.9,6.6,14.9,14.7c0,6.3-4.2,11.4-10.1,13.8l9.4,17.4
			c0.5,0.9,0,2-1.2,2h-7.2c-0.6,0-1-0.3-1.1-0.6l-9.1-18.1h-7.6V480c0,0.7-0.6,1.3-1.3,1.3h-6.3c-0.8,0-1.3-0.6-1.3-1.3V434.8z
			 M1224.5,455.3c3.6,0,6.8-3.1,6.8-7c0-3.6-3.1-6.6-6.8-6.6h-11.1v13.6H1224.5z"/>
	</g>
	<g>
		<path fill="#ECEDED" d="M1312.9,434.8c0-0.7,0.5-1.3,1.3-1.3h16.1c8.4,0,15.3,6.8,15.3,15.1c0,8.5-6.9,15.4-15.2,15.4h-8.5V480
			c0,0.7-0.6,1.3-1.3,1.3h-6.3c-0.8,0-1.3-0.6-1.3-1.3V434.8z M1329.7,455.6c3.8,0,7-3.1,7-7.1c0-3.8-3.2-6.6-7-6.6h-7.9v13.7
			H1329.7z"/>
	</g>
	<g>
		<path fill="#ECEDED" d="M1416.4,434.8c0-0.7,0.5-1.3,1.3-1.3h19.5c8.2,0,14.9,6.6,14.9,14.7c0,6.3-4.2,11.4-10.1,13.8l9.4,17.4
			c0.5,0.9,0,2-1.2,2h-7.2c-0.6,0-1-0.3-1.1-0.6l-9.1-18.1h-7.6V480c0,0.7-0.6,1.3-1.3,1.3h-6.3c-0.8,0-1.3-0.6-1.3-1.3V434.8z
			 M1436.5,455.3c3.6,0,6.8-3.1,6.8-7c0-3.6-3.1-6.6-6.8-6.6h-11.1v13.6H1436.5z"/>
	</g>
	<g>
		<path fill="#ECEDED" d="M1534.3,434.8c0-0.7,0.6-1.3,1.3-1.3h6.4c0.7,0,1.3,0.6,1.3,1.3V480c0,0.7-0.6,1.3-1.3,1.3h-6.4
			c-0.7,0-1.3-0.6-1.3-1.3V434.8z"/>
	</g>
	<g>
		<path fill="#ECEDED" d="M1624.6,434c0-0.7,0.6-1.2,1.3-1.2h1.7l28.4,30.2h0.1v-28.2c0-0.7,0.5-1.3,1.3-1.3h6.3
			c0.7,0,1.3,0.6,1.3,1.3v46c0,0.7-0.6,1.2-1.3,1.2h-1.6l-28.6-31.4h-0.1V480c0,0.7-0.5,1.3-1.3,1.3h-6.2c-0.7,0-1.3-0.6-1.3-1.3
			V434z"/>
	</g>
	<g>
		<path fill="#ECEDED" d="M1746.3,441.7h-10.5c-0.8,0-1.3-0.6-1.3-1.3v-5.6c0-0.7,0.5-1.3,1.3-1.3h29.9c0.8,0,1.3,0.6,1.3,1.3v5.6
			c0,0.7-0.5,1.3-1.3,1.3h-10.5V480c0,0.7-0.6,1.3-1.3,1.3h-6.4c-0.7,0-1.3-0.6-1.3-1.3V441.7z"/>
	</g>
	<g>
		<path fill="#ECEDED" d="M1840.7,435.1c0-0.9,0.7-1.6,1.6-1.6h6c0.9,0,1.6,0.8,1.6,1.6v18.5l17.2-19.4c0.3-0.3,0.7-0.7,1.3-0.7h6.8
			c1.3,0,2,1.4,1.1,2.5l-17.8,20.1l19.1,22.9c0.7,0.9,0.1,2.4-1.2,2.4h-7.4c-0.7,0-1.1-0.3-1.2-0.5l-17.8-22v20.8
			c0,0.9-0.8,1.6-1.6,1.6h-6c-1,0-1.6-0.8-1.6-1.6V435.1z"/>
	</g>
	<g>
		<path fill="#ECEDED" d="M1958.4,434.8c0-0.7,0.6-1.3,1.3-1.3h6.4c0.7,0,1.3,0.6,1.3,1.3V480c0,0.7-0.6,1.3-1.3,1.3h-6.4
			c-0.7,0-1.3-0.6-1.3-1.3V434.8z"/>
	</g>
	<g>
		<path fill="#ECEDED" d="M2054.9,434.8c0-0.7,0.5-1.3,1.3-1.3h27.8c0.8,0,1.3,0.6,1.3,1.3v5.6c0,0.7-0.5,1.3-1.3,1.3h-20.2v11.2
			h16.9c0.7,0,1.3,0.6,1.3,1.3v5.7c0,0.8-0.6,1.3-1.3,1.3h-16.9v12h20.2c0.8,0,1.3,0.6,1.3,1.3v5.6c0,0.7-0.5,1.3-1.3,1.3h-27.8
			c-0.8,0-1.3-0.6-1.3-1.3V434.8z"/>
	</g>
	<g>
		<path fill="#ECEDED" d="M2150.2,435.3c-0.4-0.9,0.1-1.8,1.2-1.8h7c0.6,0,1,0.4,1.2,0.8l13.1,29.4h0.5l13.1-29.4
			c0.1-0.3,0.5-0.8,1.2-0.8h7c1,0,1.6,0.9,1.2,1.8l-21.2,46c-0.2,0.4-0.5,0.8-1.2,0.8h-0.7c-0.6,0-1-0.3-1.2-0.8L2150.2,435.3z"/>
	</g>
	<g>
		<path fill="#ECEDED" d="M2264.8,434.8c0-0.7,0.5-1.3,1.3-1.3h16.1c8.4,0,15.3,6.8,15.3,15.1c0,8.5-6.9,15.4-15.2,15.4h-8.5V480
			c0,0.7-0.6,1.3-1.3,1.3h-6.3c-0.8,0-1.3-0.6-1.3-1.3V434.8z M2281.6,455.6c3.8,0,7-3.1,7-7.1c0-3.8-3.2-6.6-7-6.6h-7.9v13.7
			H2281.6z"/>
	</g>
	<g>
		<path fill="#ECEDED" d="M2362.2,435.3c-0.4-0.9,0.1-1.8,1.2-1.8h7c0.6,0,1,0.4,1.2,0.8l13.1,29.4h0.5l13.1-29.4
			c0.1-0.3,0.5-0.8,1.2-0.8h7c1,0,1.6,0.9,1.2,1.8l-21.2,46c-0.2,0.4-0.5,0.8-1.2,0.8h-0.7c-0.6,0-1-0.3-1.2-0.8L2362.2,435.3z"/>
	</g>
	<g>
		<path fill="#ECEDED" d="M898.3,564.6l-15.6-22.8c-0.5-0.9,0-2,1.1-2h7c0.5,0,0.9,0.3,1.1,0.6l10.9,15.7l10.9-15.7
			c0.2-0.3,0.5-0.6,1.1-0.6h7c1.1,0,1.6,1.1,1.1,2l-15.8,22.8v21.8c0,0.7-0.6,1.3-1.3,1.3h-6.3c-0.8,0-1.3-0.6-1.3-1.3V564.6z"/>
	</g>
	<g>
		<path fill="#ECEDED" d="M986.2,585.9l21.3-46c0.2-0.4,0.5-0.8,1.2-0.8h0.7c0.7,0,1,0.3,1.2,0.8l21.1,46c0.4,0.9-0.1,1.8-1.2,1.8
			h-5.9c-1,0-1.5-0.4-2-1.4l-3.3-7.4h-20.4l-3.3,7.4c-0.3,0.7-0.9,1.4-2,1.4h-5.9C986.3,587.6,985.8,586.7,986.2,585.9z
			 M1015.7,571.3l-6.8-15h-0.2l-6.7,15H1015.7z"/>
	</g>
	<g>
		<path fill="#ECEDED" d="M1094.8,541.1c0-0.7,0.6-1.3,1.3-1.3h6.4c0.8,0,1.3,0.6,1.3,1.3v18.1h22.3v-18.1c0-0.7,0.5-1.3,1.3-1.3
			h6.3c0.7,0,1.3,0.6,1.3,1.3v45.2c0,0.7-0.6,1.3-1.3,1.3h-6.3c-0.8,0-1.3-0.6-1.3-1.3v-18.9h-22.3v18.9c0,0.7-0.5,1.3-1.3,1.3h-6.4
			c-0.7,0-1.3-0.6-1.3-1.3V541.1z"/>
	</g>
	<g>
		<path fill="#ECEDED" d="M1216.4,548H1206c-0.8,0-1.3-0.6-1.3-1.3v-5.6c0-0.7,0.5-1.3,1.3-1.3h29.9c0.8,0,1.3,0.6,1.3,1.3v5.6
			c0,0.7-0.5,1.3-1.3,1.3h-10.5v38.3c0,0.7-0.6,1.3-1.3,1.3h-6.4c-0.7,0-1.3-0.6-1.3-1.3V548z"/>
	</g>
	<g>
		<path fill="#ECEDED" d="M1308.3,540.1c0.1-0.5,0.5-1,1.2-1h1.1c0.5,0,1,0.3,1.2,0.7l15,32.3c0.1,0,0.1,0,0.2,0l15-32.3
			c0.2-0.4,0.5-0.7,1.2-0.7h1.1c0.8,0,1.2,0.5,1.2,1l8.1,45.9c0.2,1-0.3,1.6-1.2,1.6h-6.2c-0.6,0-1.2-0.5-1.3-1l-4-25.9
			c-0.1,0-0.2,0-0.2,0l-12,26.9c-0.1,0.4-0.5,0.8-1.2,0.8h-1.2c-0.6,0-1-0.3-1.2-0.8l-12.1-26.9c0,0-0.1,0-0.2,0l-4,25.9
			c-0.1,0.5-0.6,1-1.2,1h-6.2c-0.9,0-1.4-0.6-1.3-1.6L1308.3,540.1z"/>
	</g>
	<g>
		<path fill="#ECEDED" d="M1421.9,541.1c0-0.7,0.5-1.3,1.3-1.3h6.3c0.7,0,1.3,0.6,1.3,1.3v38.3h17.4c0.8,0,1.3,0.6,1.3,1.3v5.6
			c0,0.7-0.5,1.3-1.3,1.3h-25c-0.8,0-1.3-0.6-1.3-1.3V541.1z"/>
	</g>
	<g>
		<path fill="#ECEDED" d="M1525,541.1c0-0.7,0.5-1.3,1.3-1.3h27.8c0.8,0,1.3,0.6,1.3,1.3v5.6c0,0.7-0.5,1.3-1.3,1.3h-20.2v11.2h16.9
			c0.7,0,1.3,0.6,1.3,1.3v5.7c0,0.8-0.6,1.3-1.3,1.3h-16.9v12h20.2c0.8,0,1.3,0.6,1.3,1.3v5.6c0,0.7-0.5,1.3-1.3,1.3h-27.8
			c-0.8,0-1.3-0.6-1.3-1.3V541.1z"/>
	</g>
	<g>
		<path fill="#ECEDED" d="M1630.8,541.1c0-0.7,0.5-1.3,1.3-1.3h16.1c8.4,0,15.3,6.8,15.3,15.1c0,8.5-6.9,15.4-15.2,15.4h-8.5v16.1
			c0,0.7-0.6,1.3-1.3,1.3h-6.3c-0.8,0-1.3-0.6-1.3-1.3V541.1z M1647.6,561.9c3.8,0,7-3.1,7-7.1c0-3.8-3.2-6.6-7-6.6h-7.9v13.7
			H1647.6z"/>
	</g>
	<g>
		<path fill="#ECEDED" d="M1728.2,585.9l21.3-46c0.2-0.4,0.5-0.8,1.2-0.8h0.7c0.7,0,1,0.3,1.2,0.8l21.1,46c0.4,0.9-0.1,1.8-1.2,1.8
			h-5.9c-1,0-1.5-0.4-2-1.4l-3.3-7.4h-20.4l-3.3,7.4c-0.3,0.7-0.9,1.4-2,1.4h-5.9C1728.3,587.6,1727.8,586.7,1728.2,585.9z
			 M1757.7,571.3l-6.8-15h-0.2l-6.7,15H1757.7z"/>
	</g>
	<g>
		<path fill="#ECEDED" d="M1841.8,580.9l2.5-4.2c0.5-1,1.7-1,2.3-0.5c0.3,0.2,5.9,4.2,10.3,4.2c3.6,0,6.2-2.3,6.2-5.3
			c0-3.5-2.9-5.9-8.7-8.2c-6.4-2.6-12.8-6.7-12.8-14.8c0-6.1,4.5-13.1,15.4-13.1c7,0,12.3,3.6,13.7,4.6c0.7,0.4,0.9,1.6,0.4,2.3
			l-2.6,3.9c-0.5,0.8-1.6,1.4-2.4,0.8c-0.5-0.3-5.7-3.8-9.5-3.8c-3.9,0-6,2.6-6,4.8c0,3.2,2.5,5.4,8.1,7.7
			c6.6,2.7,14.3,6.6,14.3,15.4c0,7-6.1,13.5-15.7,13.5c-8.6,0-13.7-4-15-5.3C1841.5,582.4,1841.2,582,1841.8,580.9z"/>
	</g>
	<g>
		<path fill="#ECEDED" d="M1947.8,580.9l2.5-4.2c0.5-1,1.7-1,2.3-0.5c0.3,0.2,5.9,4.2,10.3,4.2c3.6,0,6.2-2.3,6.2-5.3
			c0-3.5-2.9-5.9-8.7-8.2c-6.4-2.6-12.8-6.7-12.8-14.8c0-6.1,4.5-13.1,15.4-13.1c7,0,12.3,3.6,13.7,4.6c0.7,0.4,0.9,1.6,0.4,2.3
			l-2.6,3.9c-0.5,0.8-1.6,1.4-2.4,0.8c-0.5-0.3-5.7-3.8-9.5-3.8c-3.9,0-6,2.6-6,4.8c0,3.2,2.5,5.4,8.1,7.7
			c6.6,2.7,14.3,6.6,14.3,15.4c0,7-6.1,13.5-15.7,13.5c-8.6,0-13.7-4-15-5.3C1947.5,582.4,1947.2,582,1947.8,580.9z"/>
	</g>
	<g>
		<path fill="#ECEDED" d="M2064.3,541.1c0-0.7,0.6-1.3,1.3-1.3h6.4c0.7,0,1.3,0.6,1.3,1.3v45.2c0,0.7-0.6,1.3-1.3,1.3h-6.4
			c-0.7,0-1.3-0.6-1.3-1.3V541.1z"/>
	</g>
	<g>
		<path fill="#ECEDED" d="M2172.8,539.1c13.7,0,24.6,11,24.6,24.7s-10.9,24.5-24.6,24.5c-13.7,0-24.5-10.9-24.5-24.5
			S2159.2,539.1,2172.8,539.1z M2172.8,579.4c8.6,0,15.7-7,15.7-15.7s-7.1-15.8-15.7-15.8s-15.7,7.2-15.7,15.8
			S2164.2,579.4,2172.8,579.4z"/>
	</g>
	<g>
		<path fill="#ECEDED" d="M2258.6,540.3c0-0.7,0.6-1.2,1.3-1.2h1.7l28.4,30.2h0.1v-28.2c0-0.7,0.5-1.3,1.3-1.3h6.3
			c0.7,0,1.3,0.6,1.3,1.3v46c0,0.7-0.6,1.2-1.3,1.2h-1.6l-28.6-31.4h-0.1v29.4c0,0.7-0.5,1.3-1.3,1.3h-6.2c-0.7,0-1.3-0.6-1.3-1.3
			V540.3z"/>
	</g>
	<g>
		<path fill="#ECEDED" d="M2371,541.1c0-0.7,0.5-1.3,1.3-1.3h27.8c0.8,0,1.3,0.6,1.3,1.3v5.6c0,0.7-0.5,1.3-1.3,1.3h-20.2v11.2h16.9
			c0.7,0,1.3,0.6,1.3,1.3v5.7c0,0.8-0.6,1.3-1.3,1.3h-16.9v12h20.2c0.8,0,1.3,0.6,1.3,1.3v5.6c0,0.7-0.5,1.3-1.3,1.3h-27.8
			c-0.8,0-1.3-0.6-1.3-1.3V541.1z"/>
	</g>
	<g>
		<path fill="#ECEDED" d="M886.7,647.3c0-0.9,0.7-1.6,1.6-1.6h6c0.9,0,1.6,0.8,1.6,1.6v18.5l17.2-19.4c0.3-0.3,0.7-0.7,1.3-0.7h6.8
			c1.3,0,2,1.4,1.1,2.5l-17.8,20.1l19.1,22.9c0.7,0.9,0.1,2.4-1.2,2.4H915c-0.7,0-1.1-0.3-1.2-0.5L896,671v20.8
			c0,0.9-0.8,1.6-1.6,1.6h-6c-1,0-1.6-0.8-1.6-1.6V647.3z"/>
	</g>
	<g>
		<path fill="#ECEDED" d="M1004.3,670.5l-15.6-22.8c-0.5-0.9,0-2,1.1-2h7c0.5,0,0.9,0.3,1.1,0.6l10.9,15.7l10.9-15.7
			c0.2-0.3,0.5-0.6,1.1-0.6h7c1.1,0,1.6,1.1,1.1,2l-15.8,22.8v21.8c0,0.7-0.6,1.3-1.3,1.3h-6.3c-0.8,0-1.3-0.6-1.3-1.3V670.5z"/>
	</g>
	<g>
		<path fill="#ECEDED" d="M1118.9,645c6.9,0,11.9,2.2,16.5,6.4c0.6,0.5,0.6,1.4,0.1,1.9l-4.2,4.3c-0.5,0.5-1.2,0.5-1.7,0
			c-2.9-2.5-6.7-4-10.5-4c-8.7,0-15.2,7.3-15.2,15.9c0,8.5,6.6,15.8,15.3,15.8c4.1,0,7.6-1.6,10.5-3.9c0.5-0.5,1.3-0.4,1.7,0
			l4.2,4.4c0.5,0.5,0.4,1.4-0.1,1.8c-4.6,4.5-10.5,6.6-16.6,6.6c-13.7,0-24.7-10.9-24.7-24.5S1105.2,645,1118.9,645z"/>
	</g>
	<g>
		<path fill="#ECEDED" d="M1220.9,645c13.7,0,24.6,11,24.6,24.7s-10.9,24.5-24.6,24.5c-13.7,0-24.5-10.9-24.5-24.5
			S1207.2,645,1220.9,645z M1220.9,685.3c8.6,0,15.7-7,15.7-15.7s-7.1-15.8-15.7-15.8s-15.7,7.2-15.7,15.8
			S1212.3,685.3,1220.9,685.3z"/>
	</g>
	<g>
		<path fill="#ECEDED" d="M1307.9,647c0-0.7,0.5-1.3,1.2-1.3h16.2c13.2,0,24,10.7,24,23.9c0,13.3-10.8,24-24,24h-16.2
			c-0.7,0-1.2-0.6-1.2-1.3V647z M1324.5,685.2c8.9,0,15.4-6.7,15.4-15.7c0-8.9-6.5-15.6-15.4-15.6h-7.8v31.2H1324.5z"/>
	</g>
	<g>
		<path fill="#ECEDED" d="M1419,647c0-0.7,0.5-1.3,1.3-1.3h27.8c0.8,0,1.3,0.6,1.3,1.3v5.6c0,0.7-0.5,1.3-1.3,1.3h-20.2v11.2h16.9
			c0.7,0,1.3,0.6,1.3,1.3v5.7c0,0.8-0.6,1.3-1.3,1.3h-16.9v12h20.2c0.8,0,1.3,0.6,1.3,1.3v5.6c0,0.7-0.5,1.3-1.3,1.3h-27.8
			c-0.8,0-1.3-0.6-1.3-1.3V647z"/>
	</g>
	<g>
		<path fill="#ECEDED" d="M1522.7,647.3c0-0.9,0.7-1.6,1.6-1.6h6c0.9,0,1.6,0.8,1.6,1.6v18.5l17.2-19.4c0.3-0.3,0.7-0.7,1.3-0.7h6.8
			c1.3,0,2,1.4,1.1,2.5l-17.8,20.1l19.1,22.9c0.7,0.9,0.1,2.4-1.2,2.4h-7.4c-0.7,0-1.1-0.3-1.2-0.5l-17.8-22v20.8
			c0,0.9-0.8,1.6-1.6,1.6h-6c-1,0-1.6-0.8-1.6-1.6V647.3z"/>
	</g>
	<g>
		<path fill="#ECEDED" d="M1631,647c0-0.7,0.5-1.3,1.3-1.3h27.8c0.8,0,1.3,0.6,1.3,1.3v5.6c0,0.7-0.5,1.3-1.3,1.3h-20.2v11.2h16.9
			c0.7,0,1.3,0.6,1.3,1.3v5.7c0,0.8-0.6,1.3-1.3,1.3h-16.9v12h20.2c0.8,0,1.3,0.6,1.3,1.3v5.6c0,0.7-0.5,1.3-1.3,1.3h-27.8
			c-0.8,0-1.3-0.6-1.3-1.3V647z"/>
	</g>
	<g>
		<path fill="#ECEDED" d="M1734.3,647c0-0.7,0.5-1.3,1.3-1.3h19.5c8.2,0,14.9,6.6,14.9,14.7c0,6.3-4.2,11.4-10.1,13.8l9.4,17.4
			c0.5,0.9,0,2-1.2,2h-7.2c-0.6,0-1-0.3-1.1-0.6l-9.1-18.1h-7.6v17.4c0,0.7-0.6,1.3-1.3,1.3h-6.3c-0.8,0-1.3-0.6-1.3-1.3V647z
			 M1754.4,667.5c3.6,0,6.8-3.1,6.8-7c0-3.6-3.1-6.6-6.8-6.6h-11.1v13.6H1754.4z"/>
	</g>
	<g>
		<path fill="#ECEDED" d="M1836.7,646.2c0-0.7,0.6-1.2,1.3-1.2h1.7l28.4,30.2h0.1V647c0-0.7,0.5-1.3,1.3-1.3h6.3
			c0.7,0,1.3,0.6,1.3,1.3v46c0,0.7-0.6,1.2-1.3,1.2h-1.6l-28.6-31.4h-0.1v29.4c0,0.7-0.5,1.3-1.3,1.3h-6.2c-0.7,0-1.3-0.6-1.3-1.3
			V646.2z"/>
	</g>
	<g>
		<path fill="#ECEDED" d="M1951.9,647c0-0.7,0.5-1.3,1.3-1.3h6.3c0.7,0,1.3,0.6,1.3,1.3v38.3h17.4c0.8,0,1.3,0.6,1.3,1.3v5.6
			c0,0.7-0.5,1.3-1.3,1.3h-25c-0.8,0-1.3-0.6-1.3-1.3V647z"/>
	</g>
	<g>
		<path fill="#ECEDED" d="M2054.9,647c0-0.7,0.5-1.3,1.3-1.3h27.8c0.8,0,1.3,0.6,1.3,1.3v5.6c0,0.7-0.5,1.3-1.3,1.3h-20.2v11.2h16.9
			c0.7,0,1.3,0.6,1.3,1.3v5.7c0,0.8-0.6,1.3-1.3,1.3h-16.9v12h20.2c0.8,0,1.3,0.6,1.3,1.3v5.6c0,0.7-0.5,1.3-1.3,1.3h-27.8
			c-0.8,0-1.3-0.6-1.3-1.3V647z"/>
	</g>
	<g>
		<path fill="#ECEDED" d="M2150.2,691.7l21.3-46c0.2-0.4,0.5-0.8,1.2-0.8h0.7c0.7,0,1,0.3,1.2,0.8l21.1,46c0.4,0.9-0.1,1.8-1.2,1.8
			h-5.9c-1,0-1.5-0.4-2-1.4l-3.3-7.4h-20.4l-3.3,7.4c-0.3,0.7-0.9,1.4-2,1.4h-5.9C2150.3,693.5,2149.8,692.6,2150.2,691.7z
			 M2179.7,677.2l-6.8-15h-0.2l-6.7,15H2179.7z"/>
	</g>
	<g>
		<path fill="#ECEDED" d="M2259.8,647c0-0.7,0.5-1.3,1.2-1.3h16.2c13.2,0,24,10.7,24,23.9c0,13.3-10.8,24-24,24h-16.2
			c-0.7,0-1.2-0.6-1.2-1.3V647z M2276.4,685.2c8.9,0,15.4-6.7,15.4-15.7c0-8.9-6.5-15.6-15.4-15.6h-7.8v31.2H2276.4z"/>
	</g>
	<g>
		<path fill="#ECEDED" d="M2387.8,645c6.2,0,12,2.4,16.7,6.4c0.5,0.5,0.6,1.4,0.1,1.9l-4.2,4.4c-0.5,0.5-1.2,0.5-1.8,0
			c-2.9-2.6-6.6-4-10.3-4c-8.5,0-15.3,7.3-15.3,15.9c0,8.5,6.8,15.7,15.4,15.7c3.8,0,6.8-1.2,8.1-1.7v-5.8h-5.5
			c-0.8,0-1.3-0.5-1.3-1.2v-5.4c0-0.8,0.5-1.3,1.3-1.3h13.1c0.7,0,1.2,0.6,1.2,1.3v17.5c0,0.5-0.3,0.9-0.5,1.1c0,0-7,4.4-16.9,4.4
			c-13.6,0-24.5-10.8-24.5-24.5S2374.2,645,2387.8,645z"/>
	</g>
	<g>
		<path fill="#ECEDED" d="M888.8,119.3c0-0.7,0.5-1.3,1.3-1.3h16.1c8.4,0,15.3,6.8,15.3,15.1c0,8.5-6.9,15.4-15.2,15.4h-8.5v16.1
			c0,0.7-0.6,1.3-1.3,1.3h-6.3c-0.8,0-1.3-0.6-1.3-1.3V119.3z M905.6,140.2c3.8,0,7-3.1,7-7.1c0-3.8-3.2-6.6-7-6.6h-7.9v13.7H905.6z
			"/>
	</g>
	<g>
		<path fill="#ECEDED" d="M997.8,119.3c0-0.7,0.5-1.3,1.3-1.3h6.3c0.7,0,1.3,0.6,1.3,1.3v38.3h17.4c0.8,0,1.3,0.6,1.3,1.3v5.6
			c0,0.7-0.5,1.3-1.3,1.3h-25c-0.8,0-1.3-0.6-1.3-1.3V119.3z"/>
	</g>
	<g>
		<path fill="#ECEDED" d="M1114.8,117.3c13.7,0,24.6,11,24.6,24.7s-10.9,24.5-24.6,24.5s-24.5-10.9-24.5-24.5
			S1101.2,117.3,1114.8,117.3z M1114.8,157.7c8.6,0,15.7-7,15.7-15.7s-7.1-15.8-15.7-15.8s-15.7,7.2-15.7,15.8
			S1106.2,157.7,1114.8,157.7z"/>
	</g>
	<g>
		<path fill="#ECEDED" d="M1216.4,126.2H1206c-0.8,0-1.3-0.6-1.3-1.3v-5.6c0-0.7,0.5-1.3,1.3-1.3h29.9c0.8,0,1.3,0.6,1.3,1.3v5.6
			c0,0.7-0.5,1.3-1.3,1.3h-10.5v38.3c0,0.7-0.6,1.3-1.3,1.3h-6.4c-0.7,0-1.3-0.6-1.3-1.3V126.2z"/>
	</g>
	<g>
		<path fill="#ECEDED" d="M1313,119.3c0-0.7,0.5-1.3,1.3-1.3h27.8c0.8,0,1.3,0.6,1.3,1.3v5.6c0,0.7-0.5,1.3-1.3,1.3h-20.2v11.2h16.9
			c0.7,0,1.3,0.6,1.3,1.3v5.7c0,0.8-0.6,1.3-1.3,1.3h-16.9v12h20.2c0.8,0,1.3,0.6,1.3,1.3v5.6c0,0.7-0.5,1.3-1.3,1.3h-27.8
			c-0.8,0-1.3-0.6-1.3-1.3V119.3z"/>
	</g>
	<g>
		<path fill="#ECEDED" d="M1413.9,119.3c0-0.7,0.5-1.3,1.2-1.3h16.2c13.2,0,24,10.7,24,23.9c0,13.3-10.8,24-24,24h-16.2
			c-0.7,0-1.2-0.6-1.2-1.3V119.3z M1430.5,157.5c8.9,0,15.4-6.7,15.4-15.7c0-8.9-6.5-15.6-15.4-15.6h-7.8v31.2H1430.5z"/>
	</g>
	<g>
		<path fill="#ECEDED" d="M1525,119.3c0-0.7,0.5-1.3,1.3-1.3h27.8c0.8,0,1.3,0.6,1.3,1.3v5.6c0,0.7-0.5,1.3-1.3,1.3h-20.2v11.2h16.9
			c0.7,0,1.3,0.6,1.3,1.3v5.7c0,0.8-0.6,1.3-1.3,1.3h-16.9v12h20.2c0.8,0,1.3,0.6,1.3,1.3v5.6c0,0.7-0.5,1.3-1.3,1.3h-27.8
			c-0.8,0-1.3-0.6-1.3-1.3V119.3z"/>
	</g>
	<g>
		<path fill="#ECEDED" d="M1630.8,119.3c0-0.7,0.5-1.3,1.3-1.3h16.1c8.4,0,15.3,6.8,15.3,15.1c0,8.5-6.9,15.4-15.2,15.4h-8.5v16.1
			c0,0.7-0.6,1.3-1.3,1.3h-6.3c-0.8,0-1.3-0.6-1.3-1.3V119.3z M1647.6,140.2c3.8,0,7-3.1,7-7.1c0-3.8-3.2-6.6-7-6.6h-7.9v13.7
			H1647.6z"/>
	</g>
	<g>
		<path fill="#ECEDED" d="M1746.3,119.3c0-0.7,0.6-1.3,1.3-1.3h6.4c0.7,0,1.3,0.6,1.3,1.3v45.2c0,0.7-0.6,1.3-1.3,1.3h-6.4
			c-0.7,0-1.3-0.6-1.3-1.3V119.3z"/>
	</g>
	<g>
		<path fill="#ECEDED" d="M1840.2,163.3l20.4-36.8v-0.3h-17.1c-0.7,0-1.3-0.6-1.3-1.3v-5.7c0-0.7,0.6-1.3,1.3-1.3h28.6
			c0.7,0,1.3,0.6,1.3,1.3v0.9l-20.1,37.2v0.1h17.4c0.8,0,1.3,0.6,1.3,1.3v5.7c0,0.7-0.5,1.3-1.3,1.3h-29.2c-0.7,0-1.3-0.6-1.3-1.3
			V163.3z"/>
	</g>
	<g>
		<path fill="#ECEDED" d="M1946.2,163.3l20.4-36.8v-0.3h-17.1c-0.7,0-1.3-0.6-1.3-1.3v-5.7c0-0.7,0.6-1.3,1.3-1.3h28.6
			c0.7,0,1.3,0.6,1.3,1.3v0.9l-20.1,37.2v0.1h17.4c0.8,0,1.3,0.6,1.3,1.3v5.7c0,0.7-0.5,1.3-1.3,1.3h-29.2c-0.7,0-1.3-0.6-1.3-1.3
			V163.3z"/>
	</g>
	<g>
		<path fill="#ECEDED" d="M2046.2,164.1l21.3-46c0.2-0.4,0.5-0.8,1.2-0.8h0.7c0.7,0,1,0.3,1.2,0.8l21.1,46c0.4,0.9-0.1,1.8-1.2,1.8
			h-5.9c-1,0-1.5-0.4-2-1.4l-3.3-7.4h-20.4l-3.3,7.4c-0.3,0.7-0.9,1.4-2,1.4h-5.9C2046.3,165.9,2045.7,165,2046.2,164.1z
			 M2075.7,149.5l-6.8-15h-0.2l-6.7,15H2075.7z"/>
	</g>
	<g>
		<path fill="#ECEDED" d="M2157.7,159.2l2.5-4.2c0.5-1,1.7-1,2.3-0.5c0.3,0.2,5.9,4.2,10.3,4.2c3.6,0,6.2-2.3,6.2-5.3
			c0-3.5-2.9-5.9-8.7-8.2c-6.4-2.6-12.8-6.7-12.8-14.8c0-6.1,4.5-13.1,15.4-13.1c7,0,12.3,3.6,13.7,4.6c0.7,0.4,0.9,1.6,0.4,2.3
			l-2.6,3.9c-0.5,0.8-1.6,1.4-2.4,0.8c-0.5-0.3-5.7-3.8-9.5-3.8c-3.9,0-6,2.6-6,4.8c0,3.2,2.5,5.4,8.1,7.7
			c6.6,2.7,14.3,6.6,14.3,15.4c0,7-6.1,13.5-15.7,13.5c-8.6,0-13.7-4-15-5.3C2157.4,160.6,2157.1,160.3,2157.7,159.2z"/>
	</g>
	<g>
		<path fill="#ECEDED" d="M2265,119.3c0-0.7,0.5-1.3,1.3-1.3h27.8c0.8,0,1.3,0.6,1.3,1.3v5.6c0,0.7-0.5,1.3-1.3,1.3h-20.2v11.2h16.9
			c0.7,0,1.3,0.6,1.3,1.3v5.7c0,0.8-0.6,1.3-1.3,1.3h-16.9v12h20.2c0.8,0,1.3,0.6,1.3,1.3v5.6c0,0.7-0.5,1.3-1.3,1.3h-27.8
			c-0.8,0-1.3-0.6-1.3-1.3V119.3z"/>
	</g>
	<g>
		<path fill="#ECEDED" d="M2365.8,119.3c0-0.7,0.5-1.3,1.2-1.3h16.2c13.2,0,24,10.7,24,23.9c0,13.3-10.8,24-24,24h-16.2
			c-0.7,0-1.2-0.6-1.2-1.3V119.3z M2382.4,157.5c8.9,0,15.4-6.7,15.4-15.7c0-8.9-6.5-15.6-15.4-15.6h-7.8v31.2H2382.4z"/>
	</g>
	<g>
		<path fill="#ECEDED" d="M891.8,222.6c0-0.7,0.5-1.3,1.3-1.3h6.3c0.7,0,1.3,0.6,1.3,1.3V261h17.4c0.8,0,1.3,0.6,1.3,1.3v5.6
			c0,0.7-0.5,1.3-1.3,1.3h-25c-0.8,0-1.3-0.6-1.3-1.3V222.6z"/>
	</g>
	<g>
		<path fill="#ECEDED" d="M986.2,267.4l21.3-46c0.2-0.4,0.5-0.8,1.2-0.8h0.7c0.7,0,1,0.3,1.2,0.8l21.1,46c0.4,0.9-0.1,1.8-1.2,1.8
			h-5.9c-1,0-1.5-0.4-2-1.4l-3.3-7.4h-20.4l-3.3,7.4c-0.3,0.7-0.9,1.4-2,1.4h-5.9C986.3,269.2,985.8,268.3,986.2,267.4z
			 M1015.7,252.8l-6.8-15h-0.2l-6.7,15H1015.7z"/>
	</g>
	<g>
		<path fill="#ECEDED" d="M1110.3,246.1l-15.6-22.8c-0.5-0.9,0-2,1.1-2h7c0.5,0,0.9,0.3,1.1,0.6l10.9,15.7l10.9-15.7
			c0.2-0.3,0.5-0.6,1.1-0.6h7c1.1,0,1.6,1.1,1.1,2l-15.8,22.8v21.8c0,0.7-0.6,1.3-1.3,1.3h-6.3c-0.8,0-1.3-0.6-1.3-1.3V246.1z"/>
	</g>
	<g>
		<path fill="#ECEDED" d="M1204.7,223c0-0.9,0.7-1.6,1.6-1.6h6c0.9,0,1.6,0.8,1.6,1.6v18.5l17.2-19.4c0.3-0.3,0.7-0.7,1.3-0.7h6.8
			c1.3,0,2,1.4,1.1,2.5l-17.8,20.1l19.1,22.9c0.7,0.9,0.1,2.4-1.2,2.4h-7.4c-0.7,0-1.1-0.3-1.2-0.5l-17.8-22v20.8
			c0,0.9-0.8,1.6-1.6,1.6h-6c-1,0-1.6-0.8-1.6-1.6V223z"/>
	</g>
	<g>
		<path fill="#ECEDED" d="M1313,222.6c0-0.7,0.5-1.3,1.3-1.3h27.8c0.8,0,1.3,0.6,1.3,1.3v5.6c0,0.7-0.5,1.3-1.3,1.3h-20.2v11.2h16.9
			c0.7,0,1.3,0.6,1.3,1.3v5.7c0,0.8-0.6,1.3-1.3,1.3h-16.9v12h20.2c0.8,0,1.3,0.6,1.3,1.3v5.6c0,0.7-0.5,1.3-1.3,1.3h-27.8
			c-0.8,0-1.3-0.6-1.3-1.3V222.6z"/>
	</g>
	<g>
		<path fill="#ECEDED" d="M1419.8,222.6c0-0.7,0.5-1.3,1.3-1.3h27.8c0.8,0,1.3,0.6,1.3,1.3v5.6c0,0.7-0.5,1.3-1.3,1.3h-20.2v12.8
			h16.9c0.7,0,1.3,0.6,1.3,1.3v5.6c0,0.7-0.6,1.3-1.3,1.3h-16.9v17.3c0,0.7-0.6,1.3-1.3,1.3h-6.3c-0.8,0-1.3-0.6-1.3-1.3V222.6z"/>
	</g>
	<g>
		<path fill="#ECEDED" d="M1534.3,222.6c0-0.7,0.6-1.3,1.3-1.3h6.4c0.7,0,1.3,0.6,1.3,1.3v45.2c0,0.7-0.6,1.3-1.3,1.3h-6.4
			c-0.7,0-1.3-0.6-1.3-1.3V222.6z"/>
	</g>
	<g>
		<path fill="#ECEDED" d="M1624.6,221.9c0-0.7,0.6-1.2,1.3-1.2h1.7l28.4,30.2h0.1v-28.2c0-0.7,0.5-1.3,1.3-1.3h6.3
			c0.7,0,1.3,0.6,1.3,1.3v46c0,0.7-0.6,1.2-1.3,1.2h-1.6l-28.6-31.4h-0.1v29.4c0,0.7-0.5,1.3-1.3,1.3h-6.2c-0.7,0-1.3-0.6-1.3-1.3
			V221.9z"/>
	</g>
	<g>
		<path fill="#ECEDED" d="M1731.8,222.6c0-0.7,0.5-1.3,1.2-1.3h16.2c13.2,0,24,10.7,24,23.9c0,13.3-10.8,24-24,24h-16.2
			c-0.7,0-1.2-0.6-1.2-1.3V222.6z M1748.4,260.8c8.9,0,15.4-6.7,15.4-15.7c0-8.9-6.5-15.6-15.4-15.6h-7.8v31.2H1748.4z"/>
	</g>
	<g>
		<path fill="#ECEDED" d="M1838.3,221.7c0.1-0.5,0.5-1,1.2-1h1.1c0.5,0,1,0.3,1.2,0.7l15,32.3c0.1,0,0.1,0,0.2,0l15-32.3
			c0.2-0.4,0.5-0.7,1.2-0.7h1.1c0.8,0,1.2,0.5,1.2,1l8.1,45.9c0.2,1-0.3,1.6-1.2,1.6h-6.2c-0.6,0-1.2-0.5-1.3-1l-4-25.9
			c-0.1,0-0.2,0-0.2,0l-12,26.9c-0.1,0.4-0.5,0.8-1.2,0.8h-1.2c-0.6,0-1-0.3-1.2-0.8l-12.1-26.9c0,0-0.1,0-0.2,0l-4,25.9
			c-0.1,0.5-0.6,1-1.2,1h-6.2c-0.9,0-1.4-0.6-1.3-1.6L1838.3,221.7z"/>
	</g>
	<g>
		<path fill="#ECEDED" d="M1949,222.6c0-0.7,0.5-1.3,1.3-1.3h27.8c0.8,0,1.3,0.6,1.3,1.3v5.6c0,0.7-0.5,1.3-1.3,1.3h-20.2v11.2h16.9
			c0.7,0,1.3,0.6,1.3,1.3v5.7c0,0.8-0.6,1.3-1.3,1.3h-16.9v12h20.2c0.8,0,1.3,0.6,1.3,1.3v5.6c0,0.7-0.5,1.3-1.3,1.3h-27.8
			c-0.8,0-1.3-0.6-1.3-1.3V222.6z"/>
	</g>
	<g>
		<path fill="#ECEDED" d="M2054.2,263.2l3.6-3.6c0.8-0.7,1.4-0.5,2.1,0.1c0.9,1,2.3,2.2,4.5,2.2c2.7,0,5.5-2.2,5.5-6.9v-32.3
			c0-0.7,0.5-1.3,1.3-1.3h6.4c0.8,0,1.3,0.6,1.3,1.3v32.3c0,9.5-6.4,15-14.4,15c-5.9,0-9.2-3.6-10.4-5
			C2053.7,264.3,2053.8,263.6,2054.2,263.2z"/>
	</g>
	<g>
		<path fill="#ECEDED" d="M2161.8,222.6c0-0.7,0.5-1.3,1.3-1.3h6.3c0.7,0,1.3,0.6,1.3,1.3V261h17.4c0.8,0,1.3,0.6,1.3,1.3v5.6
			c0,0.7-0.5,1.3-1.3,1.3h-25c-0.8,0-1.3-0.6-1.3-1.3V222.6z"/>
	</g>
	<g>
		<path fill="#ECEDED" d="M2265,222.6c0-0.7,0.5-1.3,1.3-1.3h27.8c0.8,0,1.3,0.6,1.3,1.3v5.6c0,0.7-0.5,1.3-1.3,1.3h-20.2v11.2h16.9
			c0.7,0,1.3,0.6,1.3,1.3v5.7c0,0.8-0.6,1.3-1.3,1.3h-16.9v12h20.2c0.8,0,1.3,0.6,1.3,1.3v5.6c0,0.7-0.5,1.3-1.3,1.3h-27.8
			c-0.8,0-1.3-0.6-1.3-1.3V222.6z"/>
	</g>
	<g>
		<path fill="#ECEDED" d="M2368.3,222.6c0-0.7,0.5-1.3,1.3-1.3h19.5c8.2,0,14.9,6.6,14.9,14.7c0,6.3-4.2,11.4-10.1,13.8l9.4,17.4
			c0.5,0.9,0,2-1.2,2h-7.2c-0.6,0-1-0.3-1.1-0.6l-9.1-18.1h-7.6v17.4c0,0.7-0.6,1.3-1.3,1.3h-6.3c-0.8,0-1.3-0.6-1.3-1.3V222.6z
			 M2388.4,243.1c3.6,0,6.8-3.1,6.8-7c0-3.6-3.1-6.6-6.8-6.6h-11.1v13.6H2388.4z"/>
	</g>
	<g>
		<path fill="#ECEDED" d="M906.9,326.5c6.9,0,11.9,2.2,16.5,6.4c0.6,0.5,0.6,1.4,0.1,1.9l-4.2,4.3c-0.5,0.5-1.2,0.5-1.7,0
			c-2.9-2.5-6.7-4-10.5-4c-8.7,0-15.2,7.3-15.2,15.9c0,8.5,6.6,15.8,15.3,15.8c4.1,0,7.6-1.6,10.5-3.9c0.5-0.5,1.3-0.4,1.7,0
			l4.2,4.4c0.5,0.5,0.4,1.4-0.1,1.8c-4.6,4.5-10.5,6.6-16.6,6.6c-13.7,0-24.7-10.9-24.7-24.5S893.2,326.5,906.9,326.5z"/>
	</g>
	<g>
		<path fill="#ECEDED" d="M994.8,328.5c0-0.7,0.5-1.3,1.3-1.3h16.1c8.4,0,15.3,6.8,15.3,15.1c0,8.5-6.9,15.4-15.2,15.4h-8.5v16.1
			c0,0.7-0.6,1.3-1.3,1.3h-6.3c-0.8,0-1.3-0.6-1.3-1.3V328.5z M1011.6,349.3c3.8,0,7-3.1,7-7.1c0-3.8-3.2-6.6-7-6.6h-7.9v13.7
			H1011.6z"/>
	</g>
	<g>
		<path fill="#ECEDED" d="M1118.9,326.5c6.9,0,11.9,2.2,16.5,6.4c0.6,0.5,0.6,1.4,0.1,1.9l-4.2,4.3c-0.5,0.5-1.2,0.5-1.7,0
			c-2.9-2.5-6.7-4-10.5-4c-8.7,0-15.2,7.3-15.2,15.9c0,8.5,6.6,15.8,15.3,15.8c4.1,0,7.6-1.6,10.5-3.9c0.5-0.5,1.3-0.4,1.7,0
			l4.2,4.4c0.5,0.5,0.4,1.4-0.1,1.8c-4.6,4.5-10.5,6.6-16.6,6.6c-13.7,0-24.7-10.9-24.7-24.5S1105.2,326.5,1118.9,326.5z"/>
	</g>
	<g>
		<path fill="#ECEDED" d="M1201.9,328.5c0-0.7,0.6-1.3,1.3-1.3h6.5c0.8,0,1.3,0.6,1.3,1.3v28c0,5.8,4,10.4,9.9,10.4
			c5.9,0,10-4.6,10-10.3v-28c0-0.7,0.5-1.3,1.3-1.3h6.5c0.7,0,1.3,0.6,1.3,1.3v28.4c0,10.4-8.3,18.8-19.1,18.8
			c-10.7,0-19-8.4-19-18.8V328.5z"/>
	</g>
	<g>
		<path fill="#ECEDED" d="M1312,328.5c0-0.7,0.5-1.3,1.3-1.3h15.7c8.1,0,14.4,5.5,14.4,12.6c0,5.3-4.3,9.4-7.5,10.9
			c3.6,1.2,8.9,4.9,8.9,11.1c0,7.7-6.6,13.2-14.9,13.2h-16.5c-0.8,0-1.3-0.6-1.3-1.3V328.5z M1328.2,347.3c3.5,0,5.9-2.7,5.9-6.2
			c0-3.4-2.4-5.8-5.9-5.8h-7.3v12H1328.2z M1329.1,367c3.4,0,6.2-2.7,6.2-6.2c0-3.4-3.4-5.9-7-5.9h-7.4V367H1329.1z"/>
	</g>
	<g>
		<path fill="#ECEDED" d="M1428.4,352l-15.6-22.8c-0.5-0.9,0-2,1.1-2h7c0.5,0,0.9,0.3,1.1,0.6l10.9,15.7l10.9-15.7
			c0.2-0.3,0.5-0.6,1.1-0.6h7c1.1,0,1.6,1.1,1.1,2l-15.8,22.8v21.8c0,0.7-0.6,1.3-1.3,1.3h-6.3c-0.8,0-1.3-0.6-1.3-1.3V352z"/>
	</g>
	<g>
		<path fill="#ECEDED" d="M1534.3,335.4h-10.5c-0.8,0-1.3-0.6-1.3-1.3v-5.6c0-0.7,0.5-1.3,1.3-1.3h29.9c0.8,0,1.3,0.6,1.3,1.3v5.6
			c0,0.7-0.5,1.3-1.3,1.3h-10.5v38.3c0,0.7-0.6,1.3-1.3,1.3h-6.4c-0.7,0-1.3-0.6-1.3-1.3V335.4z"/>
	</g>
	<g>
		<path fill="#ECEDED" d="M1631,328.5c0-0.7,0.5-1.3,1.3-1.3h27.8c0.8,0,1.3,0.6,1.3,1.3v5.6c0,0.7-0.5,1.3-1.3,1.3h-20.2v11.2h16.9
			c0.7,0,1.3,0.6,1.3,1.3v5.7c0,0.8-0.6,1.3-1.3,1.3h-16.9v12h20.2c0.8,0,1.3,0.6,1.3,1.3v5.6c0,0.7-0.5,1.3-1.3,1.3h-27.8
			c-0.8,0-1.3-0.6-1.3-1.3V328.5z"/>
	</g>
	<g>
		<path fill="#ECEDED" d="M1737,328.5c0-0.7,0.5-1.3,1.3-1.3h27.8c0.8,0,1.3,0.6,1.3,1.3v5.6c0,0.7-0.5,1.3-1.3,1.3h-20.2v11.2h16.9
			c0.7,0,1.3,0.6,1.3,1.3v5.7c0,0.8-0.6,1.3-1.3,1.3h-16.9v12h20.2c0.8,0,1.3,0.6,1.3,1.3v5.6c0,0.7-0.5,1.3-1.3,1.3h-27.8
			c-0.8,0-1.3-0.6-1.3-1.3V328.5z"/>
	</g>
	<g>
		<path fill="#ECEDED" d="M1834.2,373.3l21.3-46c0.2-0.4,0.5-0.8,1.2-0.8h0.7c0.7,0,1,0.3,1.2,0.8l21.1,46c0.4,0.9-0.1,1.8-1.2,1.8
			h-5.9c-1,0-1.5-0.4-2-1.4l-3.3-7.4h-20.4l-3.3,7.4c-0.3,0.7-0.9,1.4-2,1.4h-5.9C1834.4,375,1833.8,374.2,1834.2,373.3z
			 M1863.8,358.7l-6.8-15h-0.2l-6.7,15H1863.8z"/>
	</g>
	<g>
		<path fill="#ECEDED" d="M1940.2,329c-0.4-0.9,0.1-1.8,1.2-1.8h7c0.6,0,1,0.4,1.2,0.8l13.1,29.4h0.5l13.1-29.4
			c0.1-0.3,0.5-0.8,1.2-0.8h7c1,0,1.6,0.9,1.2,1.8l-21.2,46c-0.2,0.4-0.5,0.8-1.2,0.8h-0.7c-0.6,0-1-0.3-1.2-0.8L1940.2,329z"/>
	</g>
	<g>
		<path fill="#ECEDED" d="M2057.8,328.5c0-0.7,0.5-1.3,1.3-1.3h6.3c0.7,0,1.3,0.6,1.3,1.3v38.3h17.4c0.8,0,1.3,0.6,1.3,1.3v5.6
			c0,0.7-0.5,1.3-1.3,1.3h-25c-0.8,0-1.3-0.6-1.3-1.3V328.5z"/>
	</g>
	<g>
		<path fill="#ECEDED" d="M2168.3,328.5c0-0.7,0.6-1.3,1.3-1.3h6.4c0.7,0,1.3,0.6,1.3,1.3v45.2c0,0.7-0.6,1.3-1.3,1.3h-6.4
			c-0.7,0-1.3-0.6-1.3-1.3V328.5z"/>
	</g>
	<g>
		<path fill="#ECEDED" d="M2265,328.5c0-0.7,0.5-1.3,1.3-1.3h27.8c0.8,0,1.3,0.6,1.3,1.3v5.6c0,0.7-0.5,1.3-1.3,1.3h-20.2v11.2h16.9
			c0.7,0,1.3,0.6,1.3,1.3v5.7c0,0.8-0.6,1.3-1.3,1.3h-16.9v12h20.2c0.8,0,1.3,0.6,1.3,1.3v5.6c0,0.7-0.5,1.3-1.3,1.3h-27.8
			c-0.8,0-1.3-0.6-1.3-1.3V328.5z"/>
	</g>
	<g>
		<path fill="#ECEDED" d="M2380.3,328.5c0-0.7,0.6-1.3,1.3-1.3h6.4c0.7,0,1.3,0.6,1.3,1.3v45.2c0,0.7-0.6,1.3-1.3,1.3h-6.4
			c-0.7,0-1.3-0.6-1.3-1.3V328.5z"/>
	</g>
	<g>
		<path fill="#ECEDED" d="M8.3,434.8c0-0.7,0.5-1.3,1.3-1.3h19.5c8.2,0,14.9,6.6,14.9,14.7c0,6.3-4.2,11.4-10.1,13.8l9.4,17.4
			c0.5,0.9,0,2-1.2,2h-7.2c-0.6,0-1-0.3-1.1-0.6l-9.1-18.1h-7.6V480c0,0.7-0.6,1.3-1.3,1.3H9.6c-0.8,0-1.3-0.6-1.3-1.3V434.8z
			 M28.4,455.3c3.6,0,6.8-3.1,6.8-7c0-3.6-3.1-6.6-6.8-6.6H17.2v13.6H28.4z"/>
	</g>
	<g>
		<path fill="#ECEDED" d="M111.8,434.8c0-0.7,0.5-1.3,1.2-1.3h16.2c13.2,0,24,10.7,24,23.9c0,13.3-10.8,24-24,24h-16.2
			c-0.7,0-1.2-0.6-1.2-1.3V434.8z M128.4,473c8.9,0,15.4-6.7,15.4-15.7c0-8.9-6.5-15.6-15.4-15.6h-7.8V473H128.4z"/>
	</g>
	<g>
		<path fill="#ECEDED" d="M232.4,441.7H222c-0.8,0-1.3-0.6-1.3-1.3v-5.6c0-0.7,0.5-1.3,1.3-1.3h29.9c0.8,0,1.3,0.6,1.3,1.3v5.6
			c0,0.7-0.5,1.3-1.3,1.3h-10.5V480c0,0.7-0.6,1.3-1.3,1.3h-6.4c-0.7,0-1.3-0.6-1.3-1.3V441.7z"/>
	</g>
	<g>
		<path fill="#ECEDED" d="M329,434.8c0-0.7,0.5-1.3,1.3-1.3h27.8c0.8,0,1.3,0.6,1.3,1.3v5.6c0,0.7-0.5,1.3-1.3,1.3h-20.2v11.2h16.9
			c0.7,0,1.3,0.6,1.3,1.3v5.7c0,0.8-0.6,1.3-1.3,1.3h-16.9v12h20.2c0.8,0,1.3,0.6,1.3,1.3v5.6c0,0.7-0.5,1.3-1.3,1.3h-27.8
			c-0.8,0-1.3-0.6-1.3-1.3V434.8z"/>
	</g>
	<g>
		<path fill="#ECEDED" d="M24.8,539.1c13.7,0,24.6,11,24.6,24.7s-10.9,24.5-24.6,24.5S0.3,577.4,0.3,563.8S11.2,539.1,24.8,539.1z
			 M24.8,579.4c8.6,0,15.7-7,15.7-15.7S33.4,548,24.8,548s-15.7,7.2-15.7,15.8S16.2,579.4,24.8,579.4z"/>
	</g>
	<g>
		<path fill="#ECEDED" d="M110.6,540.3c0-0.7,0.6-1.2,1.3-1.2h1.7l28.4,30.2h0.1v-28.2c0-0.7,0.5-1.3,1.3-1.3h6.3
			c0.7,0,1.3,0.6,1.3,1.3v46c0,0.7-0.6,1.2-1.3,1.2h-1.6l-28.6-31.4h-0.1v29.4c0,0.7-0.5,1.3-1.3,1.3h-6.2c-0.7,0-1.3-0.6-1.3-1.3
			V540.3z"/>
	</g>
	<g>
		<path fill="#ECEDED" d="M239.9,539.1c6.2,0,12,2.4,16.7,6.4c0.5,0.5,0.6,1.4,0.1,1.9l-4.2,4.4c-0.5,0.5-1.2,0.5-1.8,0
			c-2.9-2.6-6.6-4-10.3-4c-8.5,0-15.3,7.3-15.3,15.9c0,8.5,6.8,15.7,15.4,15.7c3.8,0,6.8-1.2,8.1-1.7v-5.8h-5.5
			c-0.8,0-1.3-0.5-1.3-1.2v-5.4c0-0.8,0.5-1.3,1.3-1.3h13.1c0.7,0,1.2,0.6,1.2,1.3v17.5c0,0.5-0.3,0.9-0.5,1.1c0,0-7,4.4-16.9,4.4
			c-13.6,0-24.5-10.8-24.5-24.5S226.3,539.1,239.9,539.1z"/>
	</g>
	<g>
		<path fill="#ECEDED" d="M320.2,585.9l21.3-46c0.2-0.4,0.5-0.8,1.2-0.8h0.7c0.7,0,1,0.3,1.2,0.8l21.1,46c0.4,0.9-0.1,1.8-1.2,1.8
			h-5.9c-1,0-1.5-0.4-2-1.4l-3.3-7.4h-20.4l-3.3,7.4c-0.3,0.7-0.9,1.4-2,1.4h-5.9C320.4,587.6,319.8,586.7,320.2,585.9z
			 M349.8,571.3l-6.8-15h-0.2l-6.7,15H349.8z"/>
	</g>
	<g>
		<path fill="#ECEDED" d="M28.9,645c6.9,0,11.9,2.2,16.5,6.4c0.6,0.5,0.6,1.4,0.1,1.9l-4.2,4.3c-0.5,0.5-1.2,0.5-1.7,0
			c-2.9-2.5-6.7-4-10.5-4c-8.7,0-15.2,7.3-15.2,15.9c0,8.5,6.6,15.8,15.3,15.8c4.1,0,7.6-1.6,10.5-3.9c0.5-0.5,1.3-0.4,1.7,0
			l4.2,4.4c0.5,0.5,0.4,1.4-0.1,1.8c-4.6,4.5-10.5,6.6-16.6,6.6c-13.7,0-24.7-10.9-24.7-24.5S15.2,645,28.9,645z"/>
	</g>
	<g>
		<path fill="#ECEDED" d="M117,647c0-0.7,0.5-1.3,1.3-1.3h27.8c0.8,0,1.3,0.6,1.3,1.3v5.6c0,0.7-0.5,1.3-1.3,1.3h-20.2v11.2h16.9
			c0.7,0,1.3,0.6,1.3,1.3v5.7c0,0.8-0.6,1.3-1.3,1.3h-16.9v12h20.2c0.8,0,1.3,0.6,1.3,1.3v5.6c0,0.7-0.5,1.3-1.3,1.3h-27.8
			c-0.8,0-1.3-0.6-1.3-1.3V647z"/>
	</g>
	<g>
		<path fill="#ECEDED" d="M218.3,646c0.1-0.5,0.5-1,1.2-1h1.1c0.5,0,1,0.3,1.2,0.7l15,32.3c0.1,0,0.1,0,0.2,0l15-32.3
			c0.2-0.4,0.5-0.7,1.2-0.7h1.1c0.8,0,1.2,0.5,1.2,1l8.1,45.9c0.2,1-0.3,1.6-1.2,1.6h-6.2c-0.6,0-1.2-0.5-1.3-1l-4-25.9
			c-0.1,0-0.2,0-0.2,0l-12,26.9c-0.1,0.4-0.5,0.8-1.2,0.8h-1.2c-0.6,0-1-0.3-1.2-0.8L223,666.6c0,0-0.1,0-0.2,0l-4,25.9
			c-0.1,0.5-0.6,1-1.2,1h-6.2c-0.9,0-1.4-0.6-1.3-1.6L218.3,646z"/>
	</g>
	<g>
		<path fill="#ECEDED" d="M326.4,647c0-0.7,0.5-1.3,1.3-1.3h19.5c8.2,0,14.9,6.6,14.9,14.7c0,6.3-4.2,11.4-10.1,13.8l9.4,17.4
			c0.5,0.9,0,2-1.2,2H353c-0.6,0-1-0.3-1.1-0.6l-9.1-18.1h-7.6v17.4c0,0.7-0.6,1.3-1.3,1.3h-6.3c-0.8,0-1.3-0.6-1.3-1.3V647z
			 M346.5,667.5c3.6,0,6.8-3.1,6.8-7c0-3.6-3.1-6.6-6.8-6.6h-11.1v13.6H346.5z"/>
	</g>
	<g>
		<path fill="#ECEDED" d="M9.7,159.2l2.5-4.2c0.5-1,1.7-1,2.3-0.5c0.3,0.2,5.9,4.2,10.3,4.2c3.6,0,6.2-2.3,6.2-5.3
			c0-3.5-2.9-5.9-8.7-8.2c-6.4-2.6-12.8-6.7-12.8-14.8c0-6.1,4.5-13.1,15.4-13.1c7,0,12.3,3.6,13.7,4.6c0.7,0.4,0.9,1.6,0.4,2.3
			l-2.6,3.9c-0.5,0.8-1.6,1.4-2.4,0.8c-0.5-0.3-5.7-3.8-9.5-3.8c-3.9,0-6,2.6-6,4.8c0,3.2,2.5,5.4,8.1,7.7
			c6.6,2.7,14.3,6.6,14.3,15.4c0,7-6.1,13.5-15.7,13.5c-8.6,0-13.7-4-15-5.3C9.4,160.6,9.1,160.3,9.7,159.2z"/>
	</g>
	<g>
		<path fill="#ECEDED" d="M119.8,119.3c0-0.7,0.5-1.3,1.3-1.3h6.3c0.7,0,1.3,0.6,1.3,1.3v38.3h17.4c0.8,0,1.3,0.6,1.3,1.3v5.6
			c0,0.7-0.5,1.3-1.3,1.3h-25c-0.8,0-1.3-0.6-1.3-1.3V119.3z"/>
	</g>
	<g>
		<path fill="#ECEDED" d="M223,119.3c0-0.7,0.5-1.3,1.3-1.3h27.8c0.8,0,1.3,0.6,1.3,1.3v5.6c0,0.7-0.5,1.3-1.3,1.3h-20.2v11.2h16.9
			c0.7,0,1.3,0.6,1.3,1.3v5.7c0,0.8-0.6,1.3-1.3,1.3h-16.9v12h20.2c0.8,0,1.3,0.6,1.3,1.3v5.6c0,0.7-0.5,1.3-1.3,1.3h-27.8
			c-0.8,0-1.3-0.6-1.3-1.3V119.3z"/>
	</g>
	<g>
		<path fill="#ECEDED" d="M329,119.3c0-0.7,0.5-1.3,1.3-1.3h27.8c0.8,0,1.3,0.6,1.3,1.3v5.6c0,0.7-0.5,1.3-1.3,1.3h-20.2v11.2h16.9
			c0.7,0,1.3,0.6,1.3,1.3v5.7c0,0.8-0.6,1.3-1.3,1.3h-16.9v12h20.2c0.8,0,1.3,0.6,1.3,1.3v5.6c0,0.7-0.5,1.3-1.3,1.3h-27.8
			c-0.8,0-1.3-0.6-1.3-1.3V119.3z"/>
	</g>
	<g>
		<path fill="#ECEDED" d="M11,222.6c0-0.7,0.5-1.3,1.3-1.3h27.8c0.8,0,1.3,0.6,1.3,1.3v5.6c0,0.7-0.5,1.3-1.3,1.3H19.8v11.2h16.9
			c0.7,0,1.3,0.6,1.3,1.3v5.7c0,0.8-0.6,1.3-1.3,1.3H19.8v12h20.2c0.8,0,1.3,0.6,1.3,1.3v5.6c0,0.7-0.5,1.3-1.3,1.3H12.2
			c-0.8,0-1.3-0.6-1.3-1.3V222.6z"/>
	</g>
	<g>
		<path fill="#ECEDED" d="M133.8,220.7c6.2,0,12,2.4,16.7,6.4c0.5,0.5,0.6,1.4,0.1,1.9l-4.2,4.4c-0.5,0.5-1.2,0.5-1.8,0
			c-2.9-2.6-6.6-4-10.3-4c-8.5,0-15.3,7.3-15.3,15.9c0,8.5,6.8,15.7,15.4,15.7c3.8,0,6.8-1.2,8.1-1.7v-5.8H137
			c-0.8,0-1.3-0.5-1.3-1.2v-5.4c0-0.8,0.5-1.3,1.3-1.3h13.1c0.7,0,1.2,0.6,1.2,1.3v17.5c0,0.5-0.3,0.9-0.5,1.1c0,0-7,4.4-16.9,4.4
			c-13.6,0-24.5-10.8-24.5-24.5S120.2,220.7,133.8,220.7z"/>
	</g>
	<g>
		<path fill="#ECEDED" d="M217.9,222.6c0-0.7,0.5-1.3,1.2-1.3h16.2c13.2,0,24,10.7,24,23.9c0,13.3-10.8,24-24,24h-16.2
			c-0.7,0-1.2-0.6-1.2-1.3V222.6z M234.5,260.8c8.9,0,15.4-6.7,15.4-15.7c0-8.9-6.5-15.6-15.4-15.6h-7.8v31.2H234.5z"/>
	</g>
	<g>
		<path fill="#ECEDED" d="M345.9,220.7c6.2,0,12,2.4,16.7,6.4c0.5,0.5,0.6,1.4,0.1,1.9l-4.2,4.4c-0.5,0.5-1.2,0.5-1.8,0
			c-2.9-2.6-6.6-4-10.3-4c-8.5,0-15.3,7.3-15.3,15.9c0,8.5,6.8,15.7,15.4,15.7c3.8,0,6.8-1.2,8.1-1.7v-5.8h-5.5
			c-0.8,0-1.3-0.5-1.3-1.2v-5.4c0-0.8,0.5-1.3,1.3-1.3h13.1c0.7,0,1.2,0.6,1.2,1.3v17.5c0,0.5-0.3,0.9-0.5,1.1c0,0-7,4.4-16.9,4.4
			c-13.6,0-24.5-10.8-24.5-24.5S332.3,220.7,345.9,220.7z"/>
	</g>
	<g>
		<path fill="#ECEDED" d="M10.8,328.5c0-0.7,0.5-1.3,1.3-1.3h16.1c8.4,0,15.3,6.8,15.3,15.1c0,8.5-6.9,15.4-15.2,15.4h-8.5v16.1
			c0,0.7-0.6,1.3-1.3,1.3h-6.3c-0.8,0-1.3-0.6-1.3-1.3V328.5z M27.6,349.3c3.8,0,7-3.1,7-7.1c0-3.8-3.2-6.6-7-6.6h-7.9v13.7H27.6z"
			/>
	</g>
	<g>
		<path fill="#ECEDED" d="M117,328.5c0-0.7,0.5-1.3,1.3-1.3h27.8c0.8,0,1.3,0.6,1.3,1.3v5.6c0,0.7-0.5,1.3-1.3,1.3h-20.2v11.2h16.9
			c0.7,0,1.3,0.6,1.3,1.3v5.7c0,0.8-0.6,1.3-1.3,1.3h-16.9v12h20.2c0.8,0,1.3,0.6,1.3,1.3v5.6c0,0.7-0.5,1.3-1.3,1.3h-27.8
			c-0.8,0-1.3-0.6-1.3-1.3V328.5z"/>
	</g>
	<g>
		<path fill="#ECEDED" d="M232.4,328.5c0-0.7,0.6-1.3,1.3-1.3h6.4c0.7,0,1.3,0.6,1.3,1.3v45.2c0,0.7-0.6,1.3-1.3,1.3h-6.4
			c-0.7,0-1.3-0.6-1.3-1.3V328.5z"/>
	</g>
	<g>
		<path fill="#ECEDED" d="M338.4,335.4H328c-0.8,0-1.3-0.6-1.3-1.3v-5.6c0-0.7,0.5-1.3,1.3-1.3h29.9c0.8,0,1.3,0.6,1.3,1.3v5.6
			c0,0.7-0.5,1.3-1.3,1.3h-10.5v38.3c0,0.7-0.6,1.3-1.3,1.3h-6.4c-0.7,0-1.3-0.6-1.3-1.3V335.4z"/>
	</g>
	<g>
		<path fill="#ECEDED" d="M898.3,10.5c0-0.7,0.6-1.3,1.3-1.3h6.4c0.7,0,1.3,0.6,1.3,1.3v45.2c0,0.7-0.6,1.3-1.3,1.3h-6.4
			c-0.7,0-1.3-0.6-1.3-1.3V10.5z"/>
	</g>
	<g>
		<path fill="#ECEDED" d="M995,10.5c0-0.7,0.5-1.3,1.3-1.3h27.8c0.8,0,1.3,0.6,1.3,1.3v5.6c0,0.7-0.5,1.3-1.3,1.3h-20.2v11.2h16.9
			c0.7,0,1.3,0.6,1.3,1.3v5.7c0,0.8-0.6,1.3-1.3,1.3h-16.9v12h20.2c0.8,0,1.3,0.6,1.3,1.3v5.6c0,0.7-0.5,1.3-1.3,1.3h-27.8
			c-0.8,0-1.3-0.6-1.3-1.3V10.5z"/>
	</g>
	<g>
		<path fill="#ECEDED" d="M1099.6,51l3.6-3.6c0.8-0.7,1.4-0.5,2.1,0.1c0.9,1,2.3,2.2,4.5,2.2c2.7,0,5.5-2.2,5.5-6.9V10.5
			c0-0.7,0.5-1.3,1.3-1.3h6.4c0.8,0,1.3,0.6,1.3,1.3v32.3c0,9.5-6.4,15-14.4,15c-5.9,0-9.2-3.6-10.4-5
			C1099.1,52.2,1099.2,51.5,1099.6,51z"/>
	</g>
	<g>
		<path fill="#ECEDED" d="M1198.2,55.2l21.3-46c0.2-0.4,0.5-0.8,1.2-0.8h0.7c0.7,0,1,0.3,1.2,0.8l21.1,46c0.4,0.9-0.1,1.8-1.2,1.8
			h-5.9c-1,0-1.5-0.4-2-1.4l-3.3-7.4h-20.4l-3.3,7.4c-0.3,0.7-0.9,1.4-2,1.4h-5.9C1198.4,57,1197.8,56.1,1198.2,55.2z M1227.8,40.7
			l-6.8-15h-0.2l-6.7,15H1227.8z"/>
	</g>
	<g>
		<path fill="#ECEDED" d="M1304.2,10.9c-0.4-0.9,0.1-1.8,1.2-1.8h7c0.6,0,1,0.4,1.2,0.8l13.1,29.4h0.5l13.1-29.4
			c0.1-0.3,0.5-0.8,1.2-0.8h7c1,0,1.6,0.9,1.2,1.8l-21.2,46c-0.2,0.4-0.5,0.8-1.2,0.8h-0.7c-0.6,0-1-0.3-1.2-0.8L1304.2,10.9z"/>
	</g>
	<g>
		<path fill="#ECEDED" d="M1410.2,55.2l21.3-46c0.2-0.4,0.5-0.8,1.2-0.8h0.7c0.7,0,1,0.3,1.2,0.8l21.1,46c0.4,0.9-0.1,1.8-1.2,1.8
			h-5.9c-1,0-1.5-0.4-2-1.4l-3.3-7.4h-20.4l-3.3,7.4c-0.3,0.7-0.9,1.4-2,1.4h-5.9C1410.4,57,1409.8,56.1,1410.2,55.2z M1439.8,40.7
			l-6.8-15h-0.2l-6.7,15H1439.8z"/>
	</g>
	<g>
		<path fill="#ECEDED" d="M1524,10.5c0-0.7,0.5-1.3,1.3-1.3h15.7c8.1,0,14.4,5.5,14.4,12.6c0,5.3-4.3,9.4-7.5,10.9
			c3.6,1.2,8.9,4.9,8.9,11.1c0,7.7-6.6,13.2-14.9,13.2h-16.5c-0.8,0-1.3-0.6-1.3-1.3V10.5z M1540.1,29.3c3.5,0,5.9-2.7,5.9-6.2
			c0-3.4-2.4-5.8-5.9-5.8h-7.3v12H1540.1z M1541,48.9c3.4,0,6.2-2.7,6.2-6.2c0-3.4-3.4-5.9-7-5.9h-7.4v12.2H1541z"/>
	</g>
	<g>
		<path fill="#ECEDED" d="M1640.3,10.5c0-0.7,0.6-1.3,1.3-1.3h6.4c0.7,0,1.3,0.6,1.3,1.3v45.2c0,0.7-0.6,1.3-1.3,1.3h-6.4
			c-0.7,0-1.3-0.6-1.3-1.3V10.5z"/>
	</g>
	<g>
		<path fill="#ECEDED" d="M1730.6,9.7c0-0.7,0.6-1.2,1.3-1.2h1.7l28.4,30.2h0.1V10.5c0-0.7,0.5-1.3,1.3-1.3h6.3
			c0.7,0,1.3,0.6,1.3,1.3v46c0,0.7-0.6,1.2-1.3,1.2h-1.6l-28.6-31.4h-0.1v29.4c0,0.7-0.5,1.3-1.3,1.3h-6.2c-0.7,0-1.3-0.6-1.3-1.3
			V9.7z"/>
	</g>
	<g>
		<path fill="#ECEDED" d="M1841.8,50.3l2.5-4.2c0.5-1,1.7-1,2.3-0.5c0.3,0.2,5.9,4.2,10.3,4.2c3.6,0,6.2-2.3,6.2-5.3
			c0-3.5-2.9-5.9-8.7-8.2c-6.4-2.6-12.8-6.7-12.8-14.8c0-6.1,4.5-13.1,15.4-13.1c7,0,12.3,3.6,13.7,4.6c0.7,0.4,0.9,1.6,0.4,2.3
			l-2.6,3.9c-0.5,0.8-1.6,1.4-2.4,0.8c-0.5-0.3-5.7-3.8-9.5-3.8c-3.9,0-6,2.6-6,4.8c0,3.2,2.5,5.4,8.1,7.7
			c6.6,2.7,14.3,6.6,14.3,15.4c0,7-6.1,13.5-15.7,13.5c-8.6,0-13.7-4-15-5.3C1841.5,51.7,1841.2,51.4,1841.8,50.3z"/>
	</g>
	<g>
		<path fill="#ECEDED" d="M1948.9,10.5c0-0.7,0.5-1.3,1.3-1.3h16.1c8.4,0,15.3,6.8,15.3,15.1c0,8.5-6.9,15.4-15.2,15.4h-8.5v16.1
			c0,0.7-0.6,1.3-1.3,1.3h-6.3c-0.8,0-1.3-0.6-1.3-1.3V10.5z M1965.7,31.3c3.8,0,7-3.1,7-7.1c0-3.8-3.2-6.6-7-6.6h-7.9v13.7H1965.7z
			"/>
	</g>
	<g>
		<path fill="#ECEDED" d="M2064.3,10.5c0-0.7,0.6-1.3,1.3-1.3h6.4c0.7,0,1.3,0.6,1.3,1.3v45.2c0,0.7-0.6,1.3-1.3,1.3h-6.4
			c-0.7,0-1.3-0.6-1.3-1.3V10.5z"/>
	</g>
	<g>
		<path fill="#ECEDED" d="M2156.3,10.5c0-0.7,0.5-1.3,1.3-1.3h19.5c8.2,0,14.9,6.6,14.9,14.7c0,6.3-4.2,11.4-10.1,13.8l9.4,17.4
			c0.5,0.9,0,2-1.2,2h-7.2c-0.6,0-1-0.3-1.1-0.6l-9.1-18.1h-7.6v17.4c0,0.7-0.6,1.3-1.3,1.3h-6.3c-0.8,0-1.3-0.6-1.3-1.3V10.5z
			 M2176.4,31c3.6,0,6.8-3.1,6.8-7c0-3.6-3.1-6.6-6.8-6.6h-11.1V31H2176.4z"/>
	</g>
	<g>
		<path fill="#ECEDED" d="M2265,10.5c0-0.7,0.5-1.3,1.3-1.3h27.8c0.8,0,1.3,0.6,1.3,1.3v5.6c0,0.7-0.5,1.3-1.3,1.3h-20.2v11.2h16.9
			c0.7,0,1.3,0.6,1.3,1.3v5.7c0,0.8-0.6,1.3-1.3,1.3h-16.9v12h20.2c0.8,0,1.3,0.6,1.3,1.3v5.6c0,0.7-0.5,1.3-1.3,1.3h-27.8
			c-0.8,0-1.3-0.6-1.3-1.3V10.5z"/>
	</g>
	<g>
		<path fill="#ECEDED" d="M2373.8,10.5c0-0.7,0.5-1.3,1.3-1.3h6.3c0.7,0,1.3,0.6,1.3,1.3v38.3h17.4c0.8,0,1.3,0.6,1.3,1.3v5.6
			c0,0.7-0.5,1.3-1.3,1.3h-25c-0.8,0-1.3-0.6-1.3-1.3V10.5z"/>
	</g>
	<g>
		<path fill="#ECEDED" d="M2494.8,432.8c6.9,0,11.9,2.2,16.5,6.4c0.6,0.5,0.6,1.4,0.1,1.9l-4.2,4.3c-0.5,0.5-1.2,0.5-1.7,0
			c-2.9-2.5-6.7-4-10.5-4c-8.7,0-15.2,7.3-15.2,15.9c0,8.5,6.6,15.8,15.3,15.8c4.1,0,7.6-1.6,10.5-3.9c0.5-0.5,1.3-0.4,1.7,0
			l4.2,4.4c0.5,0.5,0.4,1.4-0.1,1.8c-4.6,4.5-10.5,6.6-16.6,6.6c-13.7,0-24.7-10.9-24.7-24.5S2481.1,432.8,2494.8,432.8z"/>
	</g>
	<g>
		<path fill="#ECEDED" d="M2594.7,432.8c13.7,0,24.6,11,24.6,24.7s-10.9,24.5-24.6,24.5s-24.5-10.9-24.5-24.5
			S2581.1,432.8,2594.7,432.8z M2594.7,473.1c8.6,0,15.7-7,15.7-15.7s-7.1-15.8-15.7-15.8s-15.7,7.2-15.7,15.8
			S2586.1,473.1,2594.7,473.1z"/>
	</g>
	<g>
		<path fill="#ECEDED" d="M2689.7,434.8c0-0.7,0.5-1.3,1.3-1.3h6.3c0.7,0,1.3,0.6,1.3,1.3v38.3h17.4c0.8,0,1.3,0.6,1.3,1.3v5.6
			c0,0.7-0.5,1.3-1.3,1.3h-25c-0.8,0-1.3-0.6-1.3-1.3V434.8z"/>
	</g>
	<g>
		<path fill="#ECEDED" d="M2791.6,474.6l2.5-4.2c0.5-1,1.7-1,2.3-0.5c0.3,0.2,5.9,4.2,10.3,4.2c3.6,0,6.2-2.3,6.2-5.3
			c0-3.5-2.9-5.9-8.7-8.2c-6.4-2.6-12.8-6.7-12.8-14.8c0-6.1,4.5-13.1,15.4-13.1c7,0,12.3,3.6,13.7,4.6c0.7,0.4,0.9,1.6,0.4,2.3
			l-2.6,3.9c-0.5,0.8-1.6,1.4-2.4,0.8c-0.5-0.3-5.7-3.8-9.5-3.8c-3.9,0-6,2.6-6,4.8c0,3.2,2.5,5.4,8.1,7.7
			c6.6,2.7,14.3,6.6,14.3,15.4c0,7-6.1,13.5-15.7,13.5c-8.6,0-13.7-4-15-5.3C2791.4,476.1,2791,475.7,2791.6,474.6z"/>
	</g>
	<g>
		<path fill="#ECEDED" d="M2472.1,540.1c0.1-0.5,0.5-1,1.2-1h1.1c0.5,0,1,0.3,1.2,0.7l15,32.3c0.1,0,0.1,0,0.2,0l15-32.3
			c0.2-0.4,0.5-0.7,1.2-0.7h1.1c0.8,0,1.2,0.5,1.2,1l8.1,45.9c0.2,1-0.3,1.6-1.2,1.6h-6.2c-0.6,0-1.2-0.5-1.3-1l-4-25.9
			c-0.1,0-0.2,0-0.2,0l-12,26.9c-0.1,0.4-0.5,0.8-1.2,0.8h-1.2c-0.6,0-1-0.3-1.2-0.8l-12.1-26.9c0,0-0.1,0-0.2,0l-4,25.9
			c-0.1,0.5-0.6,1-1.2,1h-6.2c-0.9,0-1.4-0.6-1.3-1.6L2472.1,540.1z"/>
	</g>
	<g>
		<path fill="#ECEDED" d="M2575.7,541.1c0-0.7,0.6-1.3,1.3-1.3h6.5c0.8,0,1.3,0.6,1.3,1.3v28c0,5.8,4,10.4,9.9,10.4
			c5.9,0,10-4.6,10-10.3v-28c0-0.7,0.5-1.3,1.3-1.3h6.5c0.7,0,1.3,0.6,1.3,1.3v28.4c0,10.4-8.3,18.8-19.1,18.8
			c-10.7,0-19-8.4-19-18.8V541.1z"/>
	</g>
	<g>
		<path fill="#ECEDED" d="M2685.6,580.9l2.5-4.2c0.5-1,1.7-1,2.3-0.5c0.3,0.2,5.9,4.2,10.3,4.2c3.6,0,6.2-2.3,6.2-5.3
			c0-3.5-2.9-5.9-8.7-8.2c-6.4-2.6-12.8-6.7-12.8-14.8c0-6.1,4.5-13.1,15.4-13.1c7,0,12.3,3.6,13.7,4.6c0.7,0.4,0.9,1.6,0.4,2.3
			l-2.6,3.9c-0.5,0.8-1.6,1.4-2.4,0.8c-0.5-0.3-5.7-3.8-9.5-3.8c-3.9,0-6,2.6-6,4.8c0,3.2,2.5,5.4,8.1,7.7
			c6.6,2.7,14.3,6.6,14.3,15.4c0,7-6.1,13.5-15.7,13.5c-8.6,0-13.7-4-15-5.3C2685.4,582.4,2685,582,2685.6,580.9z"/>
	</g>
	<g>
		<path fill="#ECEDED" d="M2802.3,541.1c0-0.7,0.6-1.3,1.3-1.3h6.4c0.7,0,1.3,0.6,1.3,1.3v45.2c0,0.7-0.6,1.3-1.3,1.3h-6.4
			c-0.7,0-1.3-0.6-1.3-1.3V541.1z"/>
	</g>
	<g>
		<path fill="#ECEDED" d="M2479.7,647c0-0.7,0.5-1.3,1.3-1.3h6.3c0.7,0,1.3,0.6,1.3,1.3v38.3h17.4c0.8,0,1.3,0.6,1.3,1.3v5.6
			c0,0.7-0.5,1.3-1.3,1.3h-25c-0.8,0-1.3-0.6-1.3-1.3V647z"/>
	</g>
	<g>
		<path fill="#ECEDED" d="M2594.7,645c13.7,0,24.6,11,24.6,24.7s-10.9,24.5-24.6,24.5c-13.7,0-24.5-10.9-24.5-24.5
			S2581.1,645,2594.7,645z M2594.7,685.3c8.6,0,15.7-7,15.7-15.7s-7.1-15.8-15.7-15.8s-15.7,7.2-15.7,15.8
			S2586.1,685.3,2594.7,685.3z"/>
	</g>
	<g>
		<path fill="#ECEDED" d="M2680.6,646.2c0-0.7,0.6-1.2,1.3-1.2h1.7l28.4,30.2h0.1V647c0-0.7,0.5-1.3,1.3-1.3h6.3
			c0.7,0,1.3,0.6,1.3,1.3v46c0,0.7-0.6,1.2-1.3,1.2h-1.6l-28.6-31.4h-0.1v29.4c0,0.7-0.5,1.3-1.3,1.3h-6.2c-0.7,0-1.3-0.6-1.3-1.3
			V646.2z"/>
	</g>
	<g>
		<path fill="#ECEDED" d="M2787.7,647c0-0.7,0.5-1.3,1.2-1.3h16.2c13.2,0,24,10.7,24,23.9c0,13.3-10.8,24-24,24H2789
			c-0.7,0-1.2-0.6-1.2-1.3V647z M2804.4,685.2c8.9,0,15.4-6.7,15.4-15.7c0-8.9-6.5-15.6-15.4-15.6h-7.8v31.2H2804.4z"/>
	</g>
	<g>
		<path fill="#ECEDED" d="M2477.7,119.3c0-0.7,0.5-1.3,1.3-1.3h27.8c0.8,0,1.3,0.6,1.3,1.3v5.6c0,0.7-0.5,1.3-1.3,1.3h-20.2v12.8
			h16.9c0.7,0,1.3,0.6,1.3,1.3v5.6c0,0.7-0.6,1.3-1.3,1.3h-16.9v17.3c0,0.7-0.6,1.3-1.3,1.3h-6.3c-0.8,0-1.3-0.6-1.3-1.3V119.3z"/>
	</g>
	<g>
		<path fill="#ECEDED" d="M2579.6,159.2l2.5-4.2c0.5-1,1.7-1,2.3-0.5c0.3,0.2,5.9,4.2,10.3,4.2c3.6,0,6.2-2.3,6.2-5.3
			c0-3.5-2.9-5.9-8.7-8.2c-6.4-2.6-12.8-6.7-12.8-14.8c0-6.1,4.5-13.1,15.4-13.1c7,0,12.3,3.6,13.7,4.6c0.7,0.4,0.9,1.6,0.4,2.3
			l-2.6,3.9c-0.5,0.8-1.6,1.4-2.4,0.8c-0.5-0.3-5.7-3.8-9.5-3.8c-3.9,0-6,2.6-6,4.8c0,3.2,2.5,5.4,8.1,7.7
			c6.6,2.7,14.3,6.6,14.3,15.4c0,7-6.1,13.5-15.7,13.5c-8.6,0-13.7-4-15-5.3C2579.4,160.6,2579,160.3,2579.6,159.2z"/>
	</g>
	<g>
		<path fill="#ECEDED" d="M2680.7,119.3c0-0.7,0.6-1.3,1.3-1.3h6.4c0.8,0,1.3,0.6,1.3,1.3v18.1h22.3v-18.1c0-0.7,0.5-1.3,1.3-1.3
			h6.3c0.7,0,1.3,0.6,1.3,1.3v45.2c0,0.7-0.6,1.3-1.3,1.3h-6.3c-0.8,0-1.3-0.6-1.3-1.3v-18.9h-22.3v18.9c0,0.7-0.5,1.3-1.3,1.3h-6.4
			c-0.7,0-1.3-0.6-1.3-1.3V119.3z"/>
	</g>
	<g>
		<path fill="#ECEDED" d="M2790.6,119.7c0-0.9,0.7-1.6,1.6-1.6h6c0.9,0,1.6,0.8,1.6,1.6v18.5l17.2-19.4c0.3-0.3,0.7-0.7,1.3-0.7h6.8
			c1.3,0,2,1.4,1.1,2.5l-17.8,20.1l19.1,22.9c0.7,0.9,0.1,2.4-1.2,2.4h-7.4c-0.7,0-1.1-0.3-1.2-0.5l-17.8-22v20.8
			c0,0.9-0.8,1.6-1.6,1.6h-6c-1,0-1.6-0.8-1.6-1.6V119.7z"/>
	</g>
	<g>
		<path fill="#ECEDED" d="M2471.2,221.9c0-0.7,0.6-1.2,1.3-1.2h1.7l28.4,30.2h0.1v-28.2c0-0.7,0.5-1.3,1.3-1.3h6.3
			c0.7,0,1.3,0.6,1.3,1.3v46c0,0.7-0.6,1.2-1.3,1.2h-1.6l-28.6-31.4h-0.1v29.4c0,0.7-0.5,1.3-1.3,1.3h-6.2c-0.7,0-1.3-0.6-1.3-1.3
			V221.9z"/>
	</g>
	<g>
		<path fill="#ECEDED" d="M2594.7,220.7c13.7,0,24.6,11,24.6,24.7s-10.9,24.5-24.6,24.5c-13.7,0-24.5-10.9-24.5-24.5
			S2581.1,220.7,2594.7,220.7z M2594.7,261c8.6,0,15.7-7,15.7-15.7s-7.1-15.8-15.7-15.8s-15.7,7.2-15.7,15.8S2586.1,261,2594.7,261z
			"/>
	</g>
	<g>
		<path fill="#ECEDED" d="M2689.7,222.6c0-0.7,0.5-1.3,1.3-1.3h6.3c0.7,0,1.3,0.6,1.3,1.3V261h17.4c0.8,0,1.3,0.6,1.3,1.3v5.6
			c0,0.7-0.5,1.3-1.3,1.3h-25c-0.8,0-1.3-0.6-1.3-1.3V222.6z"/>
	</g>
	<g>
		<path fill="#ECEDED" d="M2787.7,222.6c0-0.7,0.5-1.3,1.2-1.3h16.2c13.2,0,24,10.7,24,23.9c0,13.3-10.8,24-24,24H2789
			c-0.7,0-1.2-0.6-1.2-1.3V222.6z M2804.4,260.8c8.9,0,15.4-6.7,15.4-15.7c0-8.9-6.5-15.6-15.4-15.6h-7.8v31.2H2804.4z"/>
	</g>
	<g>
		<path fill="#ECEDED" d="M2476.9,328.5c0-0.7,0.5-1.3,1.3-1.3h27.8c0.8,0,1.3,0.6,1.3,1.3v5.6c0,0.7-0.5,1.3-1.3,1.3h-20.2v11.2
			h16.9c0.7,0,1.3,0.6,1.3,1.3v5.7c0,0.8-0.6,1.3-1.3,1.3h-16.9v12h20.2c0.8,0,1.3,0.6,1.3,1.3v5.6c0,0.7-0.5,1.3-1.3,1.3h-27.8
			c-0.8,0-1.3-0.6-1.3-1.3V328.5z"/>
	</g>
	<g>
		<path fill="#ECEDED" d="M2579.9,328.5c0-0.7,0.5-1.3,1.3-1.3h15.7c8.1,0,14.4,5.5,14.4,12.6c0,5.3-4.3,9.4-7.5,10.9
			c3.6,1.2,8.9,4.9,8.9,11.1c0,7.7-6.6,13.2-14.9,13.2h-16.5c-0.8,0-1.3-0.6-1.3-1.3V328.5z M2596,347.3c3.5,0,5.9-2.7,5.9-6.2
			c0-3.4-2.4-5.8-5.9-5.8h-7.3v12H2596z M2597,367c3.4,0,6.2-2.7,6.2-6.2c0-3.4-3.4-5.9-7-5.9h-7.4V367H2597z"/>
	</g>
	<g>
		<path fill="#ECEDED" d="M2681.7,328.5c0-0.7,0.6-1.3,1.3-1.3h6.5c0.8,0,1.3,0.6,1.3,1.3v28c0,5.8,4,10.4,9.9,10.4
			c5.9,0,10-4.6,10-10.3v-28c0-0.7,0.5-1.3,1.3-1.3h6.5c0.7,0,1.3,0.6,1.3,1.3v28.4c0,10.4-8.3,18.8-19.1,18.8
			c-10.7,0-19-8.4-19-18.8V328.5z"/>
	</g>
	<g>
		<path fill="#ECEDED" d="M2790.2,328.5c0-0.7,0.5-1.3,1.3-1.3h19.5c8.2,0,14.9,6.6,14.9,14.7c0,6.3-4.2,11.4-10.1,13.8l9.4,17.4
			c0.5,0.9,0,2-1.2,2h-7.2c-0.6,0-1-0.3-1.1-0.6l-9.1-18.1h-7.6v17.4c0,0.7-0.6,1.3-1.3,1.3h-6.3c-0.8,0-1.3-0.6-1.3-1.3V328.5z
			 M2810.3,349c3.6,0,6.8-3.1,6.8-7c0-3.6-3.1-6.6-6.8-6.6h-11.1V349H2810.3z"/>
	</g>
	<g>
		<path fill="#ECEDED" d="M2479.7,10.5c0-0.7,0.5-1.3,1.3-1.3h6.3c0.7,0,1.3,0.6,1.3,1.3v38.3h17.4c0.8,0,1.3,0.6,1.3,1.3v5.6
			c0,0.7-0.5,1.3-1.3,1.3h-25c-0.8,0-1.3-0.6-1.3-1.3V10.5z"/>
	</g>
	<g>
		<path fill="#ECEDED" d="M2572.1,55.2l21.3-46c0.2-0.4,0.5-0.8,1.2-0.8h0.7c0.7,0,1,0.3,1.2,0.8l21.1,46c0.4,0.9-0.1,1.8-1.2,1.8
			h-5.9c-1,0-1.5-0.4-2-1.4l-3.3-7.4h-20.4l-3.3,7.4c-0.3,0.7-0.9,1.4-2,1.4h-5.9C2572.2,57,2571.7,56.1,2572.1,55.2z M2601.6,40.7
			l-6.8-15h-0.2l-6.7,15H2601.6z"/>
	</g>
	<g>
		<path fill="#ECEDED" d="M2686.9,10.5c0-0.7,0.5-1.3,1.3-1.3h27.8c0.8,0,1.3,0.6,1.3,1.3v5.6c0,0.7-0.5,1.3-1.3,1.3h-20.2v11.2
			h16.9c0.7,0,1.3,0.6,1.3,1.3v5.7c0,0.8-0.6,1.3-1.3,1.3h-16.9v12h20.2c0.8,0,1.3,0.6,1.3,1.3v5.6c0,0.7-0.5,1.3-1.3,1.3h-27.8
			c-0.8,0-1.3-0.6-1.3-1.3V10.5z"/>
	</g>
	<g>
		<path fill="#ECEDED" d="M2787.7,10.5c0-0.7,0.5-1.3,1.2-1.3h16.2c13.2,0,24,10.7,24,23.9c0,13.3-10.8,24-24,24H2789
			c-0.7,0-1.2-0.6-1.2-1.3V10.5z M2804.4,48.7c8.9,0,15.4-6.7,15.4-15.7c0-8.9-6.5-15.6-15.4-15.6h-7.8v31.2H2804.4z"/>
	</g>
	<g>
		<path fill="#ECEDED" d="M437.6,119.3c0-0.7,0.5-1.3,1.2-1.3h16.2c13.2,0,24,10.7,24,23.9c0,13.3-10.8,24-24,24h-16.2
			c-0.7,0-1.2-0.6-1.2-1.3V119.3z M454.3,157.5c8.9,0,15.4-6.7,15.4-15.7c0-8.9-6.5-15.6-15.4-15.6h-7.8v31.2H454.3z"/>
	</g>
	<g>
		<path fill="#ECEDED" d="M558.6,119.3c0-0.7,0.5-1.3,1.3-1.3h27.8c0.8,0,1.3,0.6,1.3,1.3v5.6c0,0.7-0.5,1.3-1.3,1.3h-20.2v11.2
			h16.9c0.7,0,1.3,0.6,1.3,1.3v5.7c0,0.8-0.6,1.3-1.3,1.3h-16.9v12h20.2c0.8,0,1.3,0.6,1.3,1.3v5.6c0,0.7-0.5,1.3-1.3,1.3h-27.8
			c-0.8,0-1.3-0.6-1.3-1.3V119.3z"/>
	</g>
	<g>
		<path fill="#ECEDED" d="M672.3,119.3c0-0.7,0.5-1.3,1.3-1.3h27.8c0.8,0,1.3,0.6,1.3,1.3v5.6c0,0.7-0.5,1.3-1.3,1.3h-20.2v12.8
			h16.9c0.7,0,1.3,0.6,1.3,1.3v5.6c0,0.7-0.6,1.3-1.3,1.3h-16.9v17.3c0,0.7-0.6,1.3-1.3,1.3h-6.3c-0.8,0-1.3-0.6-1.3-1.3V119.3z"/>
	</g>
	<g>
		<path fill="#ECEDED" d="M794.6,142.8L779,120c-0.5-0.9,0-2,1.1-2h7c0.5,0,0.9,0.3,1.1,0.6l10.9,15.7l10.9-15.7
			c0.2-0.3,0.5-0.6,1.1-0.6h7c1.1,0,1.6,1.1,1.1,2l-15.8,22.8v21.8c0,0.7-0.6,1.3-1.3,1.3h-6.3c-0.8,0-1.3-0.6-1.3-1.3V142.8z"/>
	</g>
	<g>
		<path fill="#ECEDED" d="M443.6,222.6c0-0.7,0.5-1.3,1.3-1.3h27.8c0.8,0,1.3,0.6,1.3,1.3v5.6c0,0.7-0.5,1.3-1.3,1.3h-20.2v12.8
			h16.9c0.7,0,1.3,0.6,1.3,1.3v5.6c0,0.7-0.6,1.3-1.3,1.3h-16.9v17.3c0,0.7-0.6,1.3-1.3,1.3h-6.3c-0.8,0-1.3-0.6-1.3-1.3V222.6z"/>
	</g>
	<g>
		<path fill="#ECEDED" d="M568,222.6c0-0.7,0.6-1.3,1.3-1.3h6.4c0.7,0,1.3,0.6,1.3,1.3v45.2c0,0.7-0.6,1.3-1.3,1.3h-6.4
			c-0.7,0-1.3-0.6-1.3-1.3V222.6z"/>
	</g>
	<g>
		<path fill="#ECEDED" d="M665.1,221.9c0-0.7,0.6-1.2,1.3-1.2h1.7l28.4,30.2h0.1v-28.2c0-0.7,0.5-1.3,1.3-1.3h6.3
			c0.7,0,1.3,0.6,1.3,1.3v46c0,0.7-0.6,1.2-1.3,1.2h-1.6L674,238.5H674v29.4c0,0.7-0.5,1.3-1.3,1.3h-6.2c-0.7,0-1.3-0.6-1.3-1.3
			V221.9z"/>
	</g>
	<g>
		<path fill="#ECEDED" d="M780.1,222.6c0-0.7,0.5-1.3,1.2-1.3h16.2c13.2,0,24,10.7,24,23.9c0,13.3-10.8,24-24,24h-16.2
			c-0.7,0-1.2-0.6-1.2-1.3V222.6z M796.8,260.8c8.9,0,15.4-6.7,15.4-15.7c0-8.9-6.5-15.6-15.4-15.6H789v31.2H796.8z"/>
	</g>
	<g>
		<path fill="#ECEDED" d="M442.8,10.5c0-0.7,0.5-1.3,1.3-1.3h27.8c0.8,0,1.3,0.6,1.3,1.3v5.6c0,0.7-0.5,1.3-1.3,1.3h-20.2v11.2h16.9
			c0.7,0,1.3,0.6,1.3,1.3v5.7c0,0.8-0.6,1.3-1.3,1.3h-16.9v12h20.2c0.8,0,1.3,0.6,1.3,1.3v5.6c0,0.7-0.5,1.3-1.3,1.3h-27.8
			c-0.8,0-1.3-0.6-1.3-1.3V10.5z"/>
	</g>
	<g>
		<path fill="#ECEDED" d="M556.9,10.5c0-0.7,0.5-1.3,1.3-1.3h19.5c8.2,0,14.9,6.6,14.9,14.7c0,6.3-4.2,11.4-10.1,13.8l9.4,17.4
			c0.5,0.9,0,2-1.2,2h-7.2c-0.6,0-1-0.3-1.1-0.6l-9.1-18.1h-7.6v17.4c0,0.7-0.6,1.3-1.3,1.3h-6.3c-0.8,0-1.3-0.6-1.3-1.3V10.5z
			 M577,31c3.6,0,6.8-3.1,6.8-7c0-3.6-3.1-6.6-6.8-6.6h-11.1V31H577z"/>
	</g>
	<g>
		<path fill="#ECEDED" d="M671.5,10.5c0-0.7,0.5-1.3,1.3-1.3h27.8c0.8,0,1.3,0.6,1.3,1.3v5.6c0,0.7-0.5,1.3-1.3,1.3h-20.2v11.2h16.9
			c0.7,0,1.3,0.6,1.3,1.3v5.7c0,0.8-0.6,1.3-1.3,1.3h-16.9v12h20.2c0.8,0,1.3,0.6,1.3,1.3v5.6c0,0.7-0.5,1.3-1.3,1.3h-27.8
			c-0.8,0-1.3-0.6-1.3-1.3V10.5z"/>
	</g>
	<g>
		<path fill="#ECEDED" d="M776.5,10.9c-0.4-0.9,0.1-1.8,1.2-1.8h7c0.6,0,1,0.4,1.2,0.8l13.1,29.4h0.5l13.1-29.4
			c0.1-0.3,0.5-0.8,1.2-0.8h7c1,0,1.6,0.9,1.2,1.8l-21.2,46c-0.2,0.4-0.5,0.8-1.2,0.8h-0.7c-0.6,0-1-0.3-1.2-0.8L776.5,10.9z"/>
	</g>
	<g>
		<path fill="#ECEDED" d="M2.2,55.2l21.3-46c0.2-0.4,0.5-0.8,1.2-0.8h0.7c0.7,0,1,0.3,1.2,0.8l21.1,46c0.4,0.9-0.1,1.8-1.2,1.8h-5.9
			c-1,0-1.5-0.4-2-1.4L35,48.3H14.6l-3.3,7.4c-0.3,0.7-0.9,1.4-2,1.4H3.3C2.3,57,1.8,56.1,2.2,55.2z M31.7,40.7l-6.8-15h-0.2
			l-6.7,15H31.7z"/>
	</g>
	<g>
		<path fill="#ECEDED" d="M117,10.5c0-0.7,0.5-1.3,1.3-1.3h27.8c0.8,0,1.3,0.6,1.3,1.3v5.6c0,0.7-0.5,1.3-1.3,1.3h-20.2v11.2h16.9
			c0.7,0,1.3,0.6,1.3,1.3v5.7c0,0.8-0.6,1.3-1.3,1.3h-16.9v12h20.2c0.8,0,1.3,0.6,1.3,1.3v5.6c0,0.7-0.5,1.3-1.3,1.3h-27.8
			c-0.8,0-1.3-0.6-1.3-1.3V10.5z"/>
	</g>
	<g>
		<path fill="#ECEDED" d="M218.3,9.5c0.1-0.5,0.5-1,1.2-1h1.1c0.5,0,1,0.3,1.2,0.7l15,32.3c0.1,0,0.1,0,0.2,0l15-32.3
			c0.2-0.4,0.5-0.7,1.2-0.7h1.1c0.8,0,1.2,0.5,1.2,1l8.1,45.9c0.2,1-0.3,1.6-1.2,1.6h-6.2c-0.6,0-1.2-0.5-1.3-1l-4-25.9
			c-0.1,0-0.2,0-0.2,0l-12,26.9c-0.1,0.4-0.5,0.8-1.2,0.8h-1.2c-0.6,0-1-0.3-1.2-0.8L223,30.1c0,0-0.1,0-0.2,0l-4,25.9
			c-0.1,0.5-0.6,1-1.2,1h-6.2c-0.9,0-1.4-0.6-1.3-1.6L218.3,9.5z"/>
	</g>
	<g>
		<path fill="#ECEDED" d="M329,10.5c0-0.7,0.5-1.3,1.3-1.3h27.8c0.8,0,1.3,0.6,1.3,1.3v5.6c0,0.7-0.5,1.3-1.3,1.3h-20.2v11.2h16.9
			c0.7,0,1.3,0.6,1.3,1.3v5.7c0,0.8-0.6,1.3-1.3,1.3h-16.9v12h20.2c0.8,0,1.3,0.6,1.3,1.3v5.6c0,0.7-0.5,1.3-1.3,1.3h-27.8
			c-0.8,0-1.3-0.6-1.3-1.3V10.5z"/>
	</g>
</g>
</svg>
