<?xml version="1.0" encoding="utf-8"?>
<!-- Generator: Adobe Illustrator 15.1.0, SVG Export Plug-In . SVG Version: 6.00 Build 0)  -->
<!DOCTYPE svg PUBLIC "-//W3C//DTD SVG 1.1//EN" "http://www.w3.org/Graphics/SVG/1.1/DTD/svg11.dtd">
<svg version="1.1" id="Layer_1" xmlns="http://www.w3.org/2000/svg" xmlns:xlink="http://www.w3.org/1999/xlink" x="0px" y="0px"
	 width="72px" height="72px" viewBox="0 0 72 72" enable-background="new 0 0 72 72" xml:space="preserve">
<defs>
	<filter id="Adobe_OpacityMaskFilter" filterUnits="userSpaceOnUse" x="-18" y="0" width="108" height="72">
		<feColorMatrix  type="matrix" values="1 0 0 0 0  0 1 0 0 0  0 0 1 0 0  0 0 0 1 0"/>
	</filter>
</defs>
<mask maskUnits="userSpaceOnUse" x="-18" y="0" width="108" height="72" id="SVGID_1_">
	<g filter="url(#Adobe_OpacityMaskFilter)">
		<circle fill="#FFFFFF" cx="36" cy="36" r="36"/>
	</g>
</mask>
<g mask="url(#SVGID_1_)">
	<rect x="-18" fill="#076D38" width="108" height="72"/>
	<path fill="#FFFFFF" d="M28.552,17.005c-0.056-0.001-0.139,0.029-0.256,0.099c-0.264,0.177-0.785,0.721-0.802,1.346
		c-0.016,0.353-0.082,0.352,0.149,0.576c0.166,0.241,0.334,0.217,0.67,0.041c0.193-0.143,0.259-0.233,0.325-0.472
		c0.079-0.401-0.422,0.189-0.486-0.257c-0.113-0.414,0.207-0.585,0.512-0.985C28.671,17.163,28.675,17.009,28.552,17.005
		L28.552,17.005z M33.457,17.032c-0.094,0.012-0.209,0.133-0.369,0.423c-0.115,0.304-0.608,0.762-0.252,1.71
		c0.292,0.601,0.411,1.577,0.279,2.664c-0.202,0.309-0.249,0.416-0.514,0.725c-0.371,0.4-0.774,0.298-1.084,0.148
		c-0.289-0.195-0.516-0.295-0.648-0.914c0.023-0.986,0.081-2.601-0.098-2.943c-0.267-0.53-0.705-0.34-0.893-0.18
		c-0.898,0.823-1.344,2.212-1.614,3.316c-0.25,0.806-0.516,0.572-0.702,0.248c-0.455-0.426-0.487-3.756-1.036-3.209
		c-0.878,2.512,0.505,5.263,1.463,4.995c0.691,0.287,1.131-1.029,1.413-2.47c0.193-0.404,0.342-0.451,0.44-0.243
		c-0.024,1.916,0.139,2.344,0.631,2.925c1.099,0.848,2.007,0.107,2.079,0.036c0.071-0.071,0.855-0.855,0.855-0.855
		c0.189-0.2,0.441-0.212,0.71-0.036c0.263,0.237,0.229,0.647,0.787,0.931c0.472,0.188,1.478,0.046,1.711-0.36
		c0.314-0.538,0.391-0.723,0.536-0.927c0.224-0.298,0.606-0.166,0.606-0.072c-0.035,0.167-0.261,0.331-0.107,0.63
		c0.266,0.2,0.328,0.071,0.486,0.027c0.557-0.266,0.976-1.476,0.976-1.476c0.025-0.451-0.231-0.417-0.396-0.324
		c-0.215,0.131-0.228,0.176-0.44,0.306c-0.273,0.041-0.801,0.22-1.063-0.185c-0.266-0.487-0.269-1.166-0.472-1.656
		c0-0.036-0.356-0.772-0.027-0.819c0.166,0.031,0.523,0.123,0.581-0.176c0.174-0.291-0.377-1.117-0.752-1.534
		c-0.326-0.357-0.774-0.401-1.211-0.036c-0.305,0.281-0.259,0.594-0.318,0.892c-0.079,0.341-0.063,0.763,0.283,1.214
		c0.304,0.6,0.856,1.371,0.675,2.457c0,0-0.322,0.517-0.887,0.45c-0.235-0.051-0.619-0.153-0.824-1.66
		c-0.153-1.142,0.039-2.739-0.445-3.488C33.708,17.285,33.614,17.011,33.457,17.032L33.457,17.032z M31.904,17.153
		c-0.146,0.013-0.309,0.183-0.44,0.513c-0.114,0.251-0.252,1.562-0.229,1.562c-0.091,0.39,0.407,0.556,0.635,0.054
		c0.34-0.919,0.341-1.311,0.364-1.701C32.18,17.283,32.051,17.14,31.904,17.153L31.904,17.153z M37.639,17.256
		c-0.151,0.014-0.271,0.102-0.315,0.324c-0.06,0.522-0.029,0.807,0.059,1.242c0.066,0.29,0.488,0.776,0.697,1.058
		c0.992,1.334,1.947,2.676,2.871,4.063c0.146,1.03,0.251,2.038,0.318,3.042c0.15,2.201,0.196,4.941,0.059,7.258
		c0.413,0.017,1.073-0.666,1.306-1.664c0.151-1.383-0.054-4.202-0.068-5.018c-0.009-0.339-0.03-0.743-0.054-1.166
		c1.073,1.753,2.114,3.612,3.138,5.652c0.372-0.178,0.289-2.276,0.071-2.57c-0.818-1.761-1.948-3.499-2.309-4.167
		c-0.13-0.242-0.573-0.916-1.099-1.692c-0.096-1.108-0.201-2.047-0.27-2.331c-0.168-1.172,0.482,0.132,0.392-0.549
		c-0.211-1.17-0.856-1.966-1.619-3.038c-0.246-0.349-0.241-0.42-0.621,0.085c-0.228,0.515-0.224,0.943-0.158,1.346
		c-0.1-0.146-0.223-0.318-0.399-0.531c-0.66-0.565-0.7-0.596-1.247-1.058C38.217,17.422,37.889,17.233,37.639,17.256L37.639,17.256z
		 M54.629,17.432c-0.072-0.011-0.152,0.024-0.242,0.158c-0.172,0.15-0.356,0.423-0.352,0.774c0.042,0.618,0.152,1.25,0.194,1.867
		c0.015,0.083,0.029,0.166,0.045,0.248c-0.067-0.085-0.124-0.151-0.157-0.185c-1.205-1.265,0.553-0.207-0.229-1.184
		c-0.662-0.727-0.855-0.958-1.423-1.395c-0.283-0.184-0.455-0.535-0.549,0.063c-0.037,0.525-0.076,1.133-0.041,1.575
		c-0.002,0.246,0.254,0.708,0.473,0.981c0.804,0.987,1.624,2.037,2.448,3.132c0.175,2.234,0.22,4.283,0.396,6.521
		c-0.024,0.957-0.318,2.228-0.598,2.348c0,0-0.426,0.245-0.711-0.027c-0.207-0.083-1.035-1.382-1.035-1.382
		c-0.424-0.388-0.706-0.277-1.009,0c-0.831,0.804-1.207,2.308-1.771,3.344c-0.146,0.232-0.557,0.429-1.013-0.018
		c-1.159-1.583-0.481-3.837-0.626-3.258c-1.032,1.164-0.575,3.091-0.342,3.505c0.34,0.681,0.615,1.117,1.277,1.454
		c0.604,0.444,1.073,0.167,1.332-0.144c0.607-0.629,0.615-2.238,0.9-2.556c0.2-0.585,0.7-0.484,0.945-0.225
		c0.237,0.34,0.516,0.562,0.864,0.747c0.565,0.499,1.242,0.59,1.907,0.135c0.455-0.255,0.75-0.587,1.018-1.242
		c0.286-0.764,0.144-4.772,0.081-7.001c0.428,0.603,0.85,1.218,1.269,1.84c0.185,1.957,0.268,3.885,0.208,5.733
		c-0.045,0.368,1.281-1.097,1.272-1.791c-0.006-0.607,0.001-1.158,0-1.67c0.644,1.026,1.266,2.071,1.854,3.127
		c0.364-0.193,0.24-2.258,0.01-2.543c-0.616-1.033-1.405-2.15-2.016-3.015c-0.121-1.091-0.286-2.377-0.36-2.772
		c-0.117-0.615-0.234-1.539-0.41-2.268c-0.048-0.285-0.194-1.195-0.148-1.283c0.072-0.203,0.344,0.007,0.477-0.229
		c0.201-0.219-0.693-2.534-1.146-3.195c-0.163-0.296-0.459-0.194-0.824,0.288c-0.339,0.317-0.215,1.041-0.086,1.728
		c0.337,1.753,0.637,3.539,0.873,5.319c-0.438-0.653-0.975-1.442-1.502-2.205c-0.014-0.073-0.068-0.343-0.068-0.346
		c0-0.032-0.072-1.434-0.135-1.768c-0.01-0.136-0.043-0.175,0.099-0.158c0.151,0.126,0.173,0.133,0.267,0.175
		c0.152,0.028,0.285-0.229,0.193-0.468c-0.472-0.869-0.942-1.741-1.414-2.61C54.767,17.502,54.703,17.443,54.629,17.432
		L54.629,17.432z M10.778,17.477c-0.261-0.007-0.55,0.154-0.437,0.468c-0.066,0.171,0.511,0.749,0.611,1.066
		c0.092,0.226-0.089,0.955,0.1,1.021c0.174,0.076,0.413-0.504,0.504-1.04c0.051-0.293,0.012-1.297-0.67-1.503
		C10.851,17.482,10.814,17.478,10.778,17.477L10.778,17.477z M60.732,17.482c-0.06,0.006-0.133,0.102-0.242,0.338
		c-0.268,0.438-0.36,1.22-0.252,1.912c0.642,4.35,1.12,8.561,1.219,12.416c-0.056,0.366-0.072,0.56-0.243,1.022
		c-0.38,0.486-0.798,1.096-1.192,1.39c-0.395,0.294-1.233,0.574-1.508,0.792c-0.87,0.502-0.875,1.082-0.171,1.103
		c1.213-0.141,2.647-0.24,3.637-1.732c0.264-0.418,0.575-1.553,0.589-2.247c0.093-4.067-0.053-8.044-0.662-10.984
		c-0.038-0.287-0.165-0.944-0.117-1.031c0.079-0.201,0.477,0.021,0.617-0.211c0.207-0.211-1.025-1.791-1.458-2.466
		C60.862,17.614,60.809,17.475,60.732,17.482L60.732,17.482z M48.016,17.55c-0.051,0.009-0.125,0.085-0.262,0.266
		c-0.339,1.108-0.457,2.012-0.328,2.7c0.871,4.541,1.762,8.678,1.621,13c0.412,0.003,0.889-0.943,1.093-1.881
		c0.111-1.29-0.075-2.076-0.107-2.835c-0.034-0.759-0.859-6.914-1.026-7.488c-0.202-1.085,0.803-0.142,0.692-0.773
		c-0.347-0.796-1.213-1.955-1.485-2.646C48.111,17.707,48.099,17.535,48.016,17.55L48.016,17.55z M17.051,17.636
		c-0.106,0.019-0.21,0.106-0.247,0.252c-0.023,0.095,0.041,0.253-0.045,0.302c-0.05,0.05-0.238,0.016-0.229-0.248
		c0-0.084-0.062-0.172-0.1-0.225c-0.038-0.024-0.062-0.032-0.13-0.032c-0.082,0.004-0.081,0.025-0.125,0.095
		c-0.021,0.07-0.047,0.139-0.047,0.22c-0.011,0.094-0.048,0.125-0.117,0.14c-0.078,0-0.059,0.008-0.121-0.032
		c-0.038-0.041-0.081-0.056-0.081-0.126c0-0.072-0.02-0.187-0.041-0.234c-0.033-0.043-0.084-0.065-0.144-0.081
		c-0.324,0.001-0.347,0.373-0.328,0.513c-0.025,0.026-0.037,0.686,0.404,0.869c0.593,0.282,1.704,0.164,1.656-0.792
		c0-0.085-0.018-0.369-0.027-0.446C17.269,17.67,17.157,17.617,17.051,17.636L17.051,17.636z M24.998,17.645
		c-0.205,0.01-0.385,0.069-0.54,0.148c-0.393,0.376-0.485,0.979-0.176,1.354c0.302,0.142,0.602,0.445,0.401,0.612
		c-0.852,0.909-3.066,2.427-3.178,2.705c-0.001,0.001-0.003,0.006-0.004,0.009c0,0.001,0,0.007,0,0.009c0,0.001,0,0.004,0,0.004
		c0.001,0.002,0.003,0.007,0.004,0.009c0,0.001,0.004,0.004,0.005,0.005c0,0,0.004,0,0.005,0c0,0,0.004,0.004,0.005,0.005
		c0,0,0.002-0.001,0.003,0c0.002,0,0.005,0.004,0.005,0.004c0.112,0.076,1.499,0.074,1.651,0.005
		c0.002-0.001,0.005-0.004,0.005-0.005c0.001,0,0.005,0,0.005,0v-0.004c0.476-0.176,2.736-2.759,2.736-2.759
		c-0.117-0.1-0.226-0.175-0.343-0.275c-0.125-0.108-0.112-0.215,0-0.324c0.561-0.325,0.382-1.042,0.091-1.368
		C25.431,17.671,25.202,17.634,24.998,17.645L24.998,17.645z M45.77,17.654c-0.06,0.006-0.131,0.097-0.242,0.333
		c-0.268,0.438-0.449,1.2-0.428,1.913c0.579,4.005,0.756,7.51,1.135,11.516c0.03,0.388-0.027,0.95-0.284,1.174
		c-0.952,0.995-2.326,2.222-3.82,2.785c-0.16,0.181,0.399,0.951,1.125,0.951c1.213-0.142,2.278-0.822,3.268-2.615
		c0.264-0.418,0.729-1.313,0.741-2.007c0.093-4.067-0.205-7.23-0.814-10.17c-0.038-0.287-0.013-0.625,0.037-0.711
		c0.078-0.094,0.344,0.002,0.486-0.229c0.207-0.211-0.555-1.966-0.986-2.642C45.9,17.781,45.848,17.646,45.77,17.654L45.77,17.654z
		 M13.59,17.776c-0.167,0.019-0.325,0.156-0.4,0.337c-0.028,0.642-0.033,1.284,0.04,1.876c0.292,1.039,0.384,1.952,0.526,3.015
		c0.04,1.425-0.822,0.616-0.783-0.09c0.199-0.917,0.146-2.361-0.031-2.727c-0.14-0.366-0.303-0.457-0.644-0.396
		c-0.271-0.017-0.97,0.745-1.165,2.007c0,0-0.163,0.647-0.234,1.224c-0.096,0.651-0.527,1.112-0.828-0.09
		c-0.259-0.875-0.42-3.029-0.854-2.524c-0.125,1.682-0.273,4.642,1.157,4.945c1.729,0.167,0.773-2.922,1.399-3.483
		c0.119-0.276,0.338-0.282,0.355,0.068v2.624c-0.016,0.853,0.546,1.106,0.98,1.283c0.454-0.035,0.755-0.023,0.932,0.418
		c0.072,1.513,0.146,3.029,0.217,4.541c0,0,1.048,0.301,1.097-2.552c0.05-1.675-0.333-3.081-0.108-3.406
		c0.008-0.321,0.418-0.336,0.702-0.18c0.452,0.319,0.652,0.711,1.354,0.553c1.069-0.294,1.712-0.812,1.729-1.633
		c-0.063-0.78-0.152-1.561-0.491-2.34c0.048-0.142-0.204-0.511-0.157-0.653c0.192,0.301,0.483,0.276,0.548,0
		c-0.182-0.6-0.464-1.173-0.922-1.422c-0.377-0.333-0.932-0.263-1.134,0.432c-0.094,0.8,0.291,1.749,0.873,2.524
		c0.124,0.303,0.298,0.807,0.222,1.26c-0.311,0.177-0.619,0.104-0.878-0.17c0,0-0.851-0.637-0.851-0.779
		c0.226-1.445,0.048-1.61-0.076-2.012c-0.088-0.554-0.351-0.729-0.562-1.107c-0.213-0.226-0.502-0.226-0.64,0
		c-0.375,0.652-0.199,2.051,0.073,2.677c0.196,0.577,0.497,0.937,0.355,0.937c-0.116,0.326-0.36,0.25-0.536-0.126
		c-0.25-0.777-0.301-1.935-0.301-2.457c-0.075-0.647-0.16-2.03-0.585-2.38C13.855,17.815,13.72,17.761,13.59,17.776L13.59,17.776z
		 M19.66,17.785c-0.085,0.011-0.18,0.06-0.291,0.085c-0.368,0.117-0.712,0.435-0.604,1.053c0.435,2.64,0.718,4.655,1.152,7.294
		c0.067,0.31-0.192,0.717-0.526,0.675c-0.568-0.384-0.708-1.162-1.678-1.129c-0.702,0.008-1.502,0.771-1.602,1.507
		c-0.117,0.585-0.159,1.219,0,1.729c0.494,0.593,1.084,0.53,1.602,0.396c0.425-0.175,0.776-0.595,0.927-0.495
		c0,0.001,0.004,0,0.005,0c0,0.001-0.001,0.004,0,0.005c0.093,0.162-0.009,1.536-2.007,2.597c-1.228,0.551-2.206,0.684-2.732-0.32
		c-0.326-0.626,0.023-3.013-0.778-2.461c-2.373,6.115,5.558,6.969,6.444,0.252c0.058-0.189,0.232-0.38,0.355-0.333
		c0.054,0.023,0.103,0.097,0.122,0.234c-0.185,6.082-6.136,6.5-7.146,4.585c-0.251-0.451-0.326-1.454-0.352-2.057
		c-0.046-0.363-0.137-0.573-0.243-0.656c-0.241-0.182-0.566,0.291-0.635,1.111c-0.1,0.66-0.071,0.841-0.071,1.477
		c0.317,4.804,7.976,2.74,9.221-1.229c0.616-2.051-0.014-3.599,0.193-3.789c0.002-0.001,0.007-0.003,0.009-0.004
		c0.003-0.001,0.007-0.003,0.01-0.004c0.001,0,0.006-0.004,0.008-0.005c0.007-0.001,0.019-0.004,0.027-0.004
		c0.761,0.818,1.827,0.104,2.062-0.181c0.101-0.142,0.352-0.233,0.525-0.049c0.594,0.426,1.633,0.226,1.85-0.526
		c0.125-0.735,0.232-1.492,0.257-2.276c-0.386,0.119-0.697,0.209-0.823,0.341c-0.03,0.033-0.053,0.069-0.059,0.108
		c-0.033,0.217-0.065,0.435-0.1,0.652c-0.003,0.018-0.009,0.035-0.018,0.05c-0.016,0.026-0.043,0.051-0.072,0.067
		c-0.136,0.074-0.374,0.032-0.387-0.167c-0.184-0.835-0.939-0.944-1.399,0.351c-0.31,0.25-0.873,0.299-0.932-0.077
		c0.075-0.869-0.275-0.986-0.976-0.576c-0.227-1.721-0.45-3.364-0.676-5.085c0.292-0.009,0.561,0.204,0.828-0.13
		c-0.29-0.9-0.901-2.73-1.246-2.903c-0.004-0.001-0.007-0.003-0.01-0.004c-0.015-0.019-0.033-0.037-0.049-0.05
		c-0.007-0.005-0.017-0.014-0.022-0.018c-0.007-0.005-0.017-0.01-0.023-0.014c-0.014-0.008-0.03-0.014-0.044-0.018
		C19.724,17.786,19.693,17.781,19.66,17.785L19.66,17.785z M43.326,17.798c-0.305-0.009-0.64,0.182-0.508,0.562
		c-0.078,0.208,0.651,0.911,0.769,1.296c0.212,0.592-0.162,1.156,0.059,1.237c0.202,0.091,0.483-0.61,0.589-1.26
		c0.122-0.524-0.252-1.6-0.782-1.822C43.411,17.803,43.37,17.8,43.326,17.798L43.326,17.798z M24.89,18.446
		c0.138-0.014,0.306,0.113,0.387,0.292c0.088,0.192,0.044,0.375-0.099,0.41s-0.327-0.092-0.414-0.284
		c-0.088-0.191-0.044-0.379,0.099-0.414C24.872,18.449,24.88,18.448,24.89,18.446z M59.09,19.333c-0.277-0.01-0.578,0.2-0.46,0.612
		c-0.069,0.225,0.591,0.987,0.698,1.404c0.097,0.296-0.146,1.253,0.055,1.341c0.184,0.099,0.442-0.661,0.54-1.364
		c0.053-0.385-0.232-1.735-0.716-1.975C59.169,19.341,59.129,19.334,59.09,19.333L59.09,19.333z M40.182,19.801
		c0.024,0.112,0.05,0.226,0.066,0.341c0.058,0.25,0.106,0.498,0.158,0.743c-0.219-0.301-0.399-0.544-0.477-0.63
		C39.435,19.668,39.939,19.87,40.182,19.801L40.182,19.801z M44.537,21.943c-0.106,0.019-0.21,0.111-0.247,0.256
		c-0.023,0.096,0.046,0.249-0.041,0.297c-0.05,0.05-0.241,0.021-0.233-0.243c0-0.084-0.062-0.176-0.1-0.229
		c-0.037-0.025-0.062-0.032-0.13-0.032c-0.083,0.003-0.081,0.025-0.127,0.094c-0.019,0.071-0.044,0.141-0.044,0.22
		c-0.011,0.094-0.044,0.126-0.113,0.14c-0.077,0-0.062,0.009-0.126-0.031c-0.038-0.041-0.081-0.057-0.081-0.126
		c0-0.072-0.019-0.187-0.041-0.234c-0.031-0.042-0.084-0.061-0.143-0.076c-0.324,0.001-0.344,0.369-0.325,0.508
		c-0.024,0.027-0.041,0.69,0.401,0.873c0.592,0.282,1.707,0.159,1.66-0.796c0-0.084-0.023-0.368-0.031-0.445
		C44.755,21.978,44.644,21.925,44.537,21.943L44.537,21.943z M24.648,22.141c-0.074-0.007-0.169,0.02-0.279,0.086
		c-0.523,0.283-0.727,1.124-0.4,1.615c0.305,0.434,0.786,0.275,0.851,0.275c0.513,0.064,0.819-0.963,0.819-0.963
		s0.015-0.289-0.595,0.257c-0.257,0.048-0.292-0.045-0.356-0.189c-0.053-0.267-0.041-0.538,0.081-0.805
		C24.826,22.255,24.77,22.153,24.648,22.141L24.648,22.141z M52.764,22.271c-0.291-0.014-0.6,0.174-0.68,0.571
		c0.001,0.234,0.105,0.363,0.086,0.576c-0.031,0.122-0.156,0.201-0.455,0.059c0.047-0.043-0.193-0.383-0.193-0.383
		c-0.233-0.142-0.544,0.008-0.746,0.14c-0.111,0.203-0.195,0.55-0.068,0.904c0.335,0.618,1.482,1.673,2.029,1.684
		c0.011-0.558,0.064-1.299,0.096-1.76c0.013-0.174,0.053-0.366,0.22-0.409c0.167-0.044,0.456,0.167,0.458-0.014
		c-0.029-0.354-0.101-0.878-0.301-1.125C53.107,22.362,52.938,22.28,52.764,22.271L52.764,22.271z M29.49,24.211
		c-0.007,0.003-0.016,0.009-0.022,0.014c-0.003,0.002-0.011,0.006-0.014,0.009c-0.058,0.044-0.126,0.144-0.279,0.252
		c-0.258,0.293-0.304,0.497-0.287,1.084c0.015,0.062,0.489,1.381,0.891,2.308c0.271,0.964,0.521,2.067,0.338,3.109
		c-0.634,1.378-1.91,2.613-3.141,3.285c-0.627,0.202-1.17,0.133-1.315-0.004c-0.001-0.001-0.003-0.003-0.003-0.003
		c-0.361-0.243-0.369-0.674-0.347-0.748c0,0,0-0.003,0-0.004c0.001,0,0.003-0.003,0.004-0.005c1.039-0.723,2.226-1.309,3.155-3.262
		c0.274-0.747,0.357-1.195,0.085-2.349c-0.106-0.43-0.237-0.784-0.531-1.089c0.001-0.001,0.004-0.004,0.004-0.004
		c0.178-0.085,0.637,0.253,0.707,0.041c-0.109-0.552-0.481-1.291-0.904-1.669c-0.371-0.336-0.772-0.375-1.111-0.068
		c-0.382,0.212-0.463,0.975-0.279,1.643c0.204,0.502,0.755,0.591,1.147,1.602c0,0,0,0.004,0,0.004
		c0.009,0.063,0.135,0.755-0.063,1.035c-0.16,0.5-2.221,2.125-2.367,2.223c-0.001,0.001-0.012,0.007-0.013,0.009
		c-0.001,0-0.005,0.003-0.005,0.003c0,0.001-0.003,0.003-0.004,0.005c0,0.001-0.004,0.004-0.005,0.004c0,0-0.004,0-0.005,0h-0.004
		c-0.001-0.001-0.004-0.003-0.004-0.004c0,0,0-0.003,0-0.005c-0.002-0.001-0.004-0.007-0.005-0.008
		c-0.006-0.041,0.005-0.144,0-0.311c-0.015-0.305,0.112-0.994,0.103-1.112c0,0,0-0.003,0-0.004s-0.003-0.003-0.004-0.004v-0.004
		c-0.002,0-0.004,0-0.004,0c-0.682,0.439-0.907,1.789-1.031,2.187c-1.724,1.192-3.682,2.078-4.811,3.285
		c-0.587,0.917,4.048-1.054,4.586-1.292c0.004,0.003,0.009,0.009,0.014,0.014c0.102,0.112,0.111,0.505,0.418,0.859
		c0.482,0.653,1.506,1.055,2.502,0.805c1.672-0.604,2.634-1.743,3.613-3.006c0.141-0.204,0.359-0.364,0.562-0.206
		c0.674,1.507,2.615,2.58,5.126,2.69c0.581-0.707,0.304-1.054,0.067-1.201c-0.072-0.048-1.248-0.507-1.431-0.963
		c-0.114-0.424,0.164-0.801,0.725-1.084c1.611-0.196,3.195-0.413,4.729-0.905c0.016-0.516,0.318-1.285,0.521-1.62
		c0.142-0.232,0.232-0.255,0.266-0.288c0.002-0.001,0.004-0.003,0.005-0.004c0-0.001,0.004-0.004,0.005-0.005
		c0,0,0.004-0.003,0.004-0.005c0-0.001,0-0.007,0-0.009c0.001-0.01,0-0.028-0.004-0.045l-0.262-0.153l-5.143-0.023
		c-0.063-0.024-0.111-0.049-0.14-0.071c-0.003-0.002-0.007-0.008-0.01-0.01c-0.001,0-0.003-0.003-0.005-0.004
		c-0.001-0.001-0.003-0.004-0.004-0.005c0-0.001-0.004-0.007-0.004-0.009c-0.001,0-0.005-0.004-0.005-0.004c0,0,0-0.004,0-0.005
		c-0.001,0-0.005-0.004-0.005-0.004s0-0.004,0-0.005v-0.004c0-0.001,0-0.004,0-0.004c0-0.001,0-0.004,0-0.004
		c0-0.001,0-0.004,0-0.005c0,0,0-0.004,0-0.005v-0.004c0,0,0-0.004,0-0.005c0,0,0.004-0.003,0.005-0.004
		c0.001-0.002,0.003-0.007,0.005-0.009c0.024-0.034,0.086-0.066,0.162-0.094c1.228-0.168,3.41-0.525,3.554-2.624
		c-0.022-1.093-0.468-1.809-1.808-2.007c-0.986,0.076-1.689,1.029-1.575,2.079c-0.048,0.283,0.095,0.837-0.194,0.9
		c-1.891,0.173-3.953,1.357-4.023,2.205h-0.004c-0.001,0.001-0.004,0.004-0.004,0.005c-0.002,0-0.008,0.003-0.01,0.005
		c-0.001,0-0.007,0-0.01,0c-0.002,0-0.009,0.003-0.013,0.004c-0.001,0-0.003,0-0.005,0s-0.007,0-0.008,0s-0.004,0-0.005,0
		c-0.002,0-0.008,0-0.009,0c-0.005,0-0.015-0.003-0.018-0.004c-0.123-0.035-0.283-0.237-0.257-0.522
		c-0.073-1.465-0.55-3.124-1.296-4.401c-0.268-0.267-0.384-0.375-0.46-0.387c-0.002,0-0.007,0-0.009,0c-0.003,0-0.01,0-0.014,0
		c-0.001,0-0.003,0-0.004,0c0,0-0.004,0-0.005,0C29.495,24.211,29.491,24.211,29.49,24.211L29.49,24.211z M34.413,24.985
		c-0.106,0.019-0.21,0.107-0.247,0.252c-0.023,0.096,0.046,0.254-0.041,0.302c-0.049,0.05-0.241,0.021-0.233-0.243
		c0-0.083-0.062-0.176-0.1-0.229c-0.037-0.025-0.058-0.031-0.125-0.031c-0.083,0.003-0.086,0.025-0.132,0.094
		c-0.019,0.07-0.044,0.14-0.044,0.221c-0.011,0.094-0.044,0.126-0.112,0.139c-0.078,0-0.059,0.009-0.122-0.031
		c-0.036-0.041-0.086-0.057-0.086-0.127c0-0.071-0.014-0.186-0.035-0.233c-0.032-0.043-0.089-0.062-0.148-0.077
		c-0.323,0.001-0.343,0.369-0.325,0.509c-0.023,0.026-0.039,0.69,0.401,0.873c0.593,0.282,2.004,0.116,1.66-0.796
		c0-0.084-0.023-0.368-0.031-0.445C34.633,25.02,34.52,24.966,34.413,24.985L34.413,24.985z M54.281,25.799
		c-0.016-0.002-0.031-0.001-0.049,0.005c0,0-2.745,1.952-2.812,2.02c-0.272,0.242-0.137,1.093,0,0.995
		c0.196,0.076,2.959-1.796,2.906-2.016C54.446,26.81,54.505,25.84,54.281,25.799L54.281,25.799z M37.007,26.089
		c0.112-0.012,0.259,0.026,0.4,0.108c0.205,0.119,0.332,0.297,0.315,0.428c-0.001,0.003,0,0.01,0,0.013
		c-0.001,0.004-0.008,0.01-0.01,0.014c-0.001,0.003-0.003,0.011-0.004,0.014c0,0.002-0.004,0.007-0.005,0.009
		c0,0.001-0.003,0.006-0.004,0.009c-0.007,0.011-0.019,0.022-0.026,0.032c-0.099,0.092-0.326,0.078-0.541-0.045
		c-0.202-0.118-0.329-0.297-0.314-0.428c0-0.003,0.003-0.01,0.004-0.013c0.004-0.016,0.01-0.031,0.018-0.045
		c0.004-0.004,0.006-0.013,0.01-0.018c0.001-0.001,0.004-0.003,0.005-0.004c0.006-0.007,0.015-0.017,0.022-0.022
		C36.909,26.113,36.955,26.094,37.007,26.089L37.007,26.089z M12.972,26.584c-1.422,0.026-3.504,1.864-3.559,2.885
		c1.5-0.721,2.974-1.415,4.5-2.161C13.667,26.941,13.897,26.61,12.972,26.584L12.972,26.584z M17.581,27.223
		c0.138,0.002,0.286,0.07,0.364,0.266c0.069,0.179,0.002,0.366-0.082,0.458c0,0,0.001,0.004,0,0.005
		c-0.001,0.002-0.002,0.007-0.003,0.009c-0.06,0.077-0.27,0.045-0.419,0.045c-0.181-0.008-0.27-0.038-0.377-0.185
		c-0.052-0.163,0.105-0.324,0.176-0.445c0-0.001,0.003-0.003,0.005-0.004c0.007-0.012,0.019-0.025,0.03-0.037
		c0.054-0.049,0.147-0.095,0.249-0.107C17.541,27.225,17.561,27.223,17.581,27.223L17.581,27.223z M53.747,27.789
		c-0.253,0.032-0.493,0.271-0.382,0.653c-0.07,0.225,0.342,1.01,0.449,1.426c0.097,0.297-0.124,1.135,0.076,1.225
		c0.185,0.098,0.67-0.499,0.653-1.247c0.053-0.385-0.138-1.802-0.621-2.043C53.866,27.787,53.806,27.782,53.747,27.789
		L53.747,27.789z M23.029,29.175c-0.223,0.016-0.422,0.135-0.332,0.45c-0.014,0.229,0.631,0.506,0.67,1.035
		c0.093,0.218-0.137,0.917,0.055,0.981c0.176,0.073,0.421-0.483,0.513-0.999c0.052-0.284-0.221-1.272-0.684-1.449
		C23.18,29.177,23.104,29.17,23.029,29.175L23.029,29.175z M32.225,30.43c0.016-0.001,0.031,0,0.049,0c0.002,0,0.006,0,0.01,0
		c0.572,0.156,1.416,0.172,2.15,0.247c0.598,0.039,0.893,0.506,0.332,0.703c-0.552,0.189-1.081,0.336-1.084,1.133
		c0.073,0.395,0.058,0.603-0.004,0.697c-0.005,0.007-0.014,0.018-0.018,0.023c-0.002,0-0.004,0.003-0.004,0.003
		c-0.002,0.001-0.005,0.005-0.006,0.005c-0.001,0.001-0.004,0.003-0.005,0.004l-0.005,0.005c-0.001,0.001-0.007,0.003-0.008,0.005
		c-0.008,0.004-0.019,0.01-0.027,0.013c-0.008,0.002-0.019,0.003-0.026,0.005c-0.132,0.019-0.322-0.105-0.464-0.181
		c-0.34-0.244-1.295-0.835-1.432-2.106C31.664,30.702,31.88,30.455,32.225,30.43L32.225,30.43z M9.769,31.406
		c-0.036,0.002-0.107,0.109-0.203,0.229c-0.846,1.348-0.921,3.36-0.455,3.961c0.249,0.284,0.657,0.408,0.958,0.319
		c0.532-0.229,0.765-1.307,0.639-1.7c-0.177-0.278-0.317-0.322-0.495-0.085c-0.374,0.759-0.529,0.239-0.562-0.186
		c-0.057-0.804,0.021-1.545,0.108-2.133C9.806,31.512,9.804,31.406,9.769,31.406L9.769,31.406z M38.591,33.177
		c-0.062-0.003-0.129,0.006-0.198,0.04c-0.013,0-0.604,0.401-0.795,0.68c-0.117,0.089-0.104,0.165-0.068,0.32
		c0.092,0.208,0.251,0.143,0.433,0.044c0.24-0.033,0.357,0.125,0.337,0.414c-0.111,0.361,0.05,0.496,0.05,0.518
		c0,0.022,0.231,0.222,0.504,0.063c0.574-0.219,0.933-0.433,1.736-0.608c0.211-0.003,0.199-0.568-0.135-0.589
		c-0.436,0.022-0.838,0.044-1.273,0.388c-0.268,0.061-0.314-0.102-0.373-0.249c-0.067-0.362,0.153-0.619,0.108-0.891
		C38.928,33.319,38.779,33.187,38.591,33.177L38.591,33.177z M57.047,33.865c-0.106,0.003-0.221,0.019-0.383,0.032
		c-0.176,0.038-0.238,0.115-0.27,0.328c0.013,0.325,0.211,0.308,0.413,0.437c0.118,0.15,0.194,0.285-0.008,0.531
		c-0.193,0.176-0.331,0.273-0.522,0.45c-0.091,0.155-0.148,0.393,0.13,0.468c0.513,0.144,1.701-0.627,1.701-0.644
		c0.192-0.144,0.129-0.418,0.112-0.418c-0.112-0.127-0.365-0.051-0.535-0.071c-0.081,0-0.347-0.04-0.221-0.275
		c0.105-0.146,0.145-0.233,0.216-0.414c0.081-0.176,0.01-0.295-0.278-0.392C57.256,33.87,57.153,33.861,57.047,33.865L57.047,33.865
		z M49.337,49.475c-0.001,0.001-0.003,0.004-0.005,0.004c-0.854,0.22-0.827,1.105-0.278,1.494c-9.015,0-22.846-0.152-25.812-0.152
		c-1.661,0-6.911-0.197-7.012-0.197c1.126,1.646,2.757,1.981,4.892,2.016c4.003,0,22.553-0.05,27.832-0.05
		c-0.375,0.666,0.034,1.738,0.328,1.935c0.007,0.004,0.017,0.011,0.023,0.014c0.011,0.006,0.024,0.012,0.035,0.014
		c0.003,0.001,0.011,0,0.014,0c0.35,0.082,0.503-0.171,0.621-0.355c0.567,0.05,3.759,0.097,4.05-0.004
		c0.002-0.002,0.004-0.005,0.005-0.005c0.197,0.29,0.394,0.564,0.769,0.518c0.659-0.142,1.177-0.213,1.193-1.548
		c0,0-0.068-2.275-1.562-2.133c-0.353,0.053-1.345,0.152-1.345,0.152c-1.147-0.137-1.99-0.15-3.28-0.198
		c0.119-0.151,0.329-0.764,0.071-0.985c-0.066-0.057-0.166-0.087-0.306-0.076c-0.001,0-0.004,0-0.005,0s-0.007,0-0.008,0
		s-0.004-0.005-0.005-0.005c-0.004-0.001-0.011-0.002-0.014-0.005c-0.008-0.004-0.016-0.015-0.022-0.021
		c-0.001-0.003-0.007-0.008-0.01-0.01c-0.064-0.095-0.101-0.328-0.143-0.387c-0.001,0-0.005-0.004-0.005-0.005
		c-0.001,0-0.005-0.003-0.005-0.005c-0.001,0-0.007-0.003-0.009-0.003c0,0-0.004,0-0.005,0
		C49.341,49.476,49.337,49.475,49.337,49.475L49.337,49.475z M49.949,52.729c0.001-0.001,0.003,0,0.004,0
		c1.315,0.064,2.551,0.012,3.865,0.076c0.209,0.177,0.104,0.582-0.031,0.657c-0.006,0.003-0.016,0.007-0.022,0.009
		c-0.005,0.001-0.013,0-0.018,0s-0.013,0.001-0.018,0c-0.428-0.011-0.675-0.021-1.103-0.032c-0.002-0.021-0.004-0.043-0.01-0.062
		c-0.101-0.301-0.836-0.28-1.008-0.046c-0.002,0.003-0.007,0.011-0.01,0.014c-0.002,0.005-0.006,0.013-0.008,0.018
		c-0.004,0.006-0.007,0.017-0.01,0.022c-0.002,0.01-0.003,0.022-0.004,0.031c-0.002,0.012-0.006,0.025-0.005,0.037
		c-0.577,0.068-1.097-0.02-1.674-0.041C49.729,53.202,49.75,52.82,49.949,52.729L49.949,52.729z"/>
</g>
</svg>
