<?xml version="1.0" encoding="utf-8"?>
<!-- Generator: Adobe Illustrator 18.1.0, SVG Export Plug-In . SVG Version: 6.00 Build 0)  -->
<!DOCTYPE svg PUBLIC "-//W3C//DTD SVG 1.1//EN" "http://www.w3.org/Graphics/SVG/1.1/DTD/svg11.dtd">
<svg version="1.1" id="Layer_1" xmlns="http://www.w3.org/2000/svg" xmlns:xlink="http://www.w3.org/1999/xlink" x="0px" y="0px"
	 viewBox="0 0 2000 2000" xml:space="preserve">
<g id="Your_Icon" opacity="0.5">
	<path fill="#010101" d="M930,1570c1.7,1.7,3.3,3.3,6.7,5c1.7,1.7,1.7,1.7,3.3,3.3c0,0,1.7,0,1.7,1.7c16.7,11.7,36.7,20,60,20
		c21.7,0,43.3-6.7,60-20l1.7-1.7c1.7,0,1.7-1.7,3.3-1.7c1.7-1.7,5-3.3,6.7-5l441.7-445c38.3-38.3,38.3-101.7,0-141.7
		c-38.3-38.3-101.7-38.3-141.7,0L1100,1258.3V500c0-55-45-100-100-100c-55,0-100,45-100,100v758.3L626.7,985
		c-38.3-38.3-101.7-38.3-141.7,0s-38.3,101.7,0,141.7L930,1570L930,1570z"/>
	<path fill="#010101" d="M1000,0C448.3,0,0,448.3,0,1000s448.3,1000,1000,1000s1000-448.3,1000-1000S1551.7,0,1000,0z M1000,1800
		c-441.7,0-800-358.3-800-800c0-441.7,358.3-800,800-800c441.7,0,800,358.3,800,800S1441.7,1800,1000,1800z"/>
</g>
</svg>
