<?xml version="1.0" encoding="utf-8"?>
<!-- Generator: Adobe Illustrator 18.0.0, SVG Export Plug-In . SVG Version: 6.00 Build 0)  -->
<!DOCTYPE svg PUBLIC "-//W3C//DTD SVG 1.1//EN" "http://www.w3.org/Graphics/SVG/1.1/DTD/svg11.dtd">
<svg version="1.1" id="Layer_1" xmlns="http://www.w3.org/2000/svg" xmlns:xlink="http://www.w3.org/1999/xlink" x="0px" y="0px"
	 viewBox="0 0 100 90" xml:space="preserve">
<path fill="#010101" d="M2.9,39.2c-0.2,0.2-0.3,0.3-0.5,0.5c-0.1,0.1-0.1,0.2-0.2,0.3c0,0-0.1,0.1-0.1,0.1c-1,1.4-1.6,3.1-1.6,4.9
	c0,1.8,0.6,3.5,1.6,4.9c0,0.1,0.1,0.1,0.1,0.2c0.1,0.1,0.1,0.2,0.2,0.2c0.1,0.2,0.3,0.3,0.5,0.5l36.7,36.7c3.2,3.2,8.5,3.2,11.7,0
	c3.2-3.2,3.2-8.5,0-11.7L28.7,53.3l62.7,0c4.6,0,8.3-3.7,8.3-8.3s-3.7-8.3-8.3-8.3H28.7l22.6-22.6c3.2-3.2,3.2-8.5,0-11.7
	s-8.5-3.2-11.7,0L2.9,39.2C2.9,39.2,2.9,39.2,2.9,39.2z"/>
</svg>
