<?xml version="1.0" encoding="utf-8"?>
<!-- Generator: Adobe Illustrator 18.0.0, SVG Export Plug-In . SVG Version: 6.00 Build 0)  -->
<!DOCTYPE svg PUBLIC "-//W3C//DTD SVG 1.1//EN" "http://www.w3.org/Graphics/SVG/1.1/DTD/svg11.dtd">
<svg version="1.1" id="Layer_1" xmlns="http://www.w3.org/2000/svg" xmlns:xlink="http://www.w3.org/1999/xlink" x="0px" y="0px"
	 viewBox="0 0 120 120" xml:space="preserve">
<g id="Your_Icon" opacity="0.5">
	<path fill="#010101" d="M64.2,25.8c-0.1-0.1-0.2-0.2-0.4-0.3c-0.1-0.1-0.1-0.1-0.2-0.2c0,0-0.1,0-0.1-0.1c-1-0.7-2.2-1.2-3.6-1.2
		c-1.3,0-2.6,0.4-3.6,1.2l-0.1,0.1c-0.1,0-0.1,0.1-0.2,0.1c-0.1,0.1-0.3,0.2-0.4,0.3L29.1,52.4c-2.3,2.3-2.3,6.1,0,8.5
		c2.3,2.3,6.1,2.3,8.5,0L54,44.5V90c0,3.3,2.7,6,6,6s6-2.7,6-6V44.5l16.4,16.4c2.3,2.3,6.1,2.3,8.5,0s2.3-6.1,0-8.5L64.2,25.8
		L64.2,25.8z"/>
	<path fill="#010101" d="M60,120c33.1,0,60-26.9,60-60S93.1,0,60,0S0,26.9,0,60S26.9,120,60,120z M60,12c26.5,0,48,21.5,48,48
		s-21.5,48-48,48S12,86.5,12,60S33.5,12,60,12z"/>
</g>
</svg>
