<?xml version="1.0" encoding="UTF-8"?>
<svg width="52px" height="51px" viewBox="0 0 52 51" version="1.1" xmlns="http://www.w3.org/2000/svg" xmlns:xlink="http://www.w3.org/1999/xlink">
    <title>stackoverflow-lighticon-</title>
    <g id="Icons" stroke="none" stroke-width="1" fill="none" fill-rule="evenodd">
        <g id="stackoverflow-light" transform="translate(-6.000000, -7.000000)" fill="#000000" fill-rule="nonzero">
            <path d="M32.1826446,7 C46.4079752,7 57.9387603,18.4160312 57.9387603,32.5 C57.9387603,46.5839687 46.4079752,58 32.1826446,58 C17.957314,58 6.42652893,46.5839687 6.42652893,32.5 C6.42652893,18.4160312 17.957314,7 32.1826446,7 Z M19.2562397,34.55275 L19.2433471,48.16975 L40.7980992,48.16975 L40.7980992,34.6149062 L38.1825207,34.6149062 L38.1825207,45.5129687 L21.6526446,45.5129687 L21.7380579,34.5750625 L19.2562397,34.55275 Z M36.2534711,41.017 L23.3061157,41.017 L23.3061157,43.7439062 L36.2534711,43.7439062 L36.2534711,41.017 Z M23.6083277,36.1075179 L23.3402452,38.8900964 L36.2970215,40.1383934 L36.565104,37.3558149 L23.6083277,36.1075179 Z M24.7924315,30.5485782 L24.0336236,33.2373734 L36.5608503,36.7726964 L37.3196583,34.0839011 L24.7924315,30.5485782 Z M27.8257636,24.2654202 L26.3818912,26.655307 L37.5242237,33.3870515 L38.9680962,30.9971648 L27.8257636,24.2654202 Z M34.159202,18.308005 L31.8880865,19.9351396 L39.4689851,30.5163768 L41.7401007,28.8892422 L34.159202,18.308005 Z M42.9609312,15.4534108 L40.2053631,15.9141157 L42.3518092,28.7524404 L45.1073773,28.2917356 L42.9609312,15.4534108 Z"></path>
        </g>
    </g>
</svg>