<?xml version="1.0" encoding="UTF-8"?>
<svg width="64px" height="64px" viewBox="0 0 64 64" version="1.1" xmlns="http://www.w3.org/2000/svg" xmlns:xlink="http://www.w3.org/1999/xlink">
    <title>icon-sharing-sharing-link</title>
    <g id="sharing-link" stroke="none" stroke-width="1" fill="none" fill-rule="evenodd">
        <path d="M32.7545041,7 C18.5291736,7 7,18.4160312 7,32.5 C7,46.5839687 18.5291736,58 32.7545041,58 C46.9798347,58 58.5106198,46.5839687 58.5106198,32.5 C58.5106198,18.4160312 46.9798347,7 32.7545041,7 Z" id="Shape-Copy" fill="#000000" fill-rule="nonzero"></path>
        <path d="M43.367043,24.8523492 L39.8435776,28.3759961 C39.3274392,28.8921612 38.5915192,29.0781397 37.8416765,28.9707296 L40.1986093,26.6136754 C40.9753032,25.8369415 40.9753032,24.5778568 40.1986093,23.8011229 C39.4229099,23.024389 38.1619011,23.024389 37.3862017,23.8011229 L35.0292688,26.1581772 C34.9218643,25.4082958 35.1078333,24.6733324 35.6239717,24.1561729 L39.1474371,20.6325259 C39.5730773,20.2068638 40.146896,20 40.7545272,20 C41.5292321,20 42.3596283,20.3361537 43.0120114,20.9875759 C44.174566,22.1511849 44.3346783,23.8846641 43.367043,24.8523492 M28.3757867,39.8495864 L24.8509571,43.371227 C24.410229,43.8105623 23.7894292,44.0312239 23.0969986,43.996435 C22.3269681,43.9546882 21.576835,43.6067982 20.9848865,43.0163792 C20.392938,42.4249662 20.044733,41.6755118 20.0039432,40.9061779 C19.967133,40.2163618 20.1889893,39.5941357 20.6297174,39.1538064 L24.154547,35.6321658 C24.5793571,35.206746 25.1543929,35 25.7622593,35 C25.8905977,35 26.0219208,35.0228613 26.1532438,35.0417468 L24.502752,36.6907453 C23.7257574,37.467037 23.7257574,38.7254047 24.502752,39.5016964 C24.8907519,39.8903392 25.4001261,40.0841636 25.9095003,40.0841636 C26.4188745,40.0841636 26.9282487,39.8903392 27.3162486,39.5016964 L28.9707198,37.848722 C29.0781659,38.5981764 28.892125,39.3337152 28.3757867,39.8495864 M45.7873489,18.2126378 C42.9857923,15.412634 38.5936083,15.247445 35.9952416,17.8463493 L32.3593753,21.481532 C30.2289609,23.6115459 29.9580411,26.9461053 31.4727288,29.6219609 L29.6245225,31.4708458 C26.9481636,29.9564428 23.6129772,30.2262857 21.4815366,32.3562996 L17.8466965,35.9914823 C15.2473035,38.5893605 15.4125235,42.9817447 18.2130539,45.7817485 C19.5409712,47.1094161 21.2680846,47.8932941 23.0762688,47.9897398 C23.2024928,47.9958959 23.3287167,48 23.4539145,48 C25.1984735,48 26.8034679,47.3505304 28.0051612,46.148037 L31.6410275,42.5128543 C33.7714419,40.3828404 34.0413355,37.0482811 32.5266477,34.3724254 L34.3779327,32.5214885 C35.501634,33.1576198 36.7402709,33.4838936 37.9594098,33.4838936 C39.64137,33.4838936 41.2833079,32.8734128 42.51784,31.6380868 L46.1537063,28.0029041 C48.752073,25.4050258 48.5878792,21.0126417 45.7873489,18.2126378" id="link-light" fill="#FFFFFF"></path>
    </g>
</svg>