<?xml version="1.0" encoding="UTF-8"?>
<svg width="53px" height="51px" viewBox="0 0 53 51" version="1.1" xmlns="http://www.w3.org/2000/svg" xmlns:xlink="http://www.w3.org/1999/xlink">
    <title>pinterest-lighticon-</title>
    <g id="Icons" stroke="none" stroke-width="1" fill="none" fill-rule="evenodd">
        <g id="pinterest-light" transform="translate(-6.000000, -7.000000)" fill="#000000" fill-rule="nonzero">
            <g transform="translate(6.428140, 7.000000)" id="Shape">
                <path d="M25.7545041,0 C11.5291736,0 -4.97379915e-14,11.4160312 -4.97379915e-14,25.5 C-4.97379915e-14,39.5839687 11.5291736,51 25.7545041,51 C39.9798347,51 51.5106198,39.5839687 51.5106198,25.5 C51.5106198,11.4160312 39.9798347,0 25.7545041,0 Z M25.7545041,47.0108437 C13.7547521,47.0108437 4.02892562,37.3814062 4.02892562,25.5 C4.02892562,13.6185937 13.7547521,3.98915625 25.7545041,3.98915625 C37.7542562,3.98915625 47.4816942,13.6185937 47.4816942,25.5 C47.4816942,37.3814062 37.7542562,47.0108437 25.7545041,47.0108437 Z"></path>
                <path d="M25.9930165,10.7402812 C16.965,10.7402812 12.4107025,17.142375 12.4107025,22.47825 C12.4107025,25.7071875 13.6532231,28.5823125 16.3042562,29.6549062 C16.7409917,29.8254375 17.1326033,29.6612812 17.2550826,29.1815625 C17.3404959,28.8516562 17.5548347,28.0197187 17.6402479,27.6754687 C17.7691736,27.2053125 17.7208264,27.04275 17.3695041,26.6299687 C16.5991736,25.7374687 16.1189256,24.582 16.1189256,22.9452187 C16.1189256,18.1974375 19.7078926,13.9469062 25.4692562,13.9469062 C30.5682645,13.9469062 33.3756198,17.0308125 33.3756198,21.1490625 C33.3756198,26.5662187 30.948595,31.1402812 27.3531818,31.1402812 C25.3661157,31.1402812 23.8786364,29.5130625 24.3556612,27.520875 C24.926157,25.1398125 26.0316942,22.573875 26.0316942,20.852625 C26.0316942,19.3146562 25.1969008,18.0316875 23.4692975,18.0316875 C21.438719,18.0316875 19.8094215,20.1115312 19.8094215,22.8942187 C19.8094215,24.6680625 20.4137603,25.8665625 20.4137603,25.8665625 C20.4137603,25.8665625 18.3332231,34.5811875 17.9706198,36.1048125 C17.2438017,39.1425 17.8610331,42.8655 17.9126033,43.2432187 C17.94,43.4679375 18.2316942,43.5205312 18.3654545,43.3515937 C18.5491736,43.1093437 20.9665289,40.1545312 21.794876,37.2045 C22.0253306,36.3677812 23.1276446,32.04075 23.1276446,32.04075 C23.7867769,33.283875 25.7158264,34.3851562 27.7689669,34.3851562 C33.8752066,34.3851562 38.0217769,28.8803437 38.0217769,21.50925 C38.0217769,15.931125 33.2434711,10.7402812 25.9930165,10.7402812 Z"></path>
            </g>
        </g>
    </g>
</svg>