<?xml version="1.0" encoding="UTF-8"?>
<svg width="46px" height="46px" viewBox="0 0 46 46" version="1.1" xmlns="http://www.w3.org/2000/svg" xmlns:xlink="http://www.w3.org/1999/xlink">
    <title>instagram-lighticon-</title>
    <g id="Icons" stroke="none" stroke-width="1" fill="none" fill-rule="evenodd">
        <g id="instagram-light" transform="translate(-9.000000, -9.000000)" fill="#000000" fill-rule="nonzero">
            <g transform="translate(9.000000, 9.000000)" id="Shape">
                <path d="M23,4.14575 C29.141,4.14575 29.8693333,4.16875 32.2958333,4.27991667 C38.5288333,4.56358333 41.44025,7.521 41.7239167,13.708 C41.8350833,16.1325833 41.8561667,16.8609167 41.8561667,23.0019167 C41.8561667,29.1448333 41.8331667,29.87125 41.7239167,32.2958333 C41.4383333,38.4770833 38.5345833,41.44025 32.2958333,41.7239167 C29.8693333,41.8350833 29.1448333,41.8580833 23,41.8580833 C16.859,41.8580833 16.1306667,41.8350833 13.7060833,41.7239167 C7.45775,41.4383333 4.56166667,38.4675 4.278,32.2939167 C4.16683333,29.8693333 4.14383333,29.1429167 4.14383333,23 C4.14383333,16.859 4.16875,16.1325833 4.278,13.7060833 C4.56358333,7.521 7.46733333,4.56166667 13.7060833,4.278 C16.1325833,4.16875 16.859,4.14575 23,4.14575 L23,4.14575 Z M23,0 C16.7535833,0 15.9715833,0.0268333333 13.51825,0.138 C5.16541667,0.521333333 0.52325,5.15583333 0.139916667,13.5163333 C0.0268333333,15.9715833 0,16.7535833 0,23 C0,29.2464167 0.0268333333,30.0303333 0.138,32.4836667 C0.521333333,40.8365 5.15583333,45.4786667 13.5163333,45.862 C15.9715833,45.9731667 16.7535833,46 23,46 C29.2464167,46 30.0303333,45.9731667 32.4836667,45.862 C40.8288333,45.4786667 45.4825,40.8441667 45.8600833,32.4836667 C45.9731667,30.0303333 46,29.2464167 46,23 C46,16.7535833 45.9731667,15.9715833 45.862,13.51825 C45.4863333,5.17308333 40.8460833,0.52325 32.4855833,0.139916667 C30.0303333,0.0268333333 29.2464167,0 23,0 Z M23,11.1895 C16.4775833,11.1895 11.1895,16.4775833 11.1895,23 C11.1895,29.5224167 16.4775833,34.8124167 23,34.8124167 C29.5224167,34.8124167 34.8105,29.5243333 34.8105,23 C34.8105,16.4775833 29.5224167,11.1895 23,11.1895 Z M23,30.6666667 C18.7660833,30.6666667 15.3333333,27.2358333 15.3333333,23 C15.3333333,18.7660833 18.7660833,15.3333333 23,15.3333333 C27.2339167,15.3333333 30.6666667,18.7660833 30.6666667,23 C30.6666667,27.2358333 27.2339167,30.6666667 23,30.6666667 Z M35.2781667,7.96375 C33.7525,7.96375 32.51625,9.2 32.51625,10.72375 C32.51625,12.2475 33.7525,13.48375 35.2781667,13.48375 C36.8019167,13.48375 38.03625,12.2475 38.03625,10.72375 C38.03625,9.2 36.8019167,7.96375 35.2781667,7.96375 Z"></path>
            </g>
        </g>
    </g>
</svg>