<?xml version="1.0" encoding="UTF-8"?>
<svg width="64px" height="64px" viewBox="0 0 64 64" version="1.1" xmlns="http://www.w3.org/2000/svg" xmlns:xlink="http://www.w3.org/1999/xlink">
    <title>icon-sharing-sharing-facebook</title>
    <g id="sharing-facebook" stroke="none" stroke-width="1" fill="none" fill-rule="evenodd">
        <path d="M33.7545041,7 C19.5291736,7 8,18.4160312 8,32.5 C8,46.5839687 19.5291736,58 33.7545041,58 C47.9798347,58 59.5106198,46.5839687 59.5106198,32.5 C59.5106198,18.4160312 47.9798347,7 33.7545041,7 Z" id="Shape-Copy" fill="#000000" fill-rule="nonzero"></path>
        <g id="iconmonstr-facebook-1" transform="translate(25.000000, 17.000000)" fill="#FFFFFF" fill-rule="nonzero">
            <path d="M4,10.3333333 L0,10.3333333 L0,15.5 L4,15.5 L4,31 L10.6666667,31 L10.6666667,15.5 L15.5226667,15.5 L16,10.3333333 L10.6666667,10.3333333 L10.6666667,8.180125 C10.6666667,6.94658333 10.9226667,6.45833333 12.1533333,6.45833333 L16,6.45833333 L16,0 L10.9226667,0 C6.128,0 4,2.04470833 4,5.96104167 L4,10.3333333 Z" id="Path"></path>
        </g>
    </g>
</svg>