<?xml version="1.0" encoding="UTF-8"?>
<svg width="64px" height="64px" viewBox="0 0 64 64" version="1.1" xmlns="http://www.w3.org/2000/svg" xmlns:xlink="http://www.w3.org/1999/xlink">
    <title>icon-sharing-link</title>
    <g id="sharing-link" stroke="none" stroke-width="1" fill="none" fill-rule="evenodd">
        <path d="M32.7545041,7 C46.9798347,7 58.5106198,18.4160312 58.5106198,32.5 C58.5106198,46.5839687 46.9798347,58 32.7545041,58 C18.5291736,58 7,46.5839687 7,32.5 C7,18.4160312 18.5291736,7 32.7545041,7 Z M45.7873489,18.2126378 C42.9857923,15.412634 38.5936083,15.247445 35.9952416,17.8463493 L35.9952416,17.8463493 L32.3593753,21.481532 L32.1708218,21.6784361 C30.2141811,23.8130356 30.0039407,27.0271918 31.4727288,29.6219609 L31.4727288,29.6219609 L29.6245225,31.4708458 L29.379454,31.3380902 C26.7471365,29.9745051 23.5483881,30.2908315 21.4815366,32.3562996 L21.4815366,32.3562996 L17.8466965,35.9914823 L17.6737477,36.1713513 C15.2561747,38.7881918 15.476172,43.0453811 18.2130539,45.7817485 C19.5409712,47.1094161 21.2680846,47.8932941 23.0762688,47.9897398 C23.2024928,47.9958959 23.3287167,48 23.4539145,48 C25.1984735,48 26.8034679,47.3505304 28.0051612,46.148037 L28.0051612,46.148037 L31.6410275,42.5128543 L31.8295782,42.3159502 C33.7861604,40.1813508 33.9954358,36.9671945 32.5266477,34.3724254 L32.5266477,34.3724254 L34.3779327,32.5214885 L34.6611747,32.6740565 C35.7079381,33.209733 36.8418658,33.4838936 37.9594098,33.4838936 C39.64137,33.4838936 41.2833079,32.8734128 42.51784,31.6380868 L42.51784,31.6380868 L46.1537063,28.0029041 L46.3265883,27.823035 C48.7432479,25.2061945 48.5242308,20.9490052 45.7873489,18.2126378 Z M25.7622593,35 C25.8905977,35 26.0219208,35.0228613 26.1532438,35.0417468 L26.1532438,35.0417468 L24.502752,36.6907453 L24.3865257,36.8171833 C23.7279098,37.5981613 23.7666519,38.7662622 24.502752,39.5016964 C24.8907519,39.8903392 25.4001261,40.0841636 25.9095003,40.0841636 C26.4188745,40.0841636 26.9282487,39.8903392 27.3162486,39.5016964 L27.3162486,39.5016964 L28.9707198,37.848722 L28.9914457,38.0356766 C29.0448654,38.7192407 28.8490968,39.3767045 28.3757867,39.8495864 L28.3757867,39.8495864 L24.8509571,43.371227 L24.7134449,43.4964306 C24.2853527,43.8521401 23.7201861,44.027745 23.0969986,43.996435 C22.3269681,43.9546882 21.576835,43.6067982 20.9848865,43.0163792 C20.392938,42.4249662 20.044733,41.6755118 20.0039432,40.9061779 C19.967133,40.2163618 20.1889893,39.5941357 20.6297174,39.1538064 L20.6297174,39.1538064 L24.154547,35.6321658 L24.3015533,35.4984419 C24.7075482,35.1633549 25.2219336,35 25.7622593,35 Z M40.7545272,20 C41.5292321,20 42.3596283,20.3361537 43.0120114,20.9875759 C44.174566,22.1511849 44.3346783,23.8846641 43.367043,24.8523492 L43.367043,24.8523492 L39.8435776,28.3759961 L39.7100834,28.4981798 C39.2046892,28.9211202 38.5290323,29.0691889 37.8416765,28.9707296 L37.8416765,28.9707296 L40.1986093,26.6136754 L40.3147906,26.4871654 C40.9731517,25.7057424 40.9344246,24.5369761 40.1986093,23.8011229 C39.4229099,23.024389 38.1619011,23.024389 37.3862017,23.8011229 L37.3862017,23.8011229 L35.0292688,26.1581772 L35.008551,25.971135 C34.955152,25.2873144 35.1508448,24.6302358 35.6239717,24.1561729 L35.6239717,24.1561729 L39.1474371,20.6325259 L39.2946484,20.4987258 C39.70101,20.163448 40.2144106,20 40.7545272,20 Z" id="Combined-Shape" fill="#000000" fill-rule="nonzero"></path>
    </g>
</svg>