<?xml version="1.0" encoding="UTF-8"?>
<svg width="64px" height="64px" viewBox="0 0 64 64" version="1.1" xmlns="http://www.w3.org/2000/svg" xmlns:xlink="http://www.w3.org/1999/xlink">
    <title>icon-sharing-sharing-twitter</title>
    <g id="sharing-twitter" stroke="none" stroke-width="1" fill="none" fill-rule="evenodd">
        <g id="twitter-light" transform="translate(7.000000, 7.000000)" fill-rule="nonzero">
            <path d="M25.7545041,0 C11.5291736,0 -4.97379915e-14,11.4160312 -4.97379915e-14,25.5 C-4.97379915e-14,39.5839687 11.5291736,51 25.7545041,51 C39.9798347,51 51.5106198,39.5839687 51.5106198,25.5 C51.5106198,11.4160312 39.9798347,0 25.7545041,0 Z" id="Shape-Copy" fill="#000000"></path>
            <g id="iconmonstr-twitter-1" transform="translate(12.000000, 13.000000)" fill="#FFFFFF">
                <path d="M30,2.9596493 C28.89625,3.46211034 27.71,3.80050246 26.465,3.95303527 C27.73625,3.17242617 28.7125,1.93550041 29.17125,0.461443806 C27.9825,1.18437244 26.665,1.70990566 25.2625,1.99318089 C24.14125,0.766509434 22.54,0 20.77,0 C16.79625,0 13.87625,3.80178425 14.77375,7.74841058 C9.66,7.48564397 5.125,4.9733388 2.08875,1.1548913 C0.47625,3.99148893 1.2525,7.7022662 3.9925,9.58136792 C2.985,9.54804143 2.035,9.2647662 1.20625,8.7917863 C1.13875,11.7155455 3.1825,14.4508819 6.1425,15.0597313 C5.27625,15.3007075 4.3275,15.3571062 3.3625,15.1674016 C4.145,17.6745796 6.4175,19.4985644 9.1125,19.5498359 C6.525,21.6301784 3.265,22.559475 0,22.1646842 C2.72375,23.9553425 5.96,25 9.435,25 C20.8625,25 27.31875,15.1033121 26.92875,6.22692781 C28.13125,5.33608491 29.175,4.22477441 30,2.9596493 Z" id="Path"></path>
            </g>
        </g>
    </g>
</svg>