<?xml version="1.0" encoding="UTF-8"?>
<svg width="64px" height="64px" viewBox="0 0 64 64" version="1.1" xmlns="http://www.w3.org/2000/svg" xmlns:xlink="http://www.w3.org/1999/xlink">
    <title>icon-sharing-twitter</title>
    <g id="sharing-twitter" stroke="none" stroke-width="1" fill="none" fill-rule="evenodd">
        <path d="M32.7545041,7 C46.9798347,7 58.5106198,18.4160312 58.5106198,32.5 C58.5106198,46.5839687 46.9798347,58 32.7545041,58 C18.5291736,58 7,46.5839687 7,32.5 C7,18.4160312 18.5291736,7 32.7545041,7 Z M39.77,20 C35.79625,20 32.87625,23.8017842 33.77375,27.7484106 C28.66,27.485644 24.125,24.9733388 21.08875,21.1548913 C19.47625,23.9914889 20.2525,27.7022662 22.9925,29.5813679 C21.985,29.5480414 21.035,29.2647662 20.20625,28.7917863 C20.13875,31.7155455 22.1825,34.4508819 25.1425,35.0597313 C24.27625,35.3007075 23.3275,35.3571062 22.3625,35.1674016 C23.145,37.6745796 25.4175,39.4985644 28.1125,39.5498359 C25.525,41.6301784 22.265,42.559475 19,42.1646842 C21.72375,43.9553425 24.96,45 28.435,45 C39.8625,45 46.31875,35.1033121 45.92875,26.2269278 C47.13125,25.3360849 48.175,24.2247744 49,22.9596493 C47.89625,23.4621103 46.71,23.8005025 45.465,23.9530353 C46.73625,23.1724262 47.7125,21.9355004 48.17125,20.4614438 C46.9825,21.1843724 45.665,21.7099057 44.2625,21.9931809 C43.14125,20.7665094 41.54,20 39.77,20 Z" id="Combined-Shape" fill="#000000" fill-rule="nonzero"></path>
    </g>
</svg>