<?xml version="1.0" encoding="UTF-8"?>
<svg width="51px" height="50px" viewBox="0 0 51 50" version="1.1" xmlns="http://www.w3.org/2000/svg" xmlns:xlink="http://www.w3.org/1999/xlink">
    <title>github-lighticon-</title>
    <g id="Icons" stroke="none" stroke-width="1" fill="none" fill-rule="evenodd">
        <g id="github-light" transform="translate(-7.000000, -7.000000)" fill="#000000">
            <path d="M32.4976519,7 C18.4166488,7 7,18.4760513 7,32.633467 C7,43.9584555 14.3058412,53.5651047 24.438841,56.9561496 C25.7146628,57.1906116 26.1795942,56.3991056 26.1795942,55.719323 C26.1795942,55.1119247 26.1576783,53.4990147 26.1451549,51.3605321 C19.0522115,52.9089257 17.5556647,47.9238537 17.5556647,47.9238537 C16.3956843,44.9639672 14.7238098,44.1740347 14.7238098,44.1740347 C12.4085454,42.5847282 14.8991375,42.6161996 14.8991375,42.6161996 C17.4586083,42.7971603 18.8048743,45.2582249 18.8048743,45.2582249 C21.0794377,49.1748424 24.773842,48.0434451 26.226557,47.3888396 C26.45824,45.7318697 27.1157187,44.6020459 27.845207,43.9616026 C22.1830627,43.314865 16.2297492,41.1150132 16.2297492,31.2927848 C16.2297492,28.494976 17.2237945,26.2070042 18.8549679,24.4147071 C18.5919764,23.766396 17.7169035,21.1605629 19.1038706,17.6310438 C19.1038706,17.6310438 21.2453728,16.9418198 26.1169772,20.2589069 C28.150465,19.6892743 30.3326683,19.4060315 32.5007827,19.3965901 C34.6657663,19.4060315 36.8479696,19.6892743 38.8845882,20.2589069 C43.7530618,16.9418198 45.8898677,17.6310438 45.8898677,17.6310438 C47.281531,21.1605629 46.4064581,23.766396 46.1434667,24.4147071 C47.777771,26.2070042 48.7655545,28.494976 48.7655545,31.2927848 C48.7655545,41.1401903 42.8028485,43.3069972 37.121919,43.9411462 C38.037693,44.7326523 38.8532797,46.2967816 38.8532797,48.688609 C38.8532797,52.1142725 38.8219712,54.8790363 38.8219712,55.719323 C38.8219712,56.4053999 39.2806409,57.2032002 40.5752479,56.9530025 C50.7004205,53.5556633 58,43.9553083 58,32.633467 C58,18.4760513 46.5817858,7 32.4976519,7"></path>
        </g>
    </g>
</svg>