<?xml version="1.0" encoding="UTF-8"?>
<svg width="64px" height="64px" viewBox="0 0 64 64" version="1.1" xmlns="http://www.w3.org/2000/svg" xmlns:xlink="http://www.w3.org/1999/xlink">
    <title>icon-sharing-linkedin</title>
    <g id="sharing-linkedin" stroke="none" stroke-width="1" fill="none" fill-rule="evenodd">
        <path d="M32.1826446,7 C46.4079752,7 57.9387603,18.4160312 57.9387603,32.5 C57.9387603,46.5839687 46.4079752,58 32.1826446,58 C17.957314,58 6.42652893,46.5839687 6.42652893,32.5 C6.42652893,18.4160312 17.957314,7 32.1826446,7 Z M22.6808264,26.5760312 C20.7227686,26.5760312 20.1716116,27.7330937 20.1716116,29.0590937 L20.1716116,42.7653437 C20.1716116,44.0913437 20.7227686,45.25 22.6808264,45.25 C24.643719,45.25 25.194876,44.0913437 25.194876,42.7653437 L25.194876,29.0590937 C25.194876,27.7330937 24.643719,26.5760312 22.6808264,26.5760312 Z M39.3154545,26.5728437 C36.4613636,26.5728437 34.6386777,27.865375 33.2317769,29.701375 L33.1624793,29.701375 L33.1624793,29.0575 C33.1624793,27.5609687 32.4727273,26.5744375 30.8966116,26.5744375 C29.3172727,26.5744375 28.6275207,27.559375 28.6275207,29.0575 L28.6275207,42.76375 L28.622686,42.76375 L28.6162397,42.7653437 C28.6162397,44.0913437 29.1673967,45.25 31.1270661,45.25 C33.0883471,45.25 33.6395041,44.0913437 33.6395041,42.7653437 L33.6395041,34.571875 C33.6395041,32.0888125 35.7007025,30.6608125 37.4540909,30.6608125 C39.6216529,30.6608125 40.6176033,32.0888125 40.6176033,34.0953437 L40.6176033,42.7621562 C40.6176033,44.0881562 41.1703719,45.2468125 43.1284298,45.2468125 C45.0913223,45.2468125 45.6424793,44.0881562 45.6424793,42.7621562 L45.6424793,33.1008437 C45.6424793,28.069375 42.3403719,26.5728437 39.3154545,26.5728437 Z M22.6792149,19.75 C21.2368595,19.75 20.0668595,20.9070625 20.0668595,22.3334687 C20.0668595,23.7614687 21.2368595,24.9169375 22.6792149,24.9169375 C24.1231818,24.9169375 25.294795,23.7614687 25.294795,22.3334687 C25.296405,20.9070625 24.1247934,19.75 22.6792149,19.75 Z" id="linkedin-light" fill="#000000" fill-rule="nonzero"></path>
    </g>
</svg>