<?xml version="1.0" encoding="UTF-8"?>
<svg width="46px" height="46px" viewBox="0 0 46 46" version="1.1" xmlns="http://www.w3.org/2000/svg" xmlns:xlink="http://www.w3.org/1999/xlink">
    <title>instagram-darkicon-</title>
    <g id="Icons" stroke="none" stroke-width="1" fill="none" fill-rule="evenodd">
        <g id="instagram-dark" transform="translate(-9.000000, -9.000000)" fill="#FFFFFF" fill-rule="nonzero">
            <path d="M32,13.14575 C38.141,13.14575 38.8693333,13.16875 41.2958333,13.2799167 C47.5288333,13.5635833 50.44025,16.521 50.7239167,22.708 C50.8350833,25.1325833 50.8561667,25.8609167 50.8561667,32.0019167 C50.8561667,38.1448333 50.8331667,38.87125 50.7239167,41.2958333 C50.4383333,47.4770833 47.5345833,50.44025 41.2958333,50.7239167 C38.8693333,50.8350833 38.1448333,50.8580833 32,50.8580833 C25.859,50.8580833 25.1306667,50.8350833 22.7060833,50.7239167 C16.45775,50.4383333 13.5616667,47.4675 13.278,41.2939167 C13.1668333,38.8693333 13.1438333,38.1429167 13.1438333,32 C13.1438333,25.859 13.16875,25.1325833 13.278,22.7060833 C13.5635833,16.521 16.4673333,13.5616667 22.7060833,13.278 C25.1325833,13.16875 25.859,13.14575 32,13.14575 L32,13.14575 Z M32,9 C25.7535833,9 24.9715833,9.02683333 22.51825,9.138 C14.1654167,9.52133333 9.52325,14.1558333 9.13991667,22.5163333 C9.02683333,24.9715833 9,25.7535833 9,32 C9,38.2464167 9.02683333,39.0303333 9.138,41.4836667 C9.52133333,49.8365 14.1558333,54.4786667 22.5163333,54.862 C24.9715833,54.9731667 25.7535833,55 32,55 C38.2464167,55 39.0303333,54.9731667 41.4836667,54.862 C49.8288333,54.4786667 54.4825,49.8441667 54.8600833,41.4836667 C54.9731667,39.0303333 55,38.2464167 55,32 C55,25.7535833 54.9731667,24.9715833 54.862,22.51825 C54.4863333,14.1730833 49.8460833,9.52325 41.4855833,9.13991667 C39.0303333,9.02683333 38.2464167,9 32,9 Z M32,20.1895 C25.4775833,20.1895 20.1895,25.4775833 20.1895,32 C20.1895,38.5224167 25.4775833,43.8124167 32,43.8124167 C38.5224167,43.8124167 43.8105,38.5243333 43.8105,32 C43.8105,25.4775833 38.5224167,20.1895 32,20.1895 Z M32,39.6666667 C27.7660833,39.6666667 24.3333333,36.2358333 24.3333333,32 C24.3333333,27.7660833 27.7660833,24.3333333 32,24.3333333 C36.2339167,24.3333333 39.6666667,27.7660833 39.6666667,32 C39.6666667,36.2358333 36.2339167,39.6666667 32,39.6666667 Z M44.2781667,16.96375 C42.7525,16.96375 41.51625,18.2 41.51625,19.72375 C41.51625,21.2475 42.7525,22.48375 44.2781667,22.48375 C45.8019167,22.48375 47.03625,21.2475 47.03625,19.72375 C47.03625,18.2 45.8019167,16.96375 44.2781667,16.96375 Z"></path>
        </g>
    </g>
</svg>