<?xml version="1.0" encoding="UTF-8"?>
<svg width="42px" height="42px" viewBox="0 0 42 42" version="1.1" xmlns="http://www.w3.org/2000/svg" xmlns:xlink="http://www.w3.org/1999/xlink">
    <title>link-lighticon-</title>
    <g id="Icons" stroke="none" stroke-width="1" fill="none" fill-rule="evenodd">
        <g id="link-light" transform="translate(-10.000000, -11.000000)" fill="#000000">
            <path d="M45.7677,22.9454883 L40.9956255,27.7166656 C40.2965833,28.4155764 39.2998757,28.6673998 38.2843114,28.5219617 L41.4764696,25.3304036 C42.5284003,24.2786708 42.5284003,22.5738132 41.4764696,21.5220804 C40.4258859,20.4703475 38.7180139,20.4703475 37.6674302,21.5220804 L34.475272,24.7136384 C34.3298066,23.6982651 34.5816773,22.7030915 35.2807195,22.002834 L40.052794,17.2316567 C40.6292682,16.655291 41.4064307,16.375188 42.229388,16.375188 C43.2786248,16.375188 44.4032881,16.8303554 45.286856,17.7124104 C46.8613846,19.2879897 47.0782359,21.6351989 45.7677,22.9454883 M26.7198091,41.989798 L21.9477346,46.7609753 C21.3510569,47.3561942 20.51059,47.6551502 19.573146,47.6080175 C18.5306437,47.5514583 17.5150795,47.0801311 16.7136727,46.2802216 C15.9122659,45.4789655 15.4408501,44.4635922 15.3856271,43.4212859 C15.3357917,42.4867115 15.6361509,41.6437092 16.2328286,41.0471438 L21.0049031,36.2759665 C21.5800303,35.6996007 22.3585398,35.4194977 23.181497,35.4194977 C23.3552474,35.4194977 23.5330385,35.4504706 23.7108296,35.476057 L21.4763189,37.7101476 C20.4243882,38.7618805 20.4243882,40.466738 21.4763189,41.5184709 C22.0016107,42.0450106 22.6912246,42.3076072 23.3808386,42.3076072 C24.0704525,42.3076072 24.7600664,42.0450106 25.2853583,41.5184709 L27.5252566,39.2789937 C27.6707221,40.294367 27.4188514,41.2908872 26.7198091,41.989798 M49.0958954,13.9040871 C45.4188524,10.2290821 39.654111,10.0122716 36.2437546,13.4233335 L31.4716801,18.1945108 C28.6755111,20.990154 28.3199289,25.3667632 30.3079566,28.8788237 L27.8821857,31.3054851 C24.3694648,29.3178312 19.9920326,29.6719999 17.1945168,32.4676432 L12.4237892,37.2388205 C9.01208589,40.6485357 9.22893714,46.4135399 12.9046332,50.0885449 C14.6475247,51.8311087 16.9143611,52.8599485 19.2876028,52.9865335 C19.4532717,52.9946134 19.6189407,53 19.7832628,53 C22.0729965,53 24.1795516,52.1475712 25.756774,50.5692986 L30.5288485,45.7981213 C33.3250175,43.0024781 33.6792528,38.6258689 31.6912251,35.1138084 L34.1210367,32.6844537 C35.5958946,33.519376 37.2216056,33.9476104 38.8217254,33.9476104 C41.0292981,33.9476104 43.1843416,33.1463543 44.804665,31.5249889 L49.5767395,26.7538116 C52.9870958,23.3440964 52.7715915,17.5790922 49.0958954,13.9040871"></path>
        </g>
    </g>
</svg>