<?xml version="1.0" encoding="UTF-8"?>
<svg width="50px" height="57px" viewBox="0 0 50 57" version="1.1" xmlns="http://www.w3.org/2000/svg" xmlns:xlink="http://www.w3.org/1999/xlink">
    <title>zalla-io-lighticon-</title>
    <g id="Icons" stroke="none" stroke-width="1" fill="none" fill-rule="evenodd">
        <g id="zalla-io-light" transform="translate(-8.000000, -2.000000)" fill="#000000" fill-rule="nonzero">
            <path d="M33.0146465,2 L52.7126263,13.1472318 C55.6828283,14.8230292 58,19.0020968 58,22.4304885 L58,22.4304885 L58,38.4586393 C58,41.8895739 55.690404,46.0767789 52.7257576,47.7612224 L52.7257576,47.7612224 L33.0863636,59 L13.3545455,47.8548026 C10.3828283,46.1769708 8,41.9999375 8,38.5690029 L8,22.5423779 C8,19.1124604 10.3494949,14.9267812 13.3146465,13.2403034 L33.0146465,2 Z M30.3090909,26.4290074 L13.5,35.848 L13.5,38.5690029 C13.5,40.0456397 14.8401727,42.3775059 16.059468,43.0659202 L33.0686215,52.6732647 L50.0087238,42.9792011 C51.1925841,42.3065591 52.5,39.980987 52.5,38.4586393 L52.5,32.512 L30.3090909,44.9939951 L30.3090909,26.4290074 Z M33.0258029,8.3259335 L16.0338098,18.0211141 C14.8278486,18.707024 13.5,21.0438408 13.5,22.5423779 L13.5,29.639 L35.6848485,17.1803346 L35.6848485,35.7437966 C35.6848485,35.7437966 46.4217756,29.4891567 52.501094,25.9476414 L52.5,22.4304885 C52.5,20.9186494 51.1929959,18.6048604 50.0099941,17.9374071 L33.0258029,8.3259335 Z"></path>
        </g>
    </g>
</svg>