<?xml version="1.0" encoding="utf-8"?>
<!-- Generator: Adobe Illustrator 18.1.0, SVG Export Plug-In . SVG Version: 6.00 Build 0)  -->
<!DOCTYPE svg PUBLIC "-//W3C//DTD SVG 1.1//EN" "http://www.w3.org/Graphics/SVG/1.1/DTD/svg11.dtd">
<svg version="1.1" id="Layer_1" xmlns="http://www.w3.org/2000/svg" xmlns:xlink="http://www.w3.org/1999/xlink" x="0px" y="0px"
	 viewBox="192 244 128 24" enable-background="new 192 244 128 24" xml:space="preserve">
<g>
	<path fill="#FFFFFF" d="M203.5,259.9h1.9v2h-2.2l-0.6,4.7h-2.3l0.6-4.7h-4.5l-0.6,4.7h-2.3l0.6-4.7h-1.8v-2h2.2l0.8-6.3h-1.9v-2
		h2.2l0.6-4.3h2.3l-0.6,4.3h4.5l0.6-4.3h2.3l-0.6,4.3h1.9v2h-2.2L203.5,259.9z M197.6,253.7l-0.8,6.3h4.5l0.8-6.3L197.6,253.7
		L197.6,253.7z"/>
	<path fill="#FFFFFF" d="M221.2,252.2c0.7,0.8,1.2,1.9,1.2,3.4v11h-2.6V256c0-1.1-0.2-1.8-0.6-2.3c-0.4-0.5-1-0.7-1.8-0.7
		s-1.4,0.2-2.2,0.7c-0.6,0.5-1.2,1.1-1.7,1.9v10.8h-2.6v-21.3l2.6-0.2v8.5c1.2-1.7,2.6-2.4,4.5-2.4
		C219.4,251,220.5,251.4,221.2,252.2z"/>
	<path fill="#FFFFFF" d="M236.6,264.4c0.2,0.2,0.5,0.5,1,0.7l-0.6,1.8c-0.8-0.1-1.4-0.4-1.9-0.7c-0.5-0.4-0.8-0.8-1.1-1.6
		c-1,1.6-2.5,2.3-4.6,2.3c-1.4,0-2.6-0.5-3.6-1.3c-0.8-0.8-1.3-1.9-1.3-3.4c0-1.6,0.6-2.9,1.8-3.7c1.2-0.8,2.8-1.3,4.9-1.3h2.3v-1.1
		c0-1.1-0.2-1.8-0.7-2.3c-0.5-0.5-1.3-0.7-2.4-0.7c-1.1,0-2.5,0.2-4.1,0.8l-0.7-1.9c1.9-0.7,3.6-1.1,5.3-1.1c1.8,0,3.1,0.5,4,1.3
		c0.8,0.8,1.3,2.2,1.3,3.7v7C236.3,263.7,236.4,264.2,236.6,264.4z M233.6,262.6v-3.5h-1.9c-2.8,0-4.2,1.1-4.2,3.1
		c0,1,0.2,1.6,0.7,2c0.5,0.5,1.1,0.7,1.9,0.7C231.6,265,232.8,264.2,233.6,262.6z"/>
	<path fill="#FFFFFF" d="M248.7,251.4c0.7,0.2,1.4,0.7,2.2,1.2l-1.3,1.7c-0.5-0.4-1.1-0.7-1.6-0.8c-0.5-0.1-1.1-0.2-1.7-0.2
		c-1.2,0-2.2,0.5-2.9,1.4c-0.7,0.9-1.1,2.4-1.1,4.3c0,1.9,0.4,3.4,1,4.2c0.6,0.8,1.7,1.3,2.9,1.3c0.6,0,1.2-0.1,1.7-0.2
		c0.5-0.2,1.1-0.5,1.6-1l1.3,1.8c-1.4,1.1-2.9,1.7-4.7,1.7c-2,0-3.7-0.7-4.8-2c-1.2-1.4-1.8-3.3-1.8-5.8c0-1.6,0.2-3,0.8-4.2
		c0.5-1.2,1.3-2.2,2.3-2.9s2.2-1,3.5-1C247.1,251,247.9,251.1,248.7,251.4z"/>
	<path fill="#FFFFFF" d="M253.4,266.6v-21.3l2.6-0.4v21.7H253.4z M265.4,266.6h-3.1l-6-8.3l5.7-6.9h3l-5.7,6.7L265.4,266.6z"/>
	<path fill="#FFFFFF" d="M282.3,248.9c1.6,1.8,2.4,4.5,2.4,7.7c0,2.2-0.4,4.1-1.1,5.7c-0.7,1.6-1.8,2.8-3.1,3.6s-3,1.2-4.8,1.2
		s-3.5-0.4-4.8-1.2s-2.4-2-3.1-3.6c-0.7-1.6-1.1-3.5-1.1-5.7s0.4-4,1.1-5.7c0.7-1.6,1.8-2.8,3.1-3.6c1.3-0.8,3-1.2,4.8-1.2
		C278.4,246.1,280.6,247.1,282.3,248.9z M272.5,251.3c-0.7,1.1-1,2.9-1,5.4c0,2.4,0.4,4.2,1,5.4c0.7,1.1,1.7,1.7,3,1.7
		c1.4,0,2.4-0.6,3.1-1.7c0.7-1.1,1-2.9,1-5.4c0-2.5-0.4-4.3-1-5.4c-0.7-1.1-1.7-1.7-3-1.7C274.3,249.6,273.2,250.1,272.5,251.3z"/>
	<path fill="#FFFFFF" d="M295.9,250.2v16.4h-4.7v-16.4H286v-3.6h15.3l-0.5,3.6H295.9L295.9,250.2z"/>
	<path fill="#FFFFFF" d="M308.6,259v7.7h-4.7v-20h6.5c2.8,0,4.8,0.5,6.1,1.4c1.3,1,2,2.5,2,4.6c0,1.3-0.4,2.4-1,3.3
		c-0.6,0.9-1.6,1.6-2.9,2.2l5.1,8.5h-5.3l-4.1-7.7H308.6z M310.5,255.7c1.1,0,1.8-0.2,2.4-0.7c0.5-0.5,0.8-1.2,0.8-2.3
		c0-1-0.2-1.7-0.8-2.2s-1.4-0.7-2.6-0.7h-1.7v5.8L310.5,255.7L310.5,255.7L310.5,255.7z"/>
</g>
</svg>
