<?xml version="1.0" encoding="utf-8"?>
<!-- Generator: Adobe Illustrator 15.1.0, SVG Export Plug-In . SVG Version: 6.00 Build 0)  -->
<!DOCTYPE svg PUBLIC "-//W3C//DTD SVG 1.1//EN" "http://www.w3.org/Graphics/SVG/1.1/DTD/svg11.dtd">
<svg version="1.1" xmlns="http://www.w3.org/2000/svg" xmlns:xlink="http://www.w3.org/1999/xlink" x="0px" y="0px" width="256px"
	 height="80.751px" viewBox="0 0 256 80.751" enable-background="new 0 0 256 80.751" xml:space="preserve">
<g id="Layer_1">
	<path fill="#F7F8F8" stroke="#666666" stroke-width="0.25" stroke-miterlimit="10" d="M11.788,32.994l-0.784-5.667H6.381
		l-0.697,5.667H1.718L6.077,2.22h4.928l4.751,30.774H11.788z M8.517,7.581L6.816,23.58h3.663L8.517,7.581z"/>
	<path fill="#F7F8F8" stroke="#666666" stroke-width="0.25" stroke-miterlimit="10" d="M18.281,32.994V2.221h4.054v26.981h6.711
		v3.793L18.281,32.994L18.281,32.994z"/>
	<path fill="#F7F8F8" stroke="#666666" stroke-width="0.25" stroke-miterlimit="10" d="M31.446,32.994V2.221h4.056v26.981h6.712
		v3.793L31.446,32.994L31.446,32.994z"/>
	<path fill="#F7F8F8" stroke="#666666" stroke-width="0.25" stroke-miterlimit="10" d="M57.207,6.011v8.937h5.887v3.749h-5.841
		v14.298h-4.099V2.221h10.549v3.791H57.207z"/>
	<path fill="#F7F8F8" stroke="#666666" stroke-width="0.25" stroke-miterlimit="10" d="M78.611,29.726
		c-1.309,3.617-5.319,3.571-6.235,3.571c-0.348,0-1.525,0-2.573-0.391c-0.827-0.306-2.657-1.35-3.311-3.749
		c-0.261-0.915-0.305-1.481-0.305-3.227V10.589c0-2.746,0-5.406,2.398-7.237c0.739-0.565,2.048-1.35,4.227-1.35
		c0.654,0,2.482,0,4.01,1.219c0.785,0.611,1.222,1.309,1.396,1.656c0.872,1.527,0.915,3.14,0.915,6.582v14.646
		C79.131,27.282,79.046,28.548,78.611,29.726z M75.08,10.24c0-1.874,0-3.052-0.478-3.793c-0.263-0.392-0.784-0.913-1.874-0.913
		c-0.219,0-0.917,0.042-1.483,0.435c-1.088,0.697-1.002,1.962-1.002,4.271v16.477c0,1.658,0.263,3.227,2.356,3.227
		c2.615,0,2.484-2.355,2.484-4.186V10.24H75.08z"/>
	<path fill="#F7F8F8" stroke="#666666" stroke-width="0.25" stroke-miterlimit="10" d="M91.862,32.994l-3.4-14.253h-1.35v14.253
		h-4.055V2.221h7.454c1.57,0,2.746,0.392,3.441,1.088c0.917,0.915,1.222,2.093,1.222,4.882v4.534c0,3.749-0.656,4.971-2.919,5.538
		l3.746,14.733L91.862,32.994L91.862,32.994z M91.122,8.759c0-0.871-0.045-1.481-0.09-1.786c-0.042-0.264-0.17-0.656-0.347-0.785
		c-0.219-0.175-0.612-0.263-1.308-0.263h-2.222v9.11h1.785c1.833,0,2.182-0.523,2.182-3.271V8.759L91.122,8.759z"/>
	<path fill="#F7F8F8" stroke="#666666" stroke-width="0.25" stroke-miterlimit="10" d="M119.846,29.726
		c-1.309,3.617-5.319,3.571-6.234,3.571c-0.35,0-1.527,0-2.573-0.391c-0.827-0.306-2.656-1.35-3.31-3.749
		c-0.265-0.915-0.308-1.481-0.308-3.227V10.589c0-2.746,0-5.406,2.398-7.237c0.74-0.565,2.048-1.35,4.229-1.35
		c0.655,0,2.484,0,4.008,1.219c0.786,0.611,1.224,1.309,1.396,1.656c0.872,1.527,0.916,3.14,0.916,6.582v14.646
		C120.367,27.282,120.282,28.548,119.846,29.726z M116.313,10.24c0-1.874,0-3.052-0.478-3.793c-0.265-0.392-0.787-0.913-1.876-0.913
		c-0.217,0-0.915,0.042-1.48,0.435c-1.088,0.697-1.002,1.962-1.002,4.271v16.477c0,1.658,0.262,3.227,2.355,3.227
		c2.614,0,2.482-2.355,2.482-4.186L116.313,10.24L116.313,10.24z"/>
	<path fill="#F7F8F8" stroke="#666666" stroke-width="0.25" stroke-miterlimit="10" d="M132.662,32.994l-4.924-22.58l0.348,22.58
		h-3.794V2.221h4.361l4.841,20.967l-0.176-20.967h3.834v30.774L132.662,32.994L132.662,32.994z"/>
	<path fill="#F7F8F8" stroke="#666666" stroke-width="0.25" stroke-miterlimit="10" d="M141.121,32.994V2.221h10.155v3.835h-6.062
		v9.023h5.408v3.837h-5.361v10.199h6.015v3.88L141.121,32.994L141.121,32.994z"/>
	<path fill="#F7F8F8" stroke="#666666" stroke-width="0.25" stroke-miterlimit="10" d="M11.787,73.972l-0.785-5.667H6.381
		l-0.697,5.667H1.718l4.359-30.773h4.925l4.753,30.773H11.787z M8.517,48.562l-1.7,15.997h3.662L8.517,48.562z"/>
	<path fill="#F7F8F8" stroke="#666666" stroke-width="0.25" stroke-miterlimit="10" d="M26.562,73.972l-4.925-22.579l0.347,22.579
		h-3.792V43.197h4.36l4.837,20.967l-0.175-20.967h3.837v30.774H26.562L26.562,73.972z"/>
	<path fill="#F7F8F8" stroke="#666666" stroke-width="0.25" stroke-miterlimit="10" d="M46.833,71.184
		c-0.655,2.962-3.228,2.788-4.142,2.788H34.89V43.197h7.455c0.39,0,2.179-0.13,3.4,0.917c1.264,1.088,1.308,2.57,1.308,4.054v20.488
		C47.049,69.919,46.963,70.617,46.833,71.184z M42.953,49.083c0-0.306,0-0.609-0.044-0.915c-0.175-1.263-1.262-1.221-1.613-1.221
		H38.94V70.18h2.705c0.915,0,1.307-0.26,1.307-1.698L42.953,49.083L42.953,49.083z"/>
	<path fill="#F7F8F8" stroke="#666666" stroke-width="0.25" stroke-miterlimit="10" d="M71.766,70.703
		c-1.308,3.619-5.316,3.573-6.232,3.573c-0.349,0-1.527,0-2.573-0.391c-0.827-0.306-2.659-1.354-3.312-3.75
		c-0.262-0.914-0.305-1.48-0.305-3.225V51.567c0-2.745,0-5.406,2.398-7.236c0.741-0.564,2.048-1.348,4.226-1.348
		c0.655,0,2.485,0,4.011,1.22c0.785,0.608,1.219,1.305,1.396,1.656c0.871,1.525,0.916,3.136,0.916,6.581v14.645
		C72.291,68.262,72.2,69.525,71.766,70.703z M68.234,51.22c0-1.874,0-3.052-0.477-3.795c-0.263-0.391-0.784-0.913-1.874-0.913
		c-0.217,0-0.915,0.04-1.481,0.435c-1.091,0.7-1.003,1.963-1.003,4.273v16.477c0,1.657,0.262,3.225,2.354,3.225
		c2.616,0,2.486-2.353,2.486-4.183V51.22H68.234z"/>
	<path fill="#F7F8F8" stroke="#666666" stroke-width="0.25" stroke-miterlimit="10" d="M84.582,73.972l-4.925-22.579l0.349,22.579
		h-3.793V43.197h4.358l4.837,20.967l-0.173-20.967h3.835v30.774H84.582L84.582,73.972z"/>
	<path fill="#F7F8F8" stroke="#666666" stroke-width="0.25" stroke-miterlimit="10" d="M93.039,73.972V43.197h10.156v3.836h-6.058
		v9.023h5.404v3.836h-5.363v10.201h6.016v3.878H93.039L93.039,73.972z"/>
	<path fill="#F7F8F8" stroke="#666666" stroke-width="0.25" stroke-miterlimit="10" d="M118.843,46.989v8.936h5.886v3.752h-5.841
		v14.295h-4.098V43.197h10.547v3.792H118.843z"/>
	<path fill="#F7F8F8" stroke="#666666" stroke-width="0.25" stroke-miterlimit="10" d="M140.247,70.703
		c-1.308,3.619-5.317,3.573-6.233,3.573c-0.35,0-1.528,0-2.572-0.391c-0.828-0.306-2.658-1.354-3.311-3.75
		c-0.264-0.914-0.308-1.48-0.308-3.225V51.567c0-2.745,0-5.406,2.399-7.236c0.739-0.564,2.046-1.348,4.227-1.348
		c0.654,0,2.485,0,4.01,1.22c0.785,0.608,1.221,1.305,1.396,1.656c0.872,1.525,0.916,3.136,0.916,6.581v14.645
		C140.771,68.262,140.684,69.525,140.247,70.703z M136.716,51.22c0-1.874,0-3.052-0.479-3.795c-0.261-0.391-0.785-0.913-1.872-0.913
		c-0.219,0-0.917,0.04-1.481,0.435c-1.091,0.7-1.002,1.963-1.002,4.273v16.477c0,1.657,0.261,3.225,2.354,3.225
		c2.615,0,2.482-2.353,2.482-4.183V51.22H136.716z"/>
	<path fill="#F7F8F8" stroke="#666666" stroke-width="0.25" stroke-miterlimit="10" d="M153.499,73.972L150.1,59.721h-1.351v14.251
		h-4.058V43.197h7.455c1.572,0,2.747,0.393,3.444,1.089c0.917,0.916,1.223,2.092,1.223,4.882v4.535c0,3.748-0.656,4.97-2.921,5.535
		l3.748,14.733H153.499z M152.759,49.739c0-0.872-0.042-1.484-0.086-1.789c-0.046-0.261-0.178-0.656-0.351-0.785
		c-0.219-0.177-0.61-0.261-1.31-0.261h-2.219v9.108h1.786c1.83,0,2.179-0.523,2.179-3.271V49.739L152.759,49.739z"/>
	<path fill="#F7F8F8" stroke="#666666" stroke-width="0.25" stroke-miterlimit="10" d="M177.689,73.972l-0.781-5.667h-4.62
		l-0.698,5.667h-3.966l4.357-30.773h4.927l4.751,30.773H177.689z M174.422,48.562l-1.7,15.997h3.663L174.422,48.562z"/>
	<path fill="#F7F8F8" stroke="#666666" stroke-width="0.25" stroke-miterlimit="10" d="M184.187,73.972V43.197h4.055V70.18h6.713
		v3.792H184.187L184.187,73.972z"/>
	<path fill="#F7F8F8" stroke="#666666" stroke-width="0.25" stroke-miterlimit="10" d="M197.354,73.972V43.197h4.05V70.18h6.716
		v3.792H197.354L197.354,73.972z"/>
	<g>
		<polygon fill="#D25E30" points="234.489,58.419 216.618,38.552 222.494,58.419 216.541,78.402 		"/>
		<polygon fill="#D03E30" points="216.541,78.402 234.489,58.419 222.494,58.419 		"/>
	</g>
</g>
<g id="Layer_2" display="none">
	<polygon display="inline" fill="#D03E30" points="218.104,42.982 227.767,58.432 227.767,58.523 218.104,73.972 222.338,73.972 
		232.001,58.523 232.001,58.432 222.338,42.982 	"/>
	<polygon display="inline" fill="#D03E30" points="224.75,42.982 234.412,58.432 234.412,58.523 224.75,73.972 228.984,73.972 
		238.648,58.523 238.648,58.432 228.984,42.982 	"/>
	<polygon display="inline" fill="#D03E30" points="267.191,42.982 276.854,58.432 276.854,58.523 267.191,73.972 271.426,73.972 
		281.089,58.523 281.089,58.432 271.426,42.982 	"/>
	<polygon display="inline" fill="#D03E30" points="271.485,42.982 281.148,58.432 281.148,58.523 271.485,73.972 275.72,73.972 
		285.384,58.523 285.384,58.432 275.72,42.982 	"/>
	<polygon display="inline" fill="#D25E30" points="236.038,22.616 245.7,38.066 245.7,38.157 236.038,53.606 240.272,53.606 
		249.936,38.157 249.936,38.066 240.272,22.616 	"/>
	<rect x="289.613" y="52.107" display="inline" fill="#D03E30" width="6.743" height="6.478"/>
	<polygon display="inline" fill="#D03E30" points="285.384,58.432 271.485,42.982 276.854,58.432 271.426,73.972 	"/>
</g>
</svg>
