<?xml version="1.0" encoding="utf-8"?>
<!-- Generator: Adobe Illustrator 15.1.0, SVG Export Plug-In . SVG Version: 6.00 Build 0)  -->
<!DOCTYPE svg PUBLIC "-//W3C//DTD SVG 1.1//EN" "http://www.w3.org/Graphics/SVG/1.1/DTD/svg11.dtd">
<svg version="1.1" id="Layer_1" xmlns="http://www.w3.org/2000/svg" xmlns:xlink="http://www.w3.org/1999/xlink" x="0px" y="0px"
	 width="72px" height="72px" viewBox="0 0 72 72" enable-background="new 0 0 72 72" xml:space="preserve">
<defs>
	<filter id="Adobe_OpacityMaskFilter" filterUnits="userSpaceOnUse" x="-19.08" y="-0.721" width="110.159" height="73.44">
		<feColorMatrix  type="matrix" values="1 0 0 0 0  0 1 0 0 0  0 0 1 0 0  0 0 0 1 0"/>
	</filter>
</defs>
<mask maskUnits="userSpaceOnUse" x="-19.08" y="-0.721" width="110.159" height="73.44" id="SVGID_1_">
	<g filter="url(#Adobe_OpacityMaskFilter)">
		<circle fill="#FFFFFF" cx="36" cy="36" r="36"/>
	</g>
</mask>
<g mask="url(#SVGID_1_)">
	<rect x="-19.08" y="-0.721" fill="#010101" width="110.159" height="73.44"/>
	<rect x="-19.08" y="11.52" fill="#FCDC02" width="110.159" height="12.24"/>
	<rect x="-19.08" y="23.76" fill="#D81F26" width="110.159" height="12.24"/>
	<rect x="-19.08" y="48.239" fill="#FCDC02" width="110.159" height="12.24"/>
	<rect x="-19.08" y="60.479" fill="#D81F26" width="110.159" height="12.24"/>
	<circle fill="#FFFFFF" cx="36" cy="36" r="11.444"/>
	<g>
		<path fill="#D81F26" stroke="#010101" d="M33.982,27.235l-0.742-1.368c0.287-0.286,0.769-0.508,1.537-0.508
			c0,0.052-0.079,1.498-0.079,1.498L33.982,27.235z"/>
		<path fill="#FCDC02" stroke="#010101" d="M34.698,26.87l0.105-1.511c0,0,1.535-0.091,2.369,0.912
			c0.013-0.014-0.82,1.172-0.82,1.172L34.698,26.87z"/>
		<path fill="#D81F26" stroke="#010101" d="M36.378,27.43l0.756-1.172c0.507,0.534,0.717,0.912,0.794,1.484
			c0.013,0.014-1.198,0.3-1.198,0.286C36.729,28.016,36.392,27.443,36.378,27.43z"/>
		<path fill="#010101" stroke="#010101" d="M34.36,46.779c0,0,1.419-1.628,4.181-1.275c-0.418-0.677-1.759-0.6-1.759-0.6
			s-0.417-3.163-0.092-3.32c0.326-0.155,1.707,0.014,1.707,0.014c0.182,0,0.494-0.495,0.247-0.807
			c-0.247-0.313-0.977-1.512-0.678-1.745c0.3-0.235,1.928,0.129,1.928,0.129l-4.598-5.885c0,0-0.468-2.214,0.47-3.282
			c1.133-0.938,1.016-1.952,0.976-1.939c-0.155-1.029-1.718-1.771-2.772-0.82c-0.625,0.755-0.208,1.328-0.208,1.328
			s-1.641,0.442-1.707,0.729c-0.064,0.286,1.85-0.053,1.85-0.053l-0.182,1.315c0,0-3.725,3.385-0.873,6.315
			c0.026-0.013,0.091-0.131,0.091-0.131s1.003,1.236,2.058,1.511c0.989,1.016,0.898,0.859,0.898,0.859s0.195,1.602,0.014,1.915
			c-0.248-0.079-2.774-0.17-3.152-0.026c-0.338,0.104-1.64,0.038-1.314,2.162c0.247-0.574,0.469-1.082,0.469-1.082
			s-0.039,0.769,0.273,1.042c-0.052-0.807,0.3-1.354,0.3-1.354s0.064,0.885,0.26,1.015c0.195,0.131,0.195-1.433,1.276-1.302
			c1.081,0.13,1.862,0.091,1.862,0.091s0.365,3.06,0.247,3.347c-0.781-0.183-2.644,0.078-2.76,0.548
			c1.094-0.065,1.602,0.064,1.602,0.064S34.087,46.324,34.36,46.779z"/>
		<path fill="#9CA69C" stroke="#9CA69C" d="M34.799,30.083c0,0-2.71,2.987-1.541,5.272c0.063-0.318,0.035-0.519,0.075-0.506
			c-0.065-0.039,0.336,0.274,0.305,0.214c0.009-0.166-0.121-0.52-0.121-0.52c0.121,0.03,0.244,0.062,0.366,0.092
			c-0.071-0.133-0.144-0.265-0.214-0.397c0.173,0.021,0.347,0.041,0.519,0.061c0,0-0.184-0.488-0.121-0.488
			c0.061,0,0.427,0.03,0.427,0.03C33.724,32.458,34.449,31.31,34.799,30.083z"/>
		<path fill="#9CA69C" stroke="#9CA69C" d="M35.74,27.521c0,0,0.144,1.028-0.416,1.328c-0.092,0.064-0.443,0.183-0.392,0.391
			c0.065,0.286,0.223,0.234,0.443,0.182C35.962,29.318,36.639,28.068,35.74,27.521z"/>
		<circle fill="#FFFFFF" cx="34.531" cy="28.411" r="0.221"/>
		<path fill="#D81F26" stroke="#010101" d="M33.865,29.266c-0.143,0.118-0.897,0.898-0.155,1.186
			c0.768-0.209,0.56-0.352,0.729-0.521C34.442,29.579,34.057,29.487,33.865,29.266z"/>
		<path fill="#9CA69C" stroke="#9CA69C" d="M35.507,36.649c-0.04,0.169-0.21,0.795,0.025,1.276c0.65-0.273,0.95-0.196,1.172-0.053
			C36.17,37.444,35.962,37.261,35.507,36.649z"/>
		<path fill="#FFFFFF" stroke="#FFFFFF" d="M36.626,39.605l0.039,1.458c0,0,0.508,0.092,0.742,0
			C37.641,40.972,37.395,40.048,36.626,39.605z"/>
		<path fill="#9CA69C" stroke="#010101" d="M40.311,39.788c0,0-0.938-2.267-3.333-2.839c-2.396-0.573-2.084-3.126-1.889-3.282
			c0.104-0.221,0.183-0.56,0.873-0.234c0.69,0.326,3.867,1.928,4.323,2.006S40.351,39.84,40.311,39.788z"/>
		<path fill="#D81F26" stroke="#010101" d="M38.032,36.936c-0.039,0.026,3.204,1.915,2.227,3.542c0.925-0.612,0.626-1.68,0.626-1.68
			s0.755,1.966-1.082,2.93c0.196,0.169,0.325,0.13,0.325,0.13l-0.312,0.312c0,0-0.144,0.234,1.094-0.364
			c-0.339,0.274-0.364,0.47-0.364,0.47s0.091,0.26,0.898-0.443c-0.651,0.703-0.795,1.067-0.795,1.055
			c1.758-0.156,5.586-5.873-1.211-7.565c0.365,0.377,0.312,0.325,0.312,0.325L38.032,36.936z"/>
		<path fill="#FFFFFF" stroke="#010101" d="M38.176,36.376c0.442,0.312,0.599,0.416,0.65,0.573
			c-0.403-0.092-0.768-0.065-0.768-0.065s-0.873-0.833-1.029-0.898c-0.117,0-0.794-0.43-0.794-0.43
			c-0.339-0.17-0.651-1.342,0.599-1.003c1.289,0.612,1.472,0.664,1.472,0.664c0.512,0.161,1.024,0.321,1.537,0.481
			c0.295,0.33,0.59,0.66,0.885,0.99c0,0-1.575-0.781-1.771-0.795c0.43,0.352,0.677,0.834,0.677,0.834
			C39.134,36.584,38.701,36.454,38.176,36.376z"/>
		<path fill="#010101" stroke="#FFFFFF" d="M32.042,29.384c0,0,1.511-0.365,1.693-0.313"/>
	</g>
</g>
</svg>
