<?xml version="1.0" encoding="utf-8"?>
<!-- Generator: Adobe Illustrator 18.1.0, SVG Export Plug-In . SVG Version: 6.00 Build 0)  -->
<!DOCTYPE svg PUBLIC "-//W3C//DTD SVG 1.1//EN" "http://www.w3.org/Graphics/SVG/1.1/DTD/svg11.dtd">
<svg version="1.1" id="Layer_1" xmlns="http://www.w3.org/2000/svg" xmlns:xlink="http://www.w3.org/1999/xlink" x="0px" y="0px"
	 viewBox="0 0 64 64" xml:space="preserve">
<g>
	<g>
		<path fill="#231F20" d="M31.8,4.9C46.8,4.9,58.9,17,58.9,32c0,14.9-12.2,27.1-27.1,27.1C16.9,59.1,4.7,46.9,4.7,32
			C4.7,17,16.9,4.9,31.8,4.9 M31.8,0.9C14.7,0.9,0.7,14.8,0.7,32s13.9,31.1,31.1,31.1S62.9,49.1,62.9,32S49,0.9,31.8,0.9L31.8,0.9z"
			/>
	</g>
	<polygon fill="#231F20" points="32.9,14.6 29.7,17.8 41.7,29.7 15.5,29.7 15.5,34.2 41.7,34.2 29.7,46.2 32.9,49.4 50.3,32 	"/>
</g>
</svg>
