<?xml version="1.0" encoding="utf-8"?>
<!-- Generator: Adobe Illustrator 18.1.0, SVG Export Plug-In . SVG Version: 6.00 Build 0)  -->
<!DOCTYPE svg PUBLIC "-//W3C//DTD SVG 1.1//EN" "http://www.w3.org/Graphics/SVG/1.1/DTD/svg11.dtd">
<svg version="1.1" id="Layer_1" xmlns="http://www.w3.org/2000/svg" xmlns:xlink="http://www.w3.org/1999/xlink" x="0px" y="0px" viewBox="0 0 18 3.6">
<g>
	<defs><rect id="SVGID_1_" y="0" width="18" height="3.6"/></defs>
	<clipPath id="SVGID_2_">
		<use xlink:href="#SVGID_1_"  overflow="visible"/>
	</clipPath>
	<path clip-path="url(#SVGID_2_)" fill="#C2C2C2" d="M9,3.6c1,0,1.8-0.8,1.8-1.8S10,0,9,0S7.2,0.8,7.2,1.8S8,3.6,9,3.6"/>
	<path clip-path="url(#SVGID_2_)" fill="#C2C2C2" d="M1.8,3.6c1,0,1.8-0.8,1.8-1.8S2.8,0,1.8,0S0,0.8,0,1.8S0.8,3.6,1.8,3.6"/>
	<path clip-path="url(#SVGID_2_)" fill="#C2C2C2" d="M16.2,3.6c1,0,1.8-0.8,1.8-1.8S17.2,0,16.2,0s-1.8,0.8-1.8,1.8
		S15.2,3.6,16.2,3.6"/>
</g>
</svg>
