<?xml version="1.0" encoding="utf-8"?>
<!-- Generator: Adobe Illustrator 18.1.0, SVG Export Plug-In . SVG Version: 6.00 Build 0)  -->
<!DOCTYPE svg PUBLIC "-//W3C//DTD SVG 1.1//EN" "http://www.w3.org/Graphics/SVG/1.1/DTD/svg11.dtd">
<svg version="1.1" id="Layer_1" xmlns="http://www.w3.org/2000/svg" xmlns:xlink="http://www.w3.org/1999/xlink" x="0px" y="0px" viewBox="0 0 256 256">
<path fill="#383838" d="M162.9,91.6c0,19.3-15.6,34.9-34.9,34.9s-34.9-15.6-34.9-34.9c0-19.3,15.6-34.9,34.9-34.9
	C147.3,56.7,162.9,72.3,162.9,91.6 M128,2.7c-47.7,0-86.4,38.7-86.4,86.4c0,12.8,2.8,24.9,7.7,35.8c0,0,24,57.7,78.6,128.4
	c54.7-70.8,78-127,78-127c5.4-11.3,8.4-23.9,8.4-37.2C214.4,41.4,175.7,2.7,128,2.7"/>
</svg>
