<?xml version="1.0" encoding="utf-8"?>
<!-- Generator: Adobe Illustrator 15.1.0, SVG Export Plug-In . SVG Version: 6.00 Build 0)  -->
<!DOCTYPE svg PUBLIC "-//W3C//DTD SVG 1.1//EN" "http://www.w3.org/Graphics/SVG/1.1/DTD/svg11.dtd">
<svg version="1.1" xmlns="http://www.w3.org/2000/svg" xmlns:xlink="http://www.w3.org/1999/xlink" x="0px" y="0px" width="72px"
	 height="72px" viewBox="0 0 72 72" enable-background="new 0 0 72 72" xml:space="preserve">
<g id="grouped" display="none">
	<g display="inline">
		<defs>
			<rect id="SVGID_1_" x="6" y="6" width="60" height="60"/>
		</defs>
		<clipPath id="SVGID_2_">
			<use xlink:href="#SVGID_1_"  overflow="visible"/>
		</clipPath>
		<path clip-path="url(#SVGID_2_)" fill="#1CAA7F" d="M36,66c16.568,0,30-13.431,30-30S52.568,6,36,6C19.431,6,6,19.431,6,36
			S19.431,66,36,66"/>
	</g>
	<polygon display="inline" fill="#FFFFFF" points="22.349,34.675 22.349,37.325 44.352,37.325 33.984,46.656 35.655,48.845 
		49.65,36 49.65,35.942 35.655,23.155 33.984,25.344 44.352,34.675 	"/>
</g>
<g id="subtracted">
	<path fill="#1CAA7F" d="M36,6C19.431,6,6,19.432,6,36c0,16.57,13.431,30,30,30c16.568,0,30-13.43,30-30C66,19.432,52.568,6,36,6z
		 M49.65,36L35.655,48.846l-1.671-2.189l10.368-9.33H22.349v-2.65h22.003l-10.368-9.332l1.671-2.188L49.65,35.943V36z"/>
</g>
</svg>
