<?xml version="1.0" encoding="utf-8"?>
<!-- Generator: Adobe Illustrator 18.1.0, SVG Export Plug-In . SVG Version: 6.00 Build 0)  -->
<!DOCTYPE svg PUBLIC "-//W3C//DTD SVG 1.1//EN" "http://www.w3.org/Graphics/SVG/1.1/DTD/svg11.dtd">
<svg version="1.1" id="Layer_1" xmlns="http://www.w3.org/2000/svg" xmlns:xlink="http://www.w3.org/1999/xlink" x="0px" y="0px"
	 viewBox="0 0 231.4 276.5" enable-background="new 0 0 231.4 276.5" xml:space="preserve">
<g>
	<path fill="none" stroke="#FFFFFF" stroke-width="4" stroke-linejoin="round" stroke-miterlimit="10" d="M52.3,105"/>
	<path fill="none" stroke="#FFFFFF" stroke-width="3" stroke-linejoin="round" stroke-miterlimit="10" d="M73.2,182.8"/>
	<polygon fill="#FFFFFF" points="153.8,64.7 153.8,64.6 153.8,64.6 153.8,64.6 153.8,64.6 	"/>
	<path fill="#FFFFFF" d="M133.3,76.9c0-9.8-8-17.7-17.7-17.7s-17.7,8-17.7,17.7c0,9.8,8,17.7,17.7,17.7S133.3,86.7,133.3,76.9z
		 M115.6,88.8c-6.5,0-11.8-5.3-11.8-11.8c0-6.5,5.3-11.8,11.8-11.8s11.8,5.3,11.8,11.8C127.5,83.4,122.1,88.8,115.6,88.8z"/>
	<path fill="#FFFFFF" d="M108.7,204.4l-30-15.6c-0.2-2.5-2.2-4.5-4.7-4.5c-2.6,0-4.8,2.1-4.8,4.8c0,2.6,2.1,4.8,4.8,4.8
		c0.9,0,1.8-0.3,2.5-0.7l28.7,14.9v34.4l-48.9-26.9c-0.1-2.5-2.2-4.6-4.8-4.6c-2.6,0-4.8,2.1-4.8,4.8c0,2.6,2.1,4.8,4.8,4.8
		c0.9,0,1.7-0.3,2.4-0.7l52.5,28.9c0.4,0.2,0.8,0.3,1.2,0.3c0.4,0,0.9-0.1,1.2-0.3c0.7-0.4,1.2-1.2,1.2-2.1v-40.1
		C110,205.7,109.5,204.9,108.7,204.4z"/>
	<path fill="#FFFFFF" d="M208.1,182.2v32.4l-93.3,53.9l-93.3-53.9v-30.4l-19.2,2.6c1.3,0.1,11.1,1.2,14.3,7.6V216
		c0,0.9,0.5,1.7,1.2,2.1l95.7,55.3c0.4,0.2,0.8,0.3,1.2,0.3s0.8-0.1,1.2-0.3l95.7-55.3c0.8-0.4,1.2-1.2,1.2-2.1v-34.4L208.1,182.2z"
		/>
	<path fill="#FFFFFF" d="M21.5,121.3v-15.2L34,87.5l14,19.4c0.6,0.9,1.7,1.2,2.7,0.9c1-0.3,1.7-1.3,1.7-2.3l0-22L60,46l9.1,39.2
		c0.3,1.2,1.4,2,2.7,1.9c1.2-0.1,2.2-1.2,2.2-2.4V58.2l6.5-0.1c0.6,0,1.3-0.3,1.7-0.7l33-33.5l33,33.5c0.5,0.5,1.1,0.7,1.8,0.7
		l6.5-0.1v26.5c0,1.2,0.9,2.3,2.2,2.4c1.2,0.2,2.4-0.7,2.7-1.9l9.1-39.2l7.5,37.5l0,22c0,1.1,0.7,2,1.7,2.3c1,0.3,2.1,0,2.7-0.9
		l13.9-19.3l11.9,18.6v12.6L227,116c-2.6-0.3-11.4-1.8-14-8.1v-2.5c0-0.5-0.1-0.9-0.4-1.3l-14.2-22.2c-0.4-0.7-1.2-1.1-2-1.1
		c-0.8,0-1.6,0.4-2.1,1l-11.6,16.1l0-14.6c0-0.2,0-0.3,0-0.5l-9.8-48.8c-0.2-1.1-1.2-2-2.4-2c0,0,0,0,0,0c-1.1,0-2.1,0.8-2.4,1.9
		l-6.8,29.3V43.8c0-1.4-1.1-2.5-2.4-2.5h-4.6L116.9,3.5c-0.9-0.9-2.6-0.9-3.5,0L76.1,41.3h-4.6c-1.4,0-2.4,1.1-2.4,2.5v19.4
		l-6.8-29.4c-0.3-1.1-1.3-1.9-2.4-1.9c-1.2,0-2.1,0.8-2.4,2l-9.8,48.8c0,0.2,0,0.3,0,0.5l0,14.6L35.9,81.8c-0.5-0.7-1.2-1-2-1
		c-0.8,0-1.5,0.4-2,1.1l-14.9,22.2c-0.3,0.4-0.4,0.9-0.4,1.4V122L21.5,121.3z M73.9,46.2h3.2c0.7,0,1.3-0.3,1.7-0.7l36.3-36.8
		l36.3,36.8c0.5,0.5,1.1,0.7,1.7,0.7h3.2v7l-5.5,0.1l-34-34.6c-0.5-0.5-1.1-0.7-1.7-0.7c0,0,0,0,0,0c-0.7,0-1.3,0.3-1.7,0.7
		l-34,34.5l-5.5,0V46.2z"/>
	<path fill="#FFFFFF" d="M154.9,203.9c-2.6,0-4.8,2.1-4.8,4.8c0,0,0,0,0,0l-21.7,12.1v-28l-4.9,0.7V225c0,0.9,0.5,1.7,1.2,2.1
		c0.4,0.2,0.8,0.3,1.2,0.3c0.4,0,0.8-0.1,1.2-0.3l25.6-14.3c0.7,0.4,1.4,0.6,2.2,0.6c2.6,0,4.8-2.1,4.8-4.8
		C159.7,206.1,157.5,203.9,154.9,203.9z"/>
	<path fill="#FFFFFF" d="M192.4,184.3v10.8h-15.7c-0.8-1.4-2.3-2.3-4.1-2.3c-2.6,0-4.8,2.1-4.8,4.8c0,2.6,2.1,4.8,4.8,4.8
		c1.7,0,3.2-0.9,4.1-2.3h15.7v5.4l-64.1,35.1c-0.7-0.4-1.5-0.7-2.4-0.7c-2.6,0-4.8,2.1-4.8,4.8c0,2.6,2.1,4.8,4.8,4.8
		c2.6,0,4.7-2,4.8-4.6L196,209c0.8-0.4,1.3-1.3,1.3-2.1v-23.3L192.4,184.3z"/>
	<path fill="#FFFFFF" d="M90,212.9c-1,0-1.9,0.3-2.7,0.8l-32.9-18.2v-15.8l-4.9,0.7V197c0,0.9,0.5,1.7,1.3,2.1l34.5,19.1
		c0.3,2.4,2.3,4.2,4.7,4.2c2.6,0,4.8-2.1,4.8-4.8C94.7,215.1,92.6,212.9,90,212.9z"/>
	<path fill="#FFFFFF" d="M39.2,204.1v-22.3l-4.9,0.7v21.7c-1.4,0.8-2.3,2.3-2.3,4.1c0,2.6,2.1,4.8,4.8,4.8c2.6,0,4.8-2.1,4.8-4.8
		C41.5,206.4,40.6,204.9,39.2,204.1z"/>
	<g>
		<path fill="#FFFFFF" d="M210.4,148c-0.2-1.5-1.4-2.2-3.3-1.9l-3.6,0.5l0.7,4.7l3.6-0.5C209.7,150.5,210.6,149.4,210.4,148
			L210.4,148z"/>
		<path fill="#FFFFFF" d="M162,157.5c-0.4-2.8-2.8-5-5.8-4.6c-3,0.4-4.6,3.1-4.3,5.9l0,0.1c0.4,2.8,2.8,5,5.8,4.6
			C160.8,163.1,162.4,160.4,162,157.5L162,157.5z"/>
		<path fill="#FFFFFF" d="M228.1,121.8l-91.7,13l0.6,31.1c0,1.5-1.1,2.8-2.5,3l-24.9,3.4v17.2l119.6-16L228.1,121.8z M158.4,168.4
			c-6.1,0.8-11.2-3.1-12-8.7l0-0.1c-0.8-5.7,3.1-10.9,9.2-11.7c6.1-0.8,11.2,3.1,12,8.7l0,0.1C168.4,162.4,164.5,167.6,158.4,168.4z
			 M186.3,164.2l-5.5,0.8l-2.1-14.9l-5.9,0.8l-0.7-4.8l17.3-2.4l0.7,4.8l-5.9,0.8L186.3,164.2z M212,160.6l-4.8-5.4l-0.1,0l-2.3,0.3
			l0.8,6l-5.5,0.8l-2.7-19.7l9.3-1.3c3-0.4,5.2,0.1,6.7,1.3c1.3,1,2.1,2.4,2.4,4.3l0,0.1c0.4,3-0.9,5.2-3.2,6.6l5.6,6.2L212,160.6z"
			/>
	</g>
	<g>
		<polygon fill="#FFFFFF" points="52.9,151.7 57.4,151.1 54.4,145.8 		"/>
		<path fill="#FFFFFF" d="M130.1,111.8L2.8,130v50.8l128.2-17.3L130.1,111.8z M32.2,162.5l-1-7.5l-7,1l1,7.5l-5.5,0.8L17,144.5
			l5.5-0.8l1,7.4l7-1l-1-7.4L35,142l2.7,19.7L32.2,162.5z M61.5,158.5l-1.9-3.3l-7.6,1l-0.9,3.7l-5.8,0.8l5.7-21l5.3-0.7l11.1,18.7
			L61.5,158.5z M83.2,155.9c-5.6,0.8-10.8-2.9-11.6-8.8l0-0.1c-0.8-5.8,3-10.9,9-11.7c4-0.6,6.9,0.8,8.9,3l-3.7,3.8
			c-1.3-1.3-2.7-2-4.6-1.7c-2.8,0.4-4.4,3-4,5.9l0,0.1c0.4,3,2.7,5,5.4,4.6c2.1-0.3,3.1-1.4,4.1-3l4.5,2.4
			C89.8,153,87.5,155.3,83.2,155.9z M112.3,151.5l-6-6.6l-1.7,2.5l0.7,5.1l-5.5,0.8l-2.7-19.7l5.5-0.8l1.1,8l5.7-8.9l6.5-0.9
			l-6.3,9.5l9.3,10.2L112.3,151.5z"/>
	</g>
</g>
</svg>
