<?xml version="1.0" encoding="utf-8"?>
<!-- Generator: Adobe Illustrator 18.1.0, SVG Export Plug-In . SVG Version: 6.00 Build 0)  -->
<!DOCTYPE svg PUBLIC "-//W3C//DTD SVG 1.1//EN" "http://www.w3.org/Graphics/SVG/1.1/DTD/svg11.dtd">
<svg version="1.1" id="Layer_1" xmlns="http://www.w3.org/2000/svg" xmlns:xlink="http://www.w3.org/1999/xlink" x="0px" y="0px"
	 viewBox="0 0 512 512" enable-background="new 0 0 512 512" xml:space="preserve">
<path fill="#FFFFFF" d="M243,378.5l-55.6-28.9c-0.4-4.6-4.1-8.3-8.7-8.3c-4.8,0-8.9,3.9-8.9,8.9c0,4.8,3.9,8.9,8.9,8.9
	c1.7,0,3.3-0.6,4.6-1.3l53.1,27.6V449L146,399.2c-0.2-4.6-4.1-8.5-8.9-8.5s-8.9,3.9-8.9,8.9c0,4.8,3.9,8.9,8.9,8.9
	c1.7,0,3.1-0.6,4.4-1.3l97.2,53.5c0.7,0.4,1.5,0.6,2.2,0.6c0.7,0,1.7-0.2,2.2-0.6c1.3-0.7,2.2-2.2,2.2-3.9v-74.3
	C245.4,380.9,244.5,379.4,243,378.5z"/>
<path fill="#FFFFFF" d="M427.1,337.4v60l-172.8,99.8L81.6,397.4v-56.3L46,345.9c2.4,0.2,20.6,2.2,26.5,14.1v40
	c0,1.7,0.9,3.1,2.2,3.9l177.2,102.4c0.7,0.4,1.5,0.6,2.2,0.6s1.5-0.2,2.2-0.6l177.2-102.4c1.5-0.7,2.2-2.2,2.2-3.9v-63.7
	L427.1,337.4z"/>
<path fill="#FFFFFF" d="M328.6,377.6c-4.8,0-8.9,3.9-8.9,8.9l0,0l-40.2,22.4V357l-9.1,1.3v58.3c0,1.7,0.9,3.1,2.2,3.9
	c0.7,0.4,1.5,0.6,2.2,0.6s1.5-0.2,2.2-0.6l47.4-26.5c1.3,0.7,2.6,1.1,4.1,1.1c4.8,0,8.9-3.9,8.9-8.9
	C337.5,381.6,333.4,377.6,328.6,377.6z"/>
<path fill="#FFFFFF" d="M398,341.3v20H369c-1.5-2.6-4.3-4.3-7.6-4.3c-4.8,0-8.9,3.9-8.9,8.9c0,4.8,3.9,8.9,8.9,8.9
	c3.1,0,5.9-1.7,7.6-4.3H398v10l-118.7,65c-1.3-0.7-2.8-1.3-4.4-1.3c-4.8,0-8.9,3.9-8.9,8.9c0,4.8,3.9,8.9,8.9,8.9
	c4.8,0,8.7-3.7,8.9-8.5L404.7,387c1.5-0.7,2.4-2.4,2.4-3.9V340L398,341.3z"/>
<path fill="#FFFFFF" d="M208.4,394.2c-1.9,0-3.5,0.6-5,1.5L142.5,362v-29.3l-9.1,1.3v30.7c0,1.7,0.9,3.1,2.4,3.9l63.9,35.4
	c0.6,4.4,4.3,7.8,8.7,7.8c4.8,0,8.9-3.9,8.9-8.9C217.1,398.3,213.2,394.2,208.4,394.2z"/>
<path fill="#FFFFFF" d="M114.3,377.9v-41.3l-9.1,1.3v40.2c-2.6,1.5-4.3,4.3-4.3,7.6c0,4.8,3.9,8.9,8.9,8.9c4.8,0,8.9-3.9,8.9-8.9
	C118.6,382.2,116.9,379.4,114.3,377.9z"/>
</svg>
