<?xml version="1.0" encoding="utf-8"?>
<!-- Generator: Adobe Illustrator 18.1.0, SVG Export Plug-In . SVG Version: 6.00 Build 0)  -->
<!DOCTYPE svg PUBLIC "-//W3C//DTD SVG 1.1//EN" "http://www.w3.org/Graphics/SVG/1.1/DTD/svg11.dtd">
<svg version="1.1" id="Layer_1" xmlns="http://www.w3.org/2000/svg" xmlns:xlink="http://www.w3.org/1999/xlink" x="0px" y="0px"
	 viewBox="0 0 512 512" enable-background="new 0 0 512 512" xml:space="preserve">
<polygon fill="#FFFFFF" points="326.6,119.8 326.6,119.6 326.6,119.6 326.6,119.6 326.6,119.6 "/>
<path fill="#FFFFFF" d="M288.6,142.4c0-18.1-14.8-32.8-32.8-32.8S223,124.4,223,142.4c0,18.1,14.8,32.8,32.8,32.8
	S288.6,160.5,288.6,142.4z M255.8,164.4c-12,0-21.9-9.8-21.9-21.9c0-12,9.8-21.9,21.9-21.9c12,0,21.9,9.8,21.9,21.9
	C277.9,154.4,267.9,164.4,255.8,164.4z"/>
<path fill="#FFFFFF" d="M81.6,224.6v-28.1l23.1-34.4l25.9,35.9c1.1,1.7,3.1,2.2,5,1.7c1.9-0.6,3.1-2.4,3.1-4.3v-40.7l14.1-69.4
	l16.9,72.6c0.6,2.2,2.6,3.7,5,3.5c2.2-0.2,4.1-2.2,4.1-4.4v-49.1l12-0.2c1.1,0,2.4-0.6,3.1-1.3l61.1-62l61.1,62
	c0.9,0.9,2,1.3,3.3,1.3l12-0.2v49.1c0,2.2,1.7,4.3,4.1,4.4c2.2,0.4,4.4-1.3,5-3.5l16.9-72.6l13.9,69.4V195c0,2,1.3,3.7,3.1,4.3
	c1.9,0.6,3.9,0,5-1.7l25.7-35.7l22,34.4v23.3l34.8-4.8c-4.8-0.6-21.1-3.3-25.9-15v-4.6c0-0.9-0.2-1.7-0.7-2.4l-26.3-41.1
	c-0.7-1.3-2.2-2-3.7-2s-3,0.7-3.9,1.9l-21.5,29.8v-27c0-0.4,0-0.6,0-0.9L361.9,63c-0.4-2-2.2-3.7-4.4-3.7l0,0c-2,0-3.9,1.5-4.4,3.5
	L340.4,117V81.1c0-2.6-2-4.6-4.4-4.6h-8.5l-69.3-70c-1.7-1.7-4.8-1.7-6.5,0l-69.1,70h-8.5c-2.6,0-4.4,2-4.4,4.6V117l-12.6-54.4
	c-0.6-2-2.4-3.5-4.4-3.5c-2.2,0-3.9,1.5-4.4,3.7l-18.1,90.4c0,0.4,0,0.6,0,0.9v27l-21.9-29.6c-0.9-1.3-2.2-1.9-3.7-1.9
	c-1.5,0-2.8,0.7-3.7,2l-27.6,41.1c-0.6,0.7-0.7,1.7-0.7,2.6v30.6L81.6,224.6z M178.6,85.5h5.9c1.3,0,2.4-0.6,3.1-1.3l67.2-68.1
	l67.2,68.1c0.9,0.9,2,1.3,3.1,1.3h5.9v13L321,98.7l-63-64.1c-0.9-0.9-2-1.3-3.1-1.3l0,0c-1.3,0-2.4,0.6-3.1,1.3l-63,63.9h-10.2
	L178.6,85.5L178.6,85.5z"/>
</svg>
