<?xml version="1.0" encoding="utf-8"?>
<!-- Generator: Adobe Illustrator 18.1.0, SVG Export Plug-In . SVG Version: 6.00 Build 0)  -->
<!DOCTYPE svg PUBLIC "-//W3C//DTD SVG 1.1//EN" "http://www.w3.org/Graphics/SVG/1.1/DTD/svg11.dtd">
<svg version="1.1" id="Layer_1" xmlns="http://www.w3.org/2000/svg" xmlns:xlink="http://www.w3.org/1999/xlink" x="0px" y="0px"
	 viewBox="0 0 512 512" enable-background="new 0 0 512 512" xml:space="preserve">
<g>
	<g>
		<path fill="#FFFFFF" d="M431.4,274.1c-0.4-2.8-2.6-4.1-6.1-3.5l-6.7,0.9l1.3,8.7l6.7-0.9C430.1,278.7,431.7,276.6,431.4,274.1
			L431.4,274.1z"/>
		<path fill="#FFFFFF" d="M341.7,291.6c-0.7-5.2-5.2-9.3-10.7-8.5c-5.6,0.7-8.5,5.7-8,10.9v0.2c0.7,5.2,5.2,9.3,10.7,8.5
			C339.5,302,342.5,297,341.7,291.6L341.7,291.6z"/>
		<path fill="#FFFFFF" d="M464.1,225.5l-169.8,24.1l1.1,57.6c0,2.8-2,5.2-4.6,5.6l-46.1,6.3v31.8l221.5-29.6L464.1,225.5z
			 M335.1,311.8c-11.3,1.5-20.7-5.7-22.2-16.1v-0.2c-1.5-10.6,5.7-20.2,17-21.7s20.7,5.7,22.2,16.1v0.2
			C353.6,300.7,346.4,310.3,335.1,311.8z M386.7,304.1l-10.2,1.5l-3.9-27.6l-10.9,1.5l-1.3-8.9l32-4.4l1.3,8.9l-10.9,1.5
			L386.7,304.1z M434.3,297.4l-8.9-10h-0.2l-4.3,0.6l1.5,11.1l-10.2,1.5l-5-36.5l17.2-2.4c5.6-0.7,9.6,0.2,12.4,2.4
			c2.4,1.9,3.9,4.4,4.4,8v0.2c0.7,5.6-1.7,9.6-5.9,12.2l10.4,11.5L434.3,297.4z"/>
	</g>
	<g>
		<polygon fill="#FFFFFF" points="139.7,280.9 148,279.8 142.5,270 		"/>
		<path fill="#FFFFFF" d="M282.7,207L46.9,240.7v94.1l237.4-32L282.7,207z M101.4,300.9L99.5,287l-13,1.9l1.9,13.9l-10.2,1.5
			l-5-36.7l10.2-1.5l1.9,13.7l13-1.9l-1.9-13.7l10.2-1.3l5,36.5L101.4,300.9z M155.6,293.5l-3.5-6.1l-14.1,1.9l-1.7,6.9l-10.7,1.5
			l10.6-38.9l9.8-1.3l20.6,34.6L155.6,293.5z M195.8,288.7c-10.4,1.5-20-5.4-21.5-16.3v-0.2c-1.5-10.7,5.6-20.2,16.7-21.7
			c7.4-1.1,12.8,1.5,16.5,5.6l-6.9,7c-2.4-2.4-5-3.7-8.5-3.1c-5.2,0.7-8.1,5.6-7.4,10.9v0.2c0.7,5.6,5,9.3,10,8.5
			c3.9-0.6,5.7-2.6,7.6-5.6l8.3,4.4C208,283.3,203.8,287.6,195.8,288.7z M249.7,280.5l-11.1-12.2l-3.1,4.6l1.3,9.4l-10.2,1.5
			l-5-36.5l10.2-1.5l2,14.8l10.6-16.5l12-1.7l-11.7,17.6l17.2,18.9L249.7,280.5z"/>
	</g>
</g>
</svg>
