<?xml version="1.0" encoding="utf-8"?>
<!-- Generator: Adobe Illustrator 15.1.0, SVG Export Plug-In . SVG Version: 6.00 Build 0)  -->
<!DOCTYPE svg PUBLIC "-//W3C//DTD SVG 1.1//EN" "http://www.w3.org/Graphics/SVG/1.1/DTD/svg11.dtd">
<svg version="1.1" id="Layer_1" xmlns="http://www.w3.org/2000/svg" xmlns:xlink="http://www.w3.org/1999/xlink" x="0px" y="0px"
	 width="64px" height="64px" viewBox="0 0 64 64" enable-background="new 0 0 64 64" xml:space="preserve">
<g>
	<defs>
		<rect id="SVGID_1_" x="13.752" y="13.514" width="36.742" height="36.73"/>
	</defs>
	<clipPath id="SVGID_2_">
		<use xlink:href="./#SVGID_1_"  overflow="visible"/>
	</clipPath>
	<path clip-path="url(#SVGID_2_)" fill="#A7A9AC" d="M46.994,50.24l-11.77-11.766c-2.211,1.531-4.891,2.43-7.777,2.43
		c-7.551,0-13.693-6.146-13.693-13.699c0-7.549,6.143-13.691,13.693-13.691s13.691,6.143,13.691,13.691
		c0,2.881-0.895,5.559-2.418,7.766l11.773,11.773L46.994,50.24z M27.447,18.467c-4.82,0-8.742,3.918-8.742,8.738
		c0,4.824,3.922,8.748,8.742,8.748s8.74-3.924,8.74-8.748C36.188,22.385,32.268,18.467,27.447,18.467z"/>
</g>
</svg>
