<?xml version="1.0" encoding="utf-8"?>
<!-- Generator: Adobe Illustrator 15.1.0, SVG Export Plug-In . SVG Version: 6.00 Build 0)  -->
<!DOCTYPE svg PUBLIC "-//W3C//DTD SVG 1.1//EN" "http://www.w3.org/Graphics/SVG/1.1/DTD/svg11.dtd">
<svg version="1.1" id="Layer_1" xmlns="http://www.w3.org/2000/svg" xmlns:xlink="http://www.w3.org/1999/xlink" x="0px" y="0px"
	 width="100px" height="100px" viewBox="0 0 100 100" enable-background="new 0 0 100 100" xml:space="preserve">
<g>
	<rect x="16.397" y="16.396" fill="#8D191C" width="67.205" height="67.206"/>
	<rect x="16.398" y="16.396" transform="matrix(-0.7071 0.7071 -0.7071 -0.7071 120.7098 49.9975)" fill="#F15D2A" width="67.203" height="67.206"/>
	<polyline fill="#EF3D2A" points="97.521,50 50.001,97.521 2.479,50 	"/>
	<g>
		<path fill="#F1F2F2" d="M36.278,38.467v29.076h-4.434V38.467H26.85v-3.875h14.562v3.875H36.278z"/>
		<path fill="#F1F2F2" d="M53.498,67.543l-0.841-6.066H47.71l-0.747,6.066h-4.247l4.667-32.951h5.273l5.088,32.951H53.498z
			 M49.998,40.333l-1.82,17.129h3.919L49.998,40.333z"/>
		<path fill="#F1F2F2" d="M71.559,67.543l-0.42-1.541c-0.606,0.842-1.588,2.055-4.061,2.055c-0.653,0-2.24-0.047-3.641-1.213
			c-2.102-1.773-2.194-4.342-2.194-6.814V43.507c0-2.707,0.094-3.92,0.562-5.227c0.514-1.54,1.959-4.061,6.066-4.061
			c0.84,0,3.268,0,4.809,2.147c0.887,1.213,1.072,2.287,1.072,5.087v3.453h-4.014v-3.733c0-0.327-0.047-0.7-0.047-1.026
			c-0.047-0.514,0-2.334-1.961-2.287c-0.652,0-1.072,0.187-1.307,0.374c-0.98,0.7-0.887,2.193-0.887,3.267v18.948
			c0,1.354,0.046,2.381,0.326,2.939c0.187,0.375,0.699,1.074,1.82,1.027c0.232,0,0.746,0,1.26-0.326
			c0.888-0.607,0.934-1.729,0.934-2.613v-7.469h-2.66v-4.013h6.954v17.548H71.559L71.559,67.543z"/>
	</g>
</g>
</svg>
