<?xml version="1.0" encoding="utf-8"?>
<!-- Generator: Adobe Illustrator 18.1.0, SVG Export Plug-In . SVG Version: 6.00 Build 0)  -->
<!DOCTYPE svg PUBLIC "-//W3C//DTD SVG 1.1//EN" "http://www.w3.org/Graphics/SVG/1.1/DTD/svg11.dtd">
<svg version="1.1" id="Layer_1" xmlns="http://www.w3.org/2000/svg" xmlns:xlink="http://www.w3.org/1999/xlink" x="0px" y="0px"
	 viewBox="0 0 150.5 151.3" enable-background="new 0 0 150.5 151.3" xml:space="preserve">
<g>
	<g>
		<path fill="#FFFFFF" d="M75.3,17.8c31.9,0,57.9,26,57.9,57.9s-26,57.9-57.9,57.9s-57.9-26-57.9-57.9S43.3,17.8,75.3,17.8
			 M75.3,120c24.4,0,44.3-19.9,44.3-44.3S99.7,31.3,75.3,31.3S30.9,51.2,30.9,75.6S50.8,120,75.3,120 M75.3,16.8
			c-32.5,0-58.9,26.4-58.9,58.9s26.4,58.9,58.9,58.9s58.9-26.4,58.9-58.9S107.8,16.8,75.3,16.8L75.3,16.8z M75.3,119
			c-23.9,0-43.3-19.4-43.3-43.3s19.4-43.3,43.3-43.3s43.3,19.4,43.3,43.3S99.2,119,75.3,119L75.3,119z"/>
	</g>
	<g>
		<path fill="#FFFFFF" d="M149.1,71.9l-5.4-4.8c-0.4-3.2-0.8-6.4-1.8-9.7l3.5-6.4c0.3-0.5,0.3-1,0-1.5l-2-5c0-0.5-0.5-0.8-1-1
			l-6.9-2c-1.7-3-3.5-5.7-5.4-8.2l0.8-7.4c0-0.5-0.2-1.3-0.5-1.5l-3.8-3.8c-0.5-0.5-1-0.5-1.5-0.5l-7.4,0.7c-2.7-2-5.3-3.7-8.1-5.4
			l-2-6.9c-0.2-0.5-0.5-0.8-1-1l-5-2c-0.5-0.2-1-0.2-1.5,0l-6.4,3.5c-3.3-1-6.5-1.5-9.7-2l-4.8-5.6C79,1.1,78.5,0.8,78,0.8h-5.8
			c-0.5,0-1,0.2-1.2,0.8l-4.8,5.7c-3.2,0.5-6.4,1-9.7,2l-6.4-3.5c-0.5-0.2-1-0.2-1.5,0l-5,2c-0.5,0.2-0.8,0.5-1,1l-2,7.2
			c-2.8,1.7-5.4,3.5-8.1,5.4l-7.4-0.8c-0.5,0-1,0-1.5,0.5L20,24.9c-0.2,0.2-0.5,1-0.5,1.5l0.8,7.4c-2,2.5-3.8,5.1-5.4,8.1l-7.1,2
			c-0.5,0.2-1,0.5-1,1l-2,5c0.5,0.3,0.5,0.7,0.7,1.3l3.5,6.1c-0.7,3.2-1.5,6.5-2,9.8l-5.4,4.5c-0.5,0.2-0.7,0.8-0.7,1.2v5.4
			c0,0.5,0.3,1,0.7,1.2l5.4,4.8c0.4,3.2,0.8,6.4,1.8,9.7l-3.5,6.4c-0.3,0.5-0.3,1,0,1.5l2,4.9c0,0.5,0.5,0.8,1,1l6.9,2
			c1.7,3,3.5,5.7,5.4,8.2l-0.8,7.4c0,0.5,0.2,1.3,0.5,1.5l3.8,3.8c0.5,0.5,1,0.5,1.5,0.5l7.4-0.7c2.7,2,5.3,3.7,8.1,5.4l2,6.9
			c0.2,0.5,0.5,0.8,1,1l5,2c0.5,0.2,1,0.2,1.5,0l6.4-3.5c3.3,1,6.5,1.5,9.7,2l4.8,5.6c0.2,0.4,0.7,0.7,1.2,0.7h5.8
			c0.5,0,1-0.2,1.2-0.8l4.8-5.7c3.2-0.5,6.4-1,9.7-2l6.4,3.5c0.5,0.2,1,0.2,1.5,0l4.9-2c0.5-0.2,0.8-0.5,1-1l2-7.2
			c2.8-1.7,5.4-3.5,8.1-5.4l7.4,0.8c0.5,0,1,0,1.5-0.5l3.8-3.8c0.2-0.2,0.5-1,0.5-1.5l-0.8-7.4c2-2.5,3.8-5.1,5.4-8.1l7.1-2
			c0.5-0.2,1-0.5,1-1l2-4.9c-0.5-0.3-0.5-0.7-0.7-1.3l-3.5-6.1c0.7-3.2,1.5-6.5,2-9.8l5.4-4.5c0.5-0.2,0.7-0.8,0.7-1.2v-5.4
			C149.8,72.6,149.5,72.1,149.1,71.9z M146.5,78.9l-5.6,4c-0.5,0.4-0.7,0.7-0.8,1.2c-0.2,1.7-1.7,8.3-2.1,10l-2.7,0.8
			c-0.5,0-0.8,0.5-1,0.8c-0.2,0.8-0.5,1.5-0.8,2.2c-0.2,0.8,0,1.5,0.8,1.8l4.2,1.8c0.2,0,0.5,0.2,1,0l2.2-0.8v0.2l-1.5,3.5l-6.9,2
			c-0.5,0.2-0.8,0.5-1,0.8c-1.8,3.2-3.8,6.2-5.9,8.9c-0.2,0.2-0.2,0.2-0.2,0.5l-3-0.2c-0.5,0-0.8,0-1.2,0.5c-0.5,0.5-1,1.2-1.5,1.7
			c-0.5,0.5-0.5,1.5,0,2l3.2,3.3c0.2,0.2,0.5,0.2,0.8,0.5l2.5,0.2l-2.7,2.7l-7.2-0.8c-0.5,0-1,0-1.2,0.2c-2.7,2.2-5.6,4.2-8.9,5.9
			c-0.2,0-0.2,0.2-0.5,0.5l-2.5-1.5c-0.5-0.2-0.8-0.2-1.2,0c-0.8,0.2-1.5,0.8-2.3,1c-0.8,0.2-1,1.2-0.8,1.7l1.8,4.2
			c0,0.2,0.2,0.5,0.5,0.8l2,1.2l-3.5,1.5l-6.4-3.5c-0.5-0.2-0.8-0.2-1.2-0.2c-3.5,1-6.9,1.8-10.4,2c-0.2,0-0.5,0-0.7,0.2l-1.8-2.3
			c-0.2-0.2-0.7-0.5-1.2-0.5c-0.7,0-1.5,0-2.5,0c-0.7,0-1.5,0.8-1.5,1.5v4.8c0,0.2,1,0.8,1.2,1l2.5,1l-1.5,1.6h-4.1l-4.1-5.4
			c-0.4-0.5-0.7-0.7-1.2-0.7c-3.5-0.2-6.9-1-10.4-2c-0.3,0-0.6,0-0.8,0l-0.8-2.8c0-0.5-0.2-0.7-0.7-1c-0.8-0.2-1.5-0.4-2.3-0.7
			c-0.8-0.3-1.6,0-1.8,0.7l-1.8,4.3c0,0.2,0,0.7,0,1l0.8,2.2l-3.5-1.5l-2-6.9c0-0.5-0.2-0.7-0.7-1c-3.2-1.7-6.1-3.8-8.9-5.9
			c-0.3,0-0.6-0.3-0.8-0.3l0.2-2.8c0-0.5-0.3-0.9-0.5-1.2c-0.6-0.5-1.3-1-1.8-1.5s-1.5-0.5-2,0l-3.2,3.3c-0.3,0.2-0.5,0.4-0.5,0.7
			l-0.3,2.1l-2.8-2.8l0.8-7.1c0.3-0.5,0-1-0.2-1.2c-2.2-2.8-4.2-5.7-5.9-8.9c-0.3-0.3-0.3-0.3-0.5-0.5l1.2-2.5
			c0.2-0.5,0.2-0.7,0-1.2c-0.3-0.8-0.7-1.6-1-2.3c-0.3-0.7-1-0.9-1.8-0.7l-4.2,1.8c-0.3,0-0.5,0.3-0.8,0.5l-1.2,2l-1.4-3.6l3.5-6.4
			c0.2-0.3,0.2-0.8,0.2-1s0-0.5,0-0.8c-1-3.5-1.9-6.6-2.1-10.1l1.1-1.5c0.2-0.4,0.5-0.7,0.5-1.2c0-1,0-1.7,0-2.5
			c0-1-0.8-1.5-1.5-1.5l-3.4-0.9c-0.5,0-0.7,0-1,0.2l-2,1.2V74L9,69.6c0.5-0.4,1.6-1.8,1.6-2.3c0.5-3.5,0.9-6.8,1.9-10.1l2.7-0.8
			c0.5,0,0.8-0.5,1-0.8c0.2-0.8,0.5-1.5,0.8-2.2c0.2-0.8,0-1.5-0.8-1.8L11.9,50c-0.2,0-0.5-0.2-1,0l-2.2,0.8v-0.2l1.5-3.5l6.9-2
			c0.5-0.2,0.8-0.5,1-0.8c1.8-3.2,3.8-6.2,5.9-8.9c0.2-0.2,0.2-0.2,0.2-0.5l3,0.2c0.5,0,0.8,0,1.2-0.5c0.5-0.5,1-1.2,1.5-1.7
			c0.5-0.5,0.5-1.5,0-2l-3.2-3.3c-0.2-0.2-0.5-0.2-0.8-0.5L23.5,27l2.7-2.7l7.2,0.8c0.5,0,1,0,1.2-0.2c2.7-2.2,5.6-4.2,8.9-5.9
			c0.2,0,0.2-0.2,0.5-0.5l2.5,1.5c0.5,0.2,0.8,0.2,1.2,0c0.8-0.2,1.5-0.8,2.3-1c0.8-0.2,1-1.2,0.8-1.7l-1.8-4.2
			c0-0.2-0.2-0.5-0.5-0.8l-2-1.2l3.5-1.5l6.4,3.5c0.5,0.2,0.8,0.2,1.2,0.2c3.5-1,6.9-1.8,10.4-2c0.2,0,0.5,0,0.7-0.2l1.8,2.3
			c0.2,0.2,0.7,0.5,1.2,0.5c0.7,0,1.5,0,2.5,0c0.7,0,1.5-0.8,1.5-1.5V7.7c0-0.2-0.6-1.5-0.8-1.7l-1.7-1.4h4.6l3.9,5
			c0.4,0.5,0.7,0.7,1.2,0.7c3.5,0.2,6.9,1,10.4,2c0.3,0,0.6,0,0.8,0l0.8,2.8c0,0.5,0.2,0.7,0.7,1c0.8,0.2,1.5,0.4,2.3,0.7
			c0.8,0.3,1.6,0,1.8-0.7l1.8-4.3c0-0.2,0-0.7,0-1l-0.8-2.2l3.5,1.5l2,6.9c0,0.5,0.2,0.7,0.7,1c3.2,1.7,6.1,3.8,8.9,5.9
			c0.3,0,0.6,0.3,0.8,0.3l-0.2,2.8c0,0.5,0.3,0.9,0.5,1.2c0.6,0.5,1.3,1,1.8,1.5c0.5,0.5,1.5,0.5,2,0l3.2-3.3
			c0.3-0.2,0.5-0.4,0.5-0.7l0.3-2.1l2.8,2.8l-0.8,7.1c-0.3,0.5,0,1,0.2,1.2c2.2,2.8,4.2,5.7,5.9,8.9c0.3,0.3,0.3,0.3,0.5,0.5
			l-1.2,2.5c-0.2,0.5-0.2,0.7,0,1.2c0.3,0.8,0.7,1.6,1,2.3c0.3,0.7,1,0.9,1.8,0.7l4.2-1.8c0.3,0,0.5-0.3,0.8-0.5l1.2-2l1.4,3.6
			l-3.5,6.4c-0.2,0.3-0.2,0.8-0.2,1c0,0.2,0,0.5,0,0.8c0.2,1.7,1.6,8.4,1.8,10.2c0,0.3,0,0.6,0.2,0.8l-2.3,1.7
			c-0.2,0.4-0.5,0.7-0.6,1.2c0,1-0.1,1.7-0.1,2.5c0,1,0.7,1.5,1.4,1.6l4.7,0.2c0.5,0,0.7,0,1-0.1l2-1.1L146.5,78.9z"/>
	</g>
</g>
</svg>
