<?xml version="1.0" encoding="utf-8"?>
<!-- Generator: Adobe Illustrator 15.1.0, SVG Export Plug-In . SVG Version: 6.00 Build 0)  -->
<!DOCTYPE svg PUBLIC "-//W3C//DTD SVG 1.1//EN" "http://www.w3.org/Graphics/SVG/1.1/DTD/svg11.dtd">
<svg version="1.1" id="Layer_1" xmlns="http://www.w3.org/2000/svg" xmlns:xlink="http://www.w3.org/1999/xlink" x="0px" y="0px"
	 width="72px" height="72px" viewBox="0 0 72 72" enable-background="new 0 0 72 72" xml:space="preserve">
<defs>
	<filter id="Adobe_OpacityMaskFilter" filterUnits="userSpaceOnUse" x="-21.26" y="-0.429" width="114.51" height="73.007">
		<feColorMatrix  type="matrix" values="1 0 0 0 0  0 1 0 0 0  0 0 1 0 0  0 0 0 1 0"/>
	</filter>
</defs>
<mask maskUnits="userSpaceOnUse" x="-21.26" y="-0.429" width="114.51" height="73.007" id="SVGID_1_">
	<g filter="url(#Adobe_OpacityMaskFilter)">
		<circle fill="#FFFFFF" cx="36" cy="36" r="36"/>
	</g>
</mask>
<g mask="url(#SVGID_1_)">
	<rect x="-21.26" y="-0.429" fill="#DA1F27" width="114.51" height="73.007"/>
	<rect x="-21.26" y="-0.429" fill="#FBDD06" width="114.51" height="46.046"/>
	<rect x="-21.26" y="-0.429" fill="#158943" width="114.51" height="26.961"/>
	<circle fill="#264DA1" cx="35.995" cy="36.074" r="19.085"/>
	<path id="path12" fill="#FBDD06" d="M21.474,31.297h11.093l2.508-7.719l0.669,2.059L32.1,36.854l-1.083-0.786l1.137-3.499h-8.929
		L21.474,31.297 M27.021,48.367l3.428-10.551l-6.566-4.77h2.165l9.542,6.933l-1.082,0.787l-2.976-2.163l-2.759,8.492L27.021,48.367
		 M44.969,48.367l-8.974-6.521l-6.566,4.771l0.669-2.058l9.542-6.934l0.412,1.272l-2.975,2.162l7.222,5.248L44.969,48.367
		 M50.516,31.297l-8.975,6.519l2.509,7.721l-1.751-1.273l-3.646-11.217h1.338l1.137,3.498l7.224-5.248H50.516 M35.995,20.747
		l3.428,10.55h8.117l-1.752,1.272H33.993l0.414-1.272h3.678l-2.758-8.492L35.995,20.747L35.995,20.747z"/>
	<path id="path14" fill="#010101" stroke="#FBDD06" stroke-width="6.6667" d="M35.995,43.073v8.27 M29.34,38.237l-7.866,2.556
		 M31.882,30.413l-4.861-6.69 M40.108,30.413l4.86-6.69 M42.65,38.237l7.865,2.556L42.65,38.237z"/>
</g>
</svg>
