<?xml version="1.0" encoding="utf-8"?>
<!-- Generator: Adobe Illustrator 15.1.0, SVG Export Plug-In . SVG Version: 6.00 Build 0)  -->
<!DOCTYPE svg PUBLIC "-//W3C//DTD SVG 1.1//EN" "http://www.w3.org/Graphics/SVG/1.1/DTD/svg11.dtd">
<svg version="1.1" id="Layer_1" xmlns="http://www.w3.org/2000/svg" xmlns:xlink="http://www.w3.org/1999/xlink" x="0px" y="0px"
	 width="72px" height="72px" viewBox="0 0 72 72" enable-background="new 0 0 72 72" xml:space="preserve">
<defs>
	<filter id="Adobe_OpacityMaskFilter" filterUnits="userSpaceOnUse" x="-18" y="0" width="108" height="72">
		<feColorMatrix  type="matrix" values="1 0 0 0 0  0 1 0 0 0  0 0 1 0 0  0 0 0 1 0"/>
	</filter>
</defs>
<mask maskUnits="userSpaceOnUse" x="-18" y="0" width="108" height="72" id="SVGID_1_">
	<g filter="url(#Adobe_OpacityMaskFilter)">
		<circle fill="#FFFFFF" cx="36" cy="36" r="36"/>
	</g>
</mask>
<g mask="url(#SVGID_1_)">
	<circle fill="#FFFFFF" cx="36" cy="36" r="36"/>
	<g>
		<rect x="-18" fill="#F89939" width="108" height="72"/>
		<rect x="-18" y="24" fill="#FFFFFF" width="108" height="24"/>
		<rect x="-18" y="48" fill="#1E8943" width="108" height="24"/>
		<g>
			<circle fill="#2A2C7A" cx="-76.501" cy="-39" r="9.6"/>
			<circle fill="#FFFFFF" cx="-76.501" cy="-39" r="8.4"/>
			<circle fill="#2A2C7A" cx="-76.501" cy="-39" r="1.68"/>
			<g>
				<g>
					<g id="b">
						<g id="a">
							<circle fill="#2A2C7A" cx="-68.173" cy="-37.904" r="0.42"/>
							<path fill="#2A2C7A" d="M-76.501-30.601l0.288-5.039l-0.288-2.4l-0.287,2.4L-76.501-30.601z"/>
						</g>
						<g transform="rotate(15)">
							<g id="a_1_">
								<circle fill="#2A2C7A" cx="-68.74" cy="-35.786" r="0.42"/>
								<path fill="#2A2C7A" d="M-78.674-30.886l1.582-4.795l0.344-2.392l-0.899,2.244L-78.674-30.886z"/>
							</g>
						</g>
					</g>
					<g id="c_10_">
						<g id="b_1_">
							<g id="a_2_">
								<circle fill="#2A2C7A" cx="-69.836" cy="-33.887" r="0.42"/>
								<path fill="#2A2C7A" d="M-80.7-31.726l2.77-4.221l0.951-2.222l-1.449,1.934L-80.7-31.726z"/>
							</g>
							<g transform="rotate(30)">
								<g id="a_3_">
									<circle fill="#2A2C7A" cx="-71.387" cy="-32.336" r="0.42"/>
									<path fill="#2A2C7A" d="M-82.439-33.061l3.767-3.36l1.494-1.9l-1.901,1.494L-82.439-33.061z"/>
								</g>
							</g>
						</g>
					</g>
					<g>
						<g id="d">
							<g id="b_2_">
								<g id="a_4_">
									<circle fill="#2A2C7A" cx="-73.286" cy="-31.24" r="0.42"/>
									<path fill="#2A2C7A" d="M-83.775-34.8l4.509-2.271l1.936-1.449l-2.223,0.951L-83.775-34.8z"/>
								</g>
								<g transform="rotate(15)">
									<g id="a_5_">
										<circle fill="#2A2C7A" cx="-75.403" cy="-30.672" r="0.42"/>
										<path fill="#2A2C7A" d="M-84.614-36.826l4.943-1.026l2.243-0.899l-2.394,0.343L-84.614-36.826z"/>
									</g>
								</g>
							</g>
							<g id="c_9_">
								<g id="b_3_">
									<g id="a_6_">
										<circle fill="#2A2C7A" cx="-77.597" cy="-30.672" r="0.42"/>
										<path fill="#2A2C7A" d="M-84.9-39l5.04,0.288l2.4-0.288l-2.4-0.289L-84.9-39z"/>
									</g>
									<g transform="rotate(60)">
										<g id="a_7_">
											<circle fill="#2A2C7A" cx="-79.714" cy="-31.24" r="0.42"/>
											<path fill="#2A2C7A" d="M-84.614-41.174l4.793,1.582l2.394,0.343l-2.243-0.899L-84.614-41.174z"/>
										</g>
									</g>
								</g>
							</g>
						</g>
						<g>
							<g>
								<g>
									<g id="b_4_">
										<g id="a_8_">
											<circle fill="#2A2C7A" cx="-81.614" cy="-32.336" r="0.42"/>
											<path fill="#2A2C7A" d="M-83.775-43.2l4.222,2.77l2.223,0.95l-1.936-1.45L-83.775-43.2z"/>
										</g>
										<g transform="rotate(15)">
											<g id="a_9_">
												<circle fill="#2A2C7A" cx="-83.164" cy="-33.887" r="0.42"/>
												<path fill="#2A2C7A" d="M-82.439-44.939l3.359,3.767l1.901,1.493l-1.494-1.901L-82.439-44.939z"/>
											</g>
										</g>
									</g>
									<g id="c_8_">
										<g id="b_5_">
											<g id="a_10_">
												<circle fill="#2A2C7A" cx="-84.26" cy="-35.786" r="0.42"/>
												<path fill="#2A2C7A" d="M-80.7-46.275l2.271,4.509l1.449,1.935l-0.951-2.223L-80.7-46.275z"/>
											</g>
											<g transform="rotate(30)">
												<g id="a_11_">
													<circle fill="#2A2C7A" cx="-84.829" cy="-37.904" r="0.42"/>
													<path fill="#2A2C7A" d="M-78.674-47.114l1.026,4.942l0.899,2.244l-0.344-2.393L-78.674-47.114z"/>
												</g>
											</g>
										</g>
									</g>
									<g>
										<g id="d_1_">
											<g id="b_6_">
												<g id="a_12_">
													<circle fill="#2A2C7A" cx="-84.829" cy="-40.097" r="0.42"/>
													<path fill="#2A2C7A" d="M-76.501-47.4l-0.287,5.041l0.287,2.399l0.288-2.399L-76.501-47.4z"/>
												</g>
												<g transform="rotate(15)">
													<g id="a_13_">
														<circle fill="#2A2C7A" cx="-84.26" cy="-42.215" r="0.42"/>
														<path fill="#2A2C7A" d="M-74.326-47.114l-1.582,4.793l-0.344,2.393l0.899-2.244L-74.326-47.114z"/>
													</g>
												</g>
											</g>
											<g id="c_7_">
												<g id="b_7_">
													<g id="a_14_">
														<circle fill="#2A2C7A" cx="-83.164" cy="-44.114" r="0.42"/>
														<path fill="#2A2C7A" d="M-72.3-46.275l-2.77,4.221l-0.951,2.223l1.449-1.935L-72.3-46.275z"/>
													</g>
													<g transform="rotate(120)">
														<g id="a_15_">
															<circle fill="#2A2C7A" cx="-81.614" cy="-45.664" r="0.42"/>
															<path fill="#2A2C7A" d="M-70.561-44.939l-3.767,3.359l-1.494,1.901l1.9-1.493L-70.561-44.939z"/>
														</g>
													</g>
												</g>
											</g>
										</g>
										<g>
											<g>
												<g>
													<g id="b_8_">
														<g id="a_16_">
															<circle fill="#2A2C7A" cx="-79.714" cy="-46.76" r="0.42"/>
															<path fill="#2A2C7A" d="M-69.226-43.2l-4.51,2.27l-1.934,1.45l2.223-0.95L-69.226-43.2z"/>
														</g>
														<g transform="rotate(15)">
															<g id="a_17_">
																<circle fill="#2A2C7A" cx="-77.597" cy="-47.328" r="0.42"/>
																<path fill="#2A2C7A" d="M-68.386-41.174l-4.943,1.026l-2.244,0.899l2.393-0.343L-68.386-41.174z"/>
															</g>
														</g>
													</g>
													<g id="c_6_">
														<g id="b_9_">
															<g id="a_18_">
																<circle fill="#2A2C7A" cx="-75.403" cy="-47.328" r="0.42"/>
																<path fill="#2A2C7A" d="M-68.1-39l-5.04-0.289L-75.54-39l2.4,0.288L-68.1-39z"/>
															</g>
															<g transform="rotate(30)">
																<g id="a_19_">
																	<circle fill="#2A2C7A" cx="-73.286" cy="-46.76" r="0.42"/>
																	<path fill="#2A2C7A" d="M-68.386-36.826l-4.795-1.583l-2.393-0.343l2.244,0.899L-68.386-36.826z"/>
																</g>
															</g>
														</g>
													</g>
													<g transform="translate(112.5,75)">
														<g id="d_2_">
															<g id="b_10_">
																<g id="a_20_">
																	<circle fill="#2A2C7A" cx="-71.387" cy="-45.664" r="0.42"/>
																	<path fill="#2A2C7A" d="M-69.226-34.8l-4.221-2.77l-2.223-0.951l1.934,1.449L-69.226-34.8z"/>
																</g>
																<g transform="rotate(15)">
																	<g id="a_21_">
																		<circle fill="#2A2C7A" cx="-69.836" cy="-44.114" r="0.42"/>
																		<path fill="#2A2C7A" d="M-70.561-33.061l-3.36-3.767l-1.9-1.494l1.494,1.9L-70.561-33.061z"/>
																	</g>
																</g>
															</g>
															<g id="c_5_">
																<g id="b_11_">
																	<g id="a_22_">
																		<circle fill="#2A2C7A" cx="-68.74" cy="-42.215" r="0.42"/>
																		<path fill="#2A2C7A" d="M-72.3-31.726l-2.271-4.509l-1.449-1.934l0.951,2.222L-72.3-31.726z"/>
																	</g>
																	<g transform="rotate(-120)">
																		<g id="a_23_">
																			<circle fill="#2A2C7A" cx="-68.173" cy="-40.097" r="0.42"/>
																			<path fill="#2A2C7A" d="M-74.326-30.886l-1.026-4.943l-0.899-2.244l0.344,2.392L-74.326-30.886z"/>
																		</g>
																	</g>
																</g>
															</g>
														</g>
													</g>
												</g>
											</g>
										</g>
									</g>
								</g>
							</g>
						</g>
					</g>
				</g>
			</g>
		</g>
	</g>
</g>
</svg>
