<?xml version="1.0" encoding="utf-8"?>
<!-- Generator: Adobe Illustrator 15.1.0, SVG Export Plug-In . SVG Version: 6.00 Build 0)  -->
<!DOCTYPE svg PUBLIC "-//W3C//DTD SVG 1.1//EN" "http://www.w3.org/Graphics/SVG/1.1/DTD/svg11.dtd">
<svg version="1.1" id="Layer_1" xmlns="http://www.w3.org/2000/svg" xmlns:xlink="http://www.w3.org/1999/xlink" x="0px" y="0px"
	 width="72px" height="72px" viewBox="0 0 72 72" enable-background="new 0 0 72 72" xml:space="preserve">
<defs>
	<filter id="Adobe_OpacityMaskFilter" filterUnits="userSpaceOnUse" x="-3" y="-2.667" width="78" height="77.333">
		<feColorMatrix  type="matrix" values="1 0 0 0 0  0 1 0 0 0  0 0 1 0 0  0 0 0 1 0"/>
	</filter>
</defs>
<mask maskUnits="userSpaceOnUse" x="-3" y="-2.667" width="78" height="77.333" id="SVGID_1_">
	<g filter="url(#Adobe_OpacityMaskFilter)">
		<circle fill="#FFFFFF" cx="36" cy="36" r="36"/>
	</g>
</mask>
<g mask="url(#SVGID_1_)">
	<rect x="-3" y="-2.667" fill="#FFFFFF" width="78" height="77.333"/>
	<g id="b2">
		<g>
			<path id="b_15_" fill="#010101" d="M9.664,26.313l7.265-10.898 M12.388,28.129l7.265-10.898 M15.112,29.945l7.265-10.897"/>
			<path fill="#010101" d="M15.948,30.502l-1.671-1.114l7.266-10.897l1.67,1.113L15.948,30.502z M13.224,28.687l-1.671-1.114
				l7.266-10.898l1.671,1.114L13.224,28.687z M10.499,26.87l-1.671-1.114l7.266-10.898l1.671,1.114L10.499,26.87z"/>
		</g>
		<g>
			<g>
				<path id="b_14_" fill="#010101" d="M49.622,52.952l7.265-10.897 M52.347,54.768l7.265-10.897 M55.071,56.585l7.265-10.898"/>
				<path fill="#010101" d="M55.906,57.142l-1.671-1.114l7.266-10.897l1.671,1.114L55.906,57.142z M53.182,55.325l-1.671-1.114
					l7.266-10.898l1.671,1.114L53.182,55.325z M50.457,53.509l-1.671-1.113l7.266-10.898l1.671,1.114L50.457,53.509z"/>
			</g>
		</g>
	</g>
	<path fill="#010101" stroke="#FFFFFF" d="M50.221,45.48l8.366,5.577"/>
	<circle fill="#C62032" cx="36" cy="36" r="13.097"/>
	<path fill="#223A74" d="M25.103,28.735c-2.007,3.009-1.193,7.075,1.816,9.082C29.927,39.822,33.993,39.01,36,36
		c2.006-3.009,6.071-3.822,9.081-1.816c3.01,2.006,3.823,6.072,1.816,9.082c-4.012,6.019-12.144,7.645-18.163,3.632
		C22.716,42.886,21.09,34.754,25.103,28.735z"/>
	<g transform="rotate(-123.6900675)">
		<g id="b2_1_">
			<g>
				<path id="b_13_" fill="#010101" d="M16.928,56.585L9.664,45.687 M19.653,54.768L12.388,43.87 M22.377,52.952l-7.265-10.897"/>
				<path fill="#010101" d="M16.093,57.142L8.828,46.244l1.671-1.114l7.265,10.897L16.093,57.142z M18.818,55.325l-7.266-10.898
					l1.671-1.114l7.265,10.898L18.818,55.325z M21.542,53.509l-7.266-10.897l1.671-1.114l7.265,10.898L21.542,53.509z"/>
			</g>
			<g>
				<g>
					<path id="b_12_" fill="#010101" d="M56.887,29.945l-7.265-10.897 M59.611,28.129l-7.265-10.898 M62.336,26.313l-7.265-10.898"
						/>
					<path fill="#010101" d="M56.052,30.502l-7.266-10.898l1.671-1.113l7.266,10.897L56.052,30.502z M58.776,28.687l-7.266-10.898
						l1.671-1.114l7.266,10.898L58.776,28.687z M61.501,26.87l-7.266-10.898l1.671-1.114l7.266,10.898L61.501,26.87z"/>
				</g>
			</g>
		</g>
		<g>
			<path fill="#010101" d="M14.658,50.228l2.725-1.816 M51.438,25.708l3.179-2.119 M57.342,21.772l2.725-1.816"/>
			<path fill="#FFFFFF" d="M15.215,51.062l-1.114-1.671l2.724-1.815l1.114,1.671L15.215,51.062z M51.996,26.543l-1.114-1.671
				l3.178-2.119l1.114,1.671L51.996,26.543z M57.898,22.607l-1.114-1.67l2.725-1.817l1.113,1.671L57.898,22.607z"/>
		</g>
	</g>
</g>
</svg>
