<?xml version="1.0" encoding="utf-8"?>
<!-- Generator: Adobe Illustrator 18.1.0, SVG Export Plug-In . SVG Version: 6.00 Build 0)  -->
<!DOCTYPE svg PUBLIC "-//W3C//DTD SVG 1.1//EN" "http://www.w3.org/Graphics/SVG/1.1/DTD/svg11.dtd">
<svg version="1.1" id="Layer_1" xmlns="http://www.w3.org/2000/svg" xmlns:xlink="http://www.w3.org/1999/xlink" x="0px" y="0px" viewBox="0 0 2000 2000" xml:space="preserve">
<g>
	<g>
		<path fill="#F1EA3F" d="M1947.7,1291.2c0.6-1.2,1.2-2.9,1.2-4.6c16.8-198.8,32.9-397.1,49.7-596c0.6-9.2-8.1-17.3-16.8-16.8
			c-405.8,6.9-1496-12.7-1902.3-5.2c-9.8,0-16.2,7.5-16.8,16.8C42.5,882.5,22.3,1079,1.5,1276.1c-1.2,9.2,8.7,17.3,16.8,16.8
			c409.8-5.8,1503.5,16.2,1913.9,10.4c7.5,0,12.1-4,14.5-9.2c0.6-0.6,0.6-0.6,0.6-1.2C1947.7,1292.3,1947.7,1291.7,1947.7,1291.2z"
			/>
	</g>
	<path d="M1408.4,985.9c-213.3-139.3-426.6-279.2-639.9-418.5c-10.4-6.9-24.9,2.3-24.9,13.9c0,279.2,0,558.4,0,837
		c0,5.8,2.9,10.4,6.4,12.7c4.6,4,11,5.8,17.9,1.2c213.3-139.3,426.6-279.2,639.9-418.5C1418.8,1007.3,1418.8,992.9,1408.4,985.9z"/>
</g>
</svg>
