<?xml version="1.0" encoding="utf-8"?>
<!-- Generator: Adobe Illustrator 18.1.0, SVG Export Plug-In . SVG Version: 6.00 Build 0)  -->
<!DOCTYPE svg PUBLIC "-//W3C//DTD SVG 1.1//EN" "http://www.w3.org/Graphics/SVG/1.1/DTD/svg11.dtd">
<svg version="1.1" id="Layer_1" xmlns="http://www.w3.org/2000/svg" xmlns:xlink="http://www.w3.org/1999/xlink" x="0px" y="0px" viewBox="0 0 2000 2000" xml:space="preserve">
<g>
	<g>
		<path fill="#F1EA3F" d="M1947.9,1291.7c0.6-1.2,1.2-2.9,1.2-4.6c16.8-198.8,32.9-397.1,49.7-596c0.6-9.2-8.1-17.3-16.8-16.8
			c-405.8,6.9-1496-13.3-1902.3-5.8c-9.8,0-16.2,7.5-16.8,16.8C42.7,882.4,22.5,1079,1.7,1276.1c-1.2,9.2,8.7,17.3,16.8,16.8
			c409.8-5.8,1503.5,16.2,1913.9,10.4c7.5,0,12.1-4,14.5-9.2c0.6-0.6,0.6-0.6,0.6-1.2C1947.9,1292.8,1947.9,1292.3,1947.9,1291.7z"
			/>
	</g>
	<path d="M1275.1,1042c0,151.4-123.1,274.6-274.6,274.6S725.9,1193.5,725.9,1042c0-145.7,114.5-265.3,257.8-274
		c0,34.1,0,68.2,0,102.3c0,2.9,1.2,5.2,3.5,6.4c2.3,2.3,5.8,3.5,9.8,1.2c111-73.4,222-146.2,332.9-218.5c5.2-3.5,5.2-11,0-15
		c-111-72.8-222.5-145.7-333.5-218.5c-5.8-3.5-12.7,1.2-12.7,7.5c0,34.7,0,68.8,0,103.5c-271.1,8.7-488.4,231.8-488.4,504.6
		c0,278.6,226.6,505.2,505.2,505.2s505.2-226.6,505.2-505.2h-230.6V1042z"/>
</g>
</svg>
