<?xml version="1.0" encoding="utf-8"?>
<!-- Generator: Adobe Illustrator 18.1.0, SVG Export Plug-In . SVG Version: 6.00 Build 0)  -->
<!DOCTYPE svg PUBLIC "-//W3C//DTD SVG 1.1//EN" "http://www.w3.org/Graphics/SVG/1.1/DTD/svg11.dtd">
<svg version="1.1" id="Layer_1" xmlns="http://www.w3.org/2000/svg" xmlns:xlink="http://www.w3.org/1999/xlink" x="0px" y="0px" viewBox="0 0 2000 2000" xml:space="preserve">
<g>
	<g>
		<path fill="#F1EA3F" d="M1944.8,1291.1c0.6-1.2,1.2-2.9,1.2-4.6c16.8-198.8,32.9-396.5,49.7-595.4c0.6-9.2-8.1-17.3-16.8-16.8
			c-405.2,6.9-1493.6-12.7-1899.4-5.8c-9.8,0-16.2,7.5-16.8,16.8c-20.2,197.1-40.4,393.1-61.2,590.2c-1.2,9.2,8.7,17.3,16.8,16.8
			c409.2-5.8,1501.2,16.2,1911,10.4c7.5,0,12.1-4,14.5-9.2c0.6-0.6,0.6-0.6,0.6-1.2C1944.8,1292.3,1944.8,1291.6,1944.8,1291.1z"/>
	</g>
	<g>
		<path d="M894.5,543.1c-87.3,0-174.6,0-261.3,0c-9.2,0-16.8,7.5-16.8,16.8c0,281.5,0,563.6,0,845.1c0,9.2,7.5,16.8,16.8,16.8
			c87.3,0,174.6,0,261.3,0c4.6,0,8.7-1.7,11-4.6c0,0,0.6,0,0.6-0.6l0.6-0.6c2.9-2.9,4.6-6.4,4.6-11c0-281.5,0-563.6,0-845.1
			C911.3,550.6,903.8,543.1,894.5,543.1z"/>
		<path d="M1394.5,559.9c0-9.2-7.5-16.8-16.8-16.8c-87.3,0-174.6,0-261.3,0c-9.2,0-16.8,7.5-16.8,16.8c0,281.5,0,563.6,0,845.1
			c0,9.2,7.5,16.8,16.8,16.8c87.3,0,174.6,0,261.3,0c4.6,0,8.7-1.7,11-4.6c0,0,0.6,0,0.6-0.6l0.6-0.6c2.9-2.9,4.6-6.4,4.6-11
			C1394.5,1123.4,1394.5,841.4,1394.5,559.9z"/>
	</g>
</g>
</svg>
